%FSAX42Y42*%
%MOMM*%
G71*
G01*
G75*
G04 Layer_Physical_Order=2*
G04 Layer_Color=16711680*
%ADD10R,0.87X0.87*%
%ADD11R,1.10X1.00*%
%ADD12R,1.00X1.10*%
%ADD13R,3.40X2.15*%
%ADD14R,1.05X2.15*%
%ADD15R,1.05X2.15*%
%ADD16R,0.50X2.10*%
%ADD17R,1.70X1.25*%
%ADD18R,1.25X1.70*%
%ADD19C,0.25*%
%ADD20C,2.50*%
%ADD21R,1.50X1.50*%
%ADD22C,1.50*%
%ADD23C,1.52*%
%ADD24C,1.20*%
%ADD25O,1.65X4.00*%
%ADD26C,1.40*%
%ADD27P,1.52X8X112.5*%
%ADD28C,3.00*%
%ADD29C,1.27*%
%ADD30O,0.40X2.10*%
%ADD31R,0.80X0.35*%
%ADD32O,0.80X0.28*%
%ADD33O,0.28X0.80*%
%ADD34R,7.65X7.65*%
D11*
X003184Y005791D02*
D03*
Y005944D02*
D03*
X003014D02*
D03*
Y005791D02*
D03*
D12*
X004166Y004131D02*
D03*
Y004301D02*
D03*
X004318D02*
D03*
Y004131D02*
D03*
X003353Y004639D02*
D03*
Y004809D02*
D03*
X003048Y005046D02*
D03*
X003181Y004810D02*
D03*
Y004640D02*
D03*
X003029D02*
D03*
Y004810D02*
D03*
X003048Y005216D02*
D03*
Y005401D02*
D03*
Y005571D02*
D03*
X003353Y006214D02*
D03*
X003505D02*
D03*
Y006384D02*
D03*
X003353D02*
D03*
X004470Y005521D02*
D03*
Y005351D02*
D03*
D19*
X003409Y003302D02*
X003479Y003371D01*
Y003567D01*
X003349D02*
Y003729D01*
X003388Y003767D01*
X003740D01*
X004109Y003398D01*
Y003299D01*
X003814D02*
X003674Y003440D01*
Y003567D01*
X003609D02*
Y003351D01*
X003633Y003297D01*
X003409Y003302D02*
X003284Y003427D01*
Y003567D01*
Y003910D01*
X003349Y003975D01*
X003785D01*
X003941Y004131D01*
X003975D02*
X004166D01*
X004318D01*
Y004301D02*
X004276Y004343D01*
X004490Y004558D01*
Y005147D01*
X004375Y005262D01*
Y005328D01*
X004343Y005360D01*
X004287D01*
X004287Y005410D02*
X004363D01*
X004422Y005351D01*
X004470D01*
X004460Y005510D02*
X004082D01*
X004308Y005460D02*
Y005410D01*
X004307Y005310D02*
X003882D01*
Y004835D02*
Y004658D01*
X003938Y004603D01*
X003932Y004760D02*
X004067Y004625D01*
Y004515D01*
X004008Y004455D01*
X003972D01*
X003950Y004303D02*
X004164D01*
X004166Y004301D02*
X004318D01*
X004322Y004525D02*
Y004578D01*
X004235D01*
X004032Y004780D01*
Y004835D01*
X003982D02*
Y004770D01*
X004155Y004597D01*
Y004460D01*
X004450Y004700D02*
X004490Y004660D01*
X004450Y004700D02*
X004265D01*
X004183Y004783D01*
Y004835D01*
X004132D02*
Y005010D01*
X003932Y004835D02*
Y004760D01*
X003683Y004835D02*
Y004690D01*
X003767Y004605D01*
Y004485D01*
X003950Y004303D01*
X003633Y004638D02*
Y004835D01*
Y005060D01*
X003583Y004835D02*
Y004664D01*
X003408Y004490D01*
X003215D01*
X003091Y004366D01*
Y004259D01*
X003089Y004257D01*
X003219D02*
Y004401D01*
X003260Y004442D01*
X003438D01*
X003633Y004638D01*
X003532Y004835D02*
Y004772D01*
X003485Y004725D01*
X002945D01*
X002920Y004700D01*
Y004562D01*
X002829Y004471D01*
Y004257D01*
X002894D02*
Y004431D01*
X003030Y004567D01*
Y004638D01*
X003029Y004640D01*
Y004810D02*
X003181D01*
X003353D01*
X003353Y004639D02*
Y004593D01*
X003292Y004533D01*
X003167D01*
X003024Y004389D01*
Y004257D01*
Y003985D01*
Y003949D01*
Y003784D02*
X003215Y003975D01*
X003219D02*
X003349D01*
X003219Y004105D01*
Y004257D01*
X002959Y004399D02*
X003181Y004621D01*
Y004640D01*
X003322Y004970D02*
Y005022D01*
Y005061D01*
Y005022D02*
Y005130D01*
X003353Y005160D01*
X003408D01*
Y005210D02*
X003783D01*
X003932Y005360D02*
Y005735D01*
X003982D01*
Y005410D01*
X004287Y005608D02*
X004373D01*
X004430Y005665D01*
Y005764D01*
X004360Y005834D01*
Y005893D01*
X004321D01*
X004380Y005747D02*
Y005690D01*
X004348Y005658D01*
X004287D01*
X004308Y005820D02*
X004380Y005747D01*
X004114Y005946D02*
X004240Y005820D01*
X004308D01*
X004114Y005946D02*
X004046D01*
X003888Y005940D02*
Y006015D01*
X004010Y006138D01*
X003888Y005940D02*
X004032Y005795D01*
Y005735D01*
X003882D02*
Y005823D01*
X003645Y006060D01*
X003555D01*
X003495Y006120D01*
Y006174D01*
X003359Y006186D02*
X003522Y006022D01*
X003617D01*
X003833Y005807D01*
Y005735D01*
X003575Y005938D02*
X003683Y005830D01*
Y005735D01*
X003633D02*
Y005817D01*
X003553Y005897D01*
X003455D01*
X003315Y006038D01*
X003190D01*
X003081Y006147D01*
X002794D01*
X002877Y006020D02*
X002954Y005944D01*
X003014D01*
Y005791D01*
X003048Y005757D01*
Y005571D01*
X002976D01*
X002930Y005525D01*
Y005288D01*
X003002Y005216D01*
X003048D01*
X003160Y005310D02*
X003408D01*
Y005260D02*
X003315D01*
X003310Y005255D02*
X003251Y005196D01*
Y005039D01*
X003053D01*
X003270Y004917D02*
X003322Y004970D01*
X003160Y005310D02*
X003069Y005401D01*
X003223Y005555D01*
X003250Y005410D02*
X003408D01*
Y005360D02*
X003783D01*
Y005735D01*
X003733D02*
Y005840D01*
X003590Y005983D01*
X003500D01*
X003360Y006122D01*
X003253D01*
X003190Y006185D01*
Y006259D01*
X002794Y006655D01*
Y006401D02*
X002899D01*
X003220Y006080D01*
X003338D01*
X003480Y005938D01*
X003575D01*
X003763Y006202D02*
Y006367D01*
X003540Y006590D01*
X003208D01*
X003208Y006590D01*
X003208Y006590D02*
X002920Y006878D01*
X002715D01*
X002625Y006788D01*
Y006085D01*
X002690Y006020D01*
X002877D01*
X002794Y005893D02*
Y005859D01*
X002630Y005695D01*
Y004858D01*
X002738Y004750D01*
X002860D01*
X002920Y004810D01*
X003029D01*
X002959Y004399D02*
Y004257D01*
X003024Y003784D02*
Y003567D01*
X002959D01*
X003270Y004917D02*
X002835D01*
X002794Y004877D01*
X003310Y005490D02*
Y005580D01*
X003309Y005580D01*
Y005626D01*
X003184Y005751D01*
Y005791D01*
X003378Y005560D02*
X003408D01*
X003378D02*
X003345Y005592D01*
Y005594D01*
X003345Y005595D01*
Y005625D01*
X003345Y005626D01*
Y005644D01*
X003345Y005645D01*
Y005675D01*
X003345Y005676D01*
Y005833D01*
X003235Y005944D01*
X003324Y006186D02*
X003359D01*
X003763Y006202D02*
X003809Y006247D01*
X004263D01*
Y006702D01*
X003763D01*
X003738Y006452D02*
X004013D01*
X003738D02*
X003535Y006655D01*
X003505D01*
X003480Y006655D02*
Y006785D01*
Y006525D02*
Y006409D01*
X003353Y006384D02*
Y006492D01*
X003320Y006525D01*
X003310Y005490D02*
X003340Y005460D01*
X003408D01*
Y005510D02*
X003633D01*
D20*
X004263Y006202D02*
D03*
X004013Y006452D02*
D03*
X004263Y006702D02*
D03*
X003763D02*
D03*
Y006202D02*
D03*
D21*
X002794Y006655D02*
D03*
D22*
X002794Y004623D02*
D03*
Y004877D02*
D03*
Y005131D02*
D03*
Y005385D02*
D03*
Y005639D02*
D03*
Y005893D02*
D03*
Y006147D02*
D03*
Y006401D02*
D03*
D23*
X004318Y005944D02*
D03*
X004046Y005946D02*
D03*
D24*
X003636Y002810D02*
D03*
X004086D02*
D03*
D25*
X003291Y002810D02*
D03*
X004431D02*
D03*
D26*
X003200Y005578D02*
D03*
D27*
X003200Y005090D02*
D03*
D28*
X004022Y003878D02*
D03*
D29*
X003409Y003302D02*
D03*
X003653Y003303D02*
D03*
X003858Y003297D02*
D03*
X004109Y003299D02*
D03*
X003975Y004162D02*
D03*
X004155Y004460D02*
D03*
X004322Y004578D02*
D03*
X003938Y004603D02*
D03*
X003972Y004455D02*
D03*
X003767Y004605D02*
D03*
X003240Y005420D02*
D03*
X004010Y006138D02*
D03*
X003480Y006785D02*
D03*
X003024Y003985D02*
D03*
D30*
X003609Y003567D02*
D03*
X003674D02*
D03*
X003544D02*
D03*
X003479D02*
D03*
X003414D02*
D03*
X003349D02*
D03*
X003284D02*
D03*
X003219D02*
D03*
X003154D02*
D03*
X003089D02*
D03*
X003024D02*
D03*
X002959D02*
D03*
X002894D02*
D03*
X002829D02*
D03*
X003349Y004257D02*
D03*
X003414D02*
D03*
X003479D02*
D03*
X003544D02*
D03*
X003609D02*
D03*
X003674D02*
D03*
X003284D02*
D03*
X003219D02*
D03*
X003154D02*
D03*
X003089D02*
D03*
X003024D02*
D03*
X002959D02*
D03*
X002894D02*
D03*
X002829D02*
D03*
D31*
X003320Y006525D02*
D03*
Y006590D02*
D03*
X003480D02*
D03*
Y006525D02*
D03*
Y006655D02*
D03*
X003320D02*
D03*
D32*
X004307Y004910D02*
D03*
Y004960D02*
D03*
Y005010D02*
D03*
Y005060D02*
D03*
Y005110D02*
D03*
Y005160D02*
D03*
Y005210D02*
D03*
Y005260D02*
D03*
Y005310D02*
D03*
Y005360D02*
D03*
X004308Y005410D02*
D03*
X004307Y005460D02*
D03*
Y005510D02*
D03*
Y005560D02*
D03*
Y005610D02*
D03*
X004308Y005660D02*
D03*
X003408Y005660D02*
D03*
Y005610D02*
D03*
Y005560D02*
D03*
Y005510D02*
D03*
Y005460D02*
D03*
Y005410D02*
D03*
Y005360D02*
D03*
Y005310D02*
D03*
Y005260D02*
D03*
Y005210D02*
D03*
Y005160D02*
D03*
Y005110D02*
D03*
Y005060D02*
D03*
Y005010D02*
D03*
Y004960D02*
D03*
Y004910D02*
D03*
D33*
X004082Y004835D02*
D03*
X004132D02*
D03*
X004183D02*
D03*
X004232D02*
D03*
X004032D02*
D03*
X003982D02*
D03*
X003932D02*
D03*
X003882D02*
D03*
X003833D02*
D03*
X003783D02*
D03*
X003733D02*
D03*
X003683D02*
D03*
X003633D02*
D03*
X003583D02*
D03*
X003532D02*
D03*
X003483D02*
D03*
X004082Y005735D02*
D03*
X004132D02*
D03*
X004183D02*
D03*
X004232D02*
D03*
X004032D02*
D03*
X003982D02*
D03*
X003932D02*
D03*
X003882D02*
D03*
X003833D02*
D03*
X003783D02*
D03*
X003733D02*
D03*
X003683D02*
D03*
X003633D02*
D03*
X003583D02*
D03*
X003532D02*
D03*
X003483D02*
D03*
D34*
X003858Y005285D02*
D03*
M02*
