%FSAX42Y42*%
%MOMM*%
G71*
G01*
G75*
G04 Layer_Color=16711935*
%ADD10R,0.50X2.10*%
%ADD11P,1.65X8X292.5*%
%ADD12R,1.52X1.52*%
%ADD13P,1.65X8X202.5*%
%ADD14R,1.52X1.52*%
%ADD15R,1.70X1.25*%
%ADD16R,1.05X2.15*%
%ADD17R,1.05X2.15*%
%ADD18R,3.40X2.15*%
%ADD19R,1.00X1.10*%
%ADD20R,1.10X1.00*%
%ADD21R,0.87X0.87*%
%ADD22C,0.25*%
%ADD23C,1.50*%
%ADD24C,1.65*%
%ADD25C,3.00*%
%ADD26P,1.52X8X112.5*%
%ADD27C,1.40*%
%ADD28C,1.52*%
%ADD29R,1.50X1.50*%
%ADD30C,2.50*%
%ADD31C,1.27*%
%ADD32R,0.80X0.35*%
%ADD33O,0.40X2.10*%
%ADD34O,0.28X0.80*%
%ADD35O,0.80X0.28*%
%ADD36R,7.65X7.65*%
%ADD37C,0.25*%
%ADD38C,0.20*%
%ADD39C,0.60*%
%ADD40R,1.80X2.00*%
%ADD41R,2.00X1.80*%
%ADD42R,1.80X1.80*%
%ADD43O,0.22X0.74*%
%ADD44O,0.74X0.22*%
%ADD45R,2.05X2.05*%
%ADD46R,0.70X2.30*%
%ADD47P,1.87X8X292.5*%
%ADD48R,1.73X1.73*%
%ADD49P,1.87X8X202.5*%
%ADD50R,1.73X1.73*%
%ADD51R,1.90X1.45*%
%ADD52R,1.25X2.35*%
%ADD53R,1.25X2.35*%
%ADD54R,3.60X2.35*%
%ADD55R,1.20X1.30*%
%ADD56R,1.30X1.20*%
%ADD57R,1.54X1.54*%
%ADD58C,1.70*%
%ADD59C,1.85*%
%ADD60C,3.20*%
%ADD61P,1.74X8X112.5*%
%ADD62C,1.60*%
%ADD63C,1.73*%
%ADD64R,1.70X1.70*%
%ADD65C,2.70*%
%ADD66C,1.47*%
%ADD67R,1.00X0.55*%
%ADD68O,0.60X2.30*%
D34*
X004082Y004835D02*
D03*
X004132D02*
D03*
X004183D02*
D03*
X004232D02*
D03*
X004032D02*
D03*
X003982D02*
D03*
X003932D02*
D03*
X003882D02*
D03*
X003833D02*
D03*
X003783D02*
D03*
X003733D02*
D03*
X003683D02*
D03*
X003633D02*
D03*
X003583D02*
D03*
X003532D02*
D03*
X003483D02*
D03*
X004082Y005735D02*
D03*
X004132D02*
D03*
X004183D02*
D03*
X004232D02*
D03*
X004032D02*
D03*
X003982D02*
D03*
X003932D02*
D03*
X003882D02*
D03*
X003833D02*
D03*
X003783D02*
D03*
X003733D02*
D03*
X003683D02*
D03*
X003633D02*
D03*
X003583D02*
D03*
X003532D02*
D03*
X003483D02*
D03*
D35*
X004307Y004910D02*
D03*
Y004960D02*
D03*
Y005010D02*
D03*
Y005060D02*
D03*
Y005110D02*
D03*
Y005160D02*
D03*
Y005210D02*
D03*
Y005260D02*
D03*
Y005310D02*
D03*
Y005360D02*
D03*
X004308Y005410D02*
D03*
X004307Y005460D02*
D03*
Y005510D02*
D03*
Y005560D02*
D03*
Y005610D02*
D03*
X004308Y005660D02*
D03*
X003408Y005660D02*
D03*
Y005610D02*
D03*
Y005560D02*
D03*
Y005510D02*
D03*
Y005460D02*
D03*
Y005410D02*
D03*
Y005360D02*
D03*
Y005310D02*
D03*
Y005260D02*
D03*
Y005210D02*
D03*
Y005160D02*
D03*
Y005110D02*
D03*
Y005060D02*
D03*
Y005010D02*
D03*
Y004960D02*
D03*
Y004910D02*
D03*
D36*
X003858Y005285D02*
D03*
D55*
X004166Y004131D02*
D03*
Y004301D02*
D03*
X004318D02*
D03*
Y004131D02*
D03*
X003300Y004639D02*
D03*
X003138Y004640D02*
D03*
Y004810D02*
D03*
X003300Y004809D02*
D03*
X002997Y005046D02*
D03*
X002976Y004810D02*
D03*
Y004640D02*
D03*
X002997Y005216D02*
D03*
Y005401D02*
D03*
Y005571D02*
D03*
X003353Y006214D02*
D03*
X003505D02*
D03*
Y006384D02*
D03*
X003353D02*
D03*
D56*
X003184Y005791D02*
D03*
Y005944D02*
D03*
X003014D02*
D03*
Y005791D02*
D03*
D58*
X003636Y002810D02*
D03*
X004086D02*
D03*
X002794Y004623D02*
D03*
Y004877D02*
D03*
Y005131D02*
D03*
Y005385D02*
D03*
Y005639D02*
D03*
Y005893D02*
D03*
Y006147D02*
D03*
Y006401D02*
D03*
D59*
X003291Y002693D02*
D03*
Y002773D02*
D03*
Y002855D02*
D03*
Y002933D02*
D03*
X004431Y002773D02*
D03*
Y002693D02*
D03*
Y002855D02*
D03*
Y002933D02*
D03*
D60*
X004022Y003878D02*
D03*
D61*
X003150Y005090D02*
D03*
D62*
X003150Y005578D02*
D03*
D63*
X004318Y005944D02*
D03*
X004046Y005946D02*
D03*
D64*
X002794Y006655D02*
D03*
D65*
X004263Y006202D02*
D03*
X004013Y006452D02*
D03*
X004263Y006702D02*
D03*
X003763D02*
D03*
Y006202D02*
D03*
D66*
X003409Y003302D02*
D03*
X003653Y003303D02*
D03*
X003858Y003297D02*
D03*
X004109Y003299D02*
D03*
X003975Y004162D02*
D03*
X004155Y004460D02*
D03*
X004322Y004578D02*
D03*
X003938Y004603D02*
D03*
X003972Y004455D02*
D03*
X003767Y004605D02*
D03*
X003460Y004680D02*
D03*
X003024Y003985D02*
D03*
X002788Y004455D02*
D03*
X003240Y005420D02*
D03*
X004010Y006138D02*
D03*
X003480Y006785D02*
D03*
X004453Y005500D02*
D03*
D67*
X003320Y006525D02*
D03*
Y006590D02*
D03*
X003480D02*
D03*
Y006525D02*
D03*
Y006655D02*
D03*
X003320D02*
D03*
D68*
X003609Y003567D02*
D03*
X003674D02*
D03*
X003544D02*
D03*
X003479D02*
D03*
X003414D02*
D03*
X003349D02*
D03*
X003284D02*
D03*
X003219D02*
D03*
X003154D02*
D03*
X003089D02*
D03*
X003024D02*
D03*
X002959D02*
D03*
X002894D02*
D03*
X002829D02*
D03*
X003349Y004257D02*
D03*
X003414D02*
D03*
X003479D02*
D03*
X003544D02*
D03*
X003609D02*
D03*
X003674D02*
D03*
X003284D02*
D03*
X003219D02*
D03*
X003154D02*
D03*
X003089D02*
D03*
X003024D02*
D03*
X002959D02*
D03*
X002894D02*
D03*
X002829D02*
D03*
M02*
