%FSAX42Y42*%
%MOMM*%
G71*
G01*
G75*
G04 Layer_Physical_Order=1*
G04 Layer_Color=255*
%ADD10R,1.10X1.00*%
%ADD11R,0.87X0.87*%
%ADD12R,1.00X1.10*%
%ADD13R,3.40X2.15*%
%ADD14R,1.05X2.15*%
%ADD15R,1.05X2.15*%
%ADD16R,0.50X2.10*%
%ADD17R,1.70X1.25*%
%ADD18R,1.25X1.70*%
%ADD19C,0.25*%
%ADD20C,2.50*%
%ADD21R,1.50X1.50*%
%ADD22C,1.50*%
%ADD23C,1.52*%
%ADD24C,1.20*%
%ADD25O,1.65X4.00*%
%ADD26C,1.40*%
%ADD27P,1.52X8X112.5*%
%ADD28C,3.00*%
%ADD29C,1.27*%
D10*
X004352Y005283D02*
D03*
X004182D02*
D03*
X003235Y006452D02*
D03*
X003065D02*
D03*
D11*
X003048Y006655D02*
D03*
Y006849D02*
D03*
X003242D02*
D03*
Y006655D02*
D03*
D12*
X003556Y004182D02*
D03*
X003759D02*
D03*
Y004352D02*
D03*
X003556D02*
D03*
X004064Y005503D02*
D03*
X004267D02*
D03*
Y005673D02*
D03*
X004064D02*
D03*
D13*
X003048Y004222D02*
D03*
D14*
X003048Y003602D02*
D03*
X003278D02*
D03*
D15*
X002818Y003602D02*
D03*
D16*
X003511Y003070D02*
D03*
X003761D02*
D03*
X003961D02*
D03*
X004211D02*
D03*
D17*
X003556Y003495D02*
D03*
Y003810D02*
D03*
D18*
X003099Y003251D02*
D03*
X002784D02*
D03*
D19*
X002638Y002527D02*
Y003728D01*
X002527D01*
Y007003D01*
X003395D01*
X003403Y006995D01*
Y006893D01*
X003778D01*
Y007003D01*
X004453D01*
Y005812D01*
X004453Y005812D02*
X004562D01*
Y004388D01*
X004453D01*
Y003212D01*
X004562D01*
Y002527D01*
X002638D01*
X003511Y003070D02*
Y003200D01*
X003409Y003302D01*
X003556Y003449D01*
X003653Y003303D02*
X003761Y003194D01*
Y003070D01*
X003961D02*
Y003194D01*
X003858Y003297D01*
X004109Y003299D02*
X004211Y003198D01*
Y003070D01*
X004109Y003299D02*
X003753Y003655D01*
X003278D01*
Y003430D01*
X003099Y003251D01*
X003190Y003083D02*
X003409Y003302D01*
Y003253D01*
X003190Y003083D02*
X002805D01*
X002784Y003104D01*
Y003251D01*
X002818Y003283D02*
Y003602D01*
Y003755D01*
X002665Y003908D01*
Y004494D01*
X002794Y004623D01*
X003066Y004605D02*
X003767D01*
Y004614D01*
X003662Y004499D02*
X003833D01*
X003938Y004603D01*
X004008Y004455D02*
X004070Y004517D01*
Y004655D01*
X003483Y005242D01*
X002909D01*
X002794Y005128D01*
X002869Y005310D02*
X003575D01*
X004155Y004730D01*
Y004510D01*
X004095Y004162D02*
X004490Y004558D01*
Y004762D01*
X004165Y005088D01*
Y005489D01*
X004253D01*
X004165D02*
Y006040D01*
X004263Y006138D01*
Y006202D01*
X004267Y005893D02*
X004318Y005944D01*
X004398Y005814D02*
X004398Y005814D01*
X004453Y005500D02*
Y005384D01*
X004352Y005283D01*
X004165Y005489D02*
X004078D01*
X004064Y005673D02*
Y005928D01*
X004046Y005946D01*
X004267Y005673D02*
Y005893D01*
X004010Y006138D02*
X003765Y005893D01*
X002794D01*
X002848Y005692D02*
X003358D01*
X004322Y004728D01*
X004322Y004728D02*
Y004578D01*
X004095Y004162D02*
X003975D01*
Y004247D01*
X003870Y004352D01*
X003759D01*
X003556D02*
Y004392D01*
X003662Y004499D01*
X003759Y004182D02*
X003556D01*
Y003810D02*
X003460D01*
X003048Y004222D01*
X003066Y004239D01*
Y004605D01*
X002794Y004877D01*
X002630Y005041D01*
Y005447D01*
X002698Y005515D01*
X003025D01*
X003120Y005420D01*
X003240D01*
X002794Y005639D02*
X002848Y005692D01*
X002794Y005385D02*
X002869Y005310D01*
X003048Y004222D02*
Y003602D01*
X003344Y006452D02*
X003480Y006588D01*
Y006785D01*
X003344Y006452D02*
X003235D01*
X003065D02*
Y006638D01*
X003048Y006655D01*
D20*
X004263Y006202D02*
D03*
X004013Y006452D02*
D03*
X004263Y006702D02*
D03*
X003763D02*
D03*
Y006202D02*
D03*
D21*
X002794Y006655D02*
D03*
D22*
X002794Y004623D02*
D03*
Y004877D02*
D03*
Y005131D02*
D03*
Y005385D02*
D03*
Y005639D02*
D03*
Y005893D02*
D03*
Y006147D02*
D03*
Y006401D02*
D03*
D23*
X004318Y005944D02*
D03*
X004046Y005946D02*
D03*
D24*
X003636Y002810D02*
D03*
X004086D02*
D03*
D25*
X003291Y002810D02*
D03*
X004431D02*
D03*
D26*
X003150Y005578D02*
D03*
D27*
X003150Y005090D02*
D03*
D28*
X004022Y003878D02*
D03*
D29*
X003409Y003302D02*
D03*
X003653Y003303D02*
D03*
X003858Y003297D02*
D03*
X004109Y003299D02*
D03*
X003975Y004162D02*
D03*
X004155Y004460D02*
D03*
X004322Y004578D02*
D03*
X003938Y004603D02*
D03*
X003972Y004455D02*
D03*
X003767Y004605D02*
D03*
X004453Y005500D02*
D03*
X004010Y006138D02*
D03*
X003480Y006785D02*
D03*
X003240Y005420D02*
D03*
X003024Y003985D02*
D03*
M02*
