%FSAX42Y42*%
%MOMM*%
G71*
G01*
G75*
%ADD10R,0.50X2.10*%
%ADD11P,1.65X8X292.5*%
%ADD12R,1.52X1.52*%
%ADD13P,1.65X8X202.5*%
%ADD14R,1.52X1.52*%
%ADD15R,1.70X1.25*%
%ADD16R,1.05X2.15*%
%ADD17R,1.05X2.15*%
%ADD18R,3.40X2.15*%
%ADD19R,1.00X1.10*%
%ADD20R,1.10X1.00*%
%ADD21R,0.87X0.87*%
%ADD22C,0.25*%
%ADD23C,1.50*%
%ADD24C,1.65*%
%ADD25C,3.00*%
%ADD26P,1.52X8X112.5*%
%ADD27C,1.40*%
%ADD28C,1.52*%
%ADD29R,1.50X1.50*%
%ADD30C,2.50*%
%ADD31C,1.27*%
%ADD32R,0.80X0.35*%
%ADD33O,0.40X2.10*%
%ADD34O,0.28X0.80*%
%ADD35O,0.80X0.28*%
%ADD36R,7.65X7.65*%
%ADD37C,0.25*%
%ADD38C,0.20*%
D22*
X003239Y002914D02*
X003264Y002888D01*
X003365D01*
X003391Y002914D01*
Y002964D01*
X003365Y002990D01*
X003391Y003041D02*
Y003091D01*
Y003066D01*
X003239D01*
X003264Y003041D01*
Y002990D02*
X003239Y002964D01*
Y002914D01*
X003365Y003168D02*
X003391D01*
X003365D02*
X003264Y003269D01*
X003239D01*
Y003168D01*
X003739Y002747D02*
X003815D01*
X003841Y002722D01*
Y002671D01*
X003815Y002646D01*
X003739D01*
Y002595D02*
Y002747D01*
X003917D02*
X003891Y002722D01*
X003917Y002747D02*
Y002595D01*
X003942D01*
X003891D01*
X003828Y003842D02*
X003675D01*
Y003919D01*
X003701Y003944D01*
X003751D01*
X003777Y003919D01*
Y003842D01*
Y003893D02*
X003828Y003944D01*
X003827Y003929D02*
X003877D01*
X003903Y003955D01*
Y004056D01*
X003877Y004081D01*
X003827D01*
X003801Y004056D01*
Y003955D02*
X003827Y003929D01*
X003828Y004071D02*
X003675D01*
X003751Y003995D01*
Y004096D01*
X003750Y004081D02*
X003700D01*
X003725D01*
Y003929D01*
X003750Y003955D01*
X003623D02*
X003598Y003929D01*
X003547D01*
X003522Y003955D01*
Y003980D01*
X003547Y004005D01*
X003522Y004031D01*
Y004056D01*
X003547Y004081D01*
X003598D01*
X003623Y004056D01*
Y004031D01*
X003598Y004005D01*
X003623Y003980D01*
Y003955D01*
X003628Y003992D02*
Y004069D01*
X003602Y004094D01*
X003501D01*
X003475Y004069D01*
Y003992D01*
X003628D01*
X003598Y004005D02*
X003547D01*
X003628Y004145D02*
Y004196D01*
Y004170D01*
X003475D01*
X003501Y004145D01*
X003178Y003987D02*
X003152Y003962D01*
X003178Y003987D02*
Y003835D01*
X003203D01*
X003152D01*
X003101D02*
Y003987D01*
X003051Y003937D01*
X003000Y003987D01*
Y003835D01*
X002949D02*
X002848D01*
Y003987D01*
X004320Y005420D02*
Y005573D01*
X004295Y005547D01*
X004244D02*
X004219Y005573D01*
X004168D01*
X004143Y005547D01*
Y005446D01*
X004168Y005420D01*
X004219D01*
X004244Y005446D01*
X004295Y005420D02*
X004346D01*
X004320D01*
X004353Y005500D02*
X004378Y005475D01*
X004480D01*
X004505Y005500D01*
Y005551D01*
X004480Y005577D01*
X004498Y005573D02*
X004524Y005547D01*
Y005446D01*
X004498Y005420D01*
X004447D01*
X004422Y005446D01*
Y005547D01*
X004447Y005573D01*
X004498D01*
X004378Y005577D02*
X004353Y005551D01*
Y005500D01*
Y005627D02*
Y005729D01*
X004378D01*
X004480Y005627D01*
X004505D01*
X004188Y006109D02*
X004163D01*
Y006261D01*
X004138Y006236D01*
X004087D02*
Y006261D01*
Y006236D02*
X004036Y006185D01*
Y006109D01*
Y006185D02*
X003985Y006236D01*
Y006261D01*
X003942Y006055D02*
X003917Y006029D01*
X003942Y006055D02*
Y005903D01*
X003968D01*
X003917D01*
X003815D02*
Y006055D01*
X003866D01*
X003765D01*
X003714D02*
Y005903D01*
X003612Y006055D01*
Y005903D01*
X003562D02*
Y005979D01*
X003460D01*
Y006004D02*
X003511Y006055D01*
X003562Y006004D01*
Y005903D01*
X003808Y005714D02*
Y005612D01*
X003884D01*
X003858Y005663D01*
Y005689D01*
X003884Y005714D01*
X003935D01*
X003960Y005689D01*
Y005638D01*
X003935Y005612D01*
Y005562D02*
X003960Y005536D01*
Y005485D01*
X003935Y005460D01*
X003833D01*
X003808Y005485D01*
Y005536D01*
X003833Y005562D01*
X003460Y005903D02*
Y006004D01*
X003185Y006116D02*
X003160Y006142D01*
X003109D01*
X003084Y006116D01*
X003185D02*
Y006091D01*
X003084Y005989D01*
X003185D01*
X003145Y006208D02*
X003246Y006309D01*
Y006334D01*
X003221Y006360D01*
X003170D01*
X003145Y006334D01*
X003094D02*
Y006284D01*
X003069Y006258D01*
X002992D01*
Y006208D02*
Y006360D01*
X003069D01*
X003094Y006334D01*
Y006208D02*
X003043Y006258D01*
X003033Y006142D02*
Y006116D01*
X002982Y006065D01*
Y005989D01*
Y006065D02*
X002931Y006116D01*
Y006142D01*
X003145Y006208D02*
X003246D01*
X003367Y006512D02*
X003469D01*
X003520D02*
X003571D01*
X003545D01*
Y006665D01*
X003520Y006639D01*
X003469Y006665D02*
X003367D01*
Y006512D01*
Y006589D02*
X003418D01*
X002924Y006917D02*
Y006942D01*
X002899Y006967D01*
X002848D01*
X002822Y006942D01*
X002924Y006917D02*
X002822Y006815D01*
X002924D01*
X002772Y006891D02*
X002746Y006866D01*
X002670D01*
Y006967D02*
X002746D01*
X002772Y006942D01*
Y006891D01*
X002670Y006967D02*
Y006815D01*
X004138Y006109D02*
X004188D01*
D37*
X002831Y003439D02*
G03*
X002831Y003439I-000012J000000D01*
G01*
X004223Y003230D02*
G03*
X004223Y003230I-000012J000000D01*
G01*
D38*
X003261Y001020D02*
Y002573D01*
X003413Y002910D02*
X003578D01*
X003693D02*
X004029D01*
X004144D02*
X004308D01*
X004461Y002573D02*
Y001020D01*
X003261D01*
X003239Y003138D02*
Y003392D01*
X003049D01*
Y003138D02*
X003239D01*
X003373Y003343D02*
X003627D01*
Y003533D01*
Y003749D02*
Y003940D01*
X003373D01*
Y003749D01*
X003383Y003749D02*
Y004074D01*
X002713D01*
Y003749D01*
X003383D01*
X003373Y003533D02*
Y003343D01*
X002833Y003392D02*
X002642D01*
Y003138D01*
X002833D01*
X002921Y004496D02*
Y006782D01*
X002667D01*
Y004496D01*
X002921D01*
X002915Y004764D02*
X003385D01*
Y005904D01*
X002915D01*
Y004764D01*
X004113Y006137D02*
X003913D01*
X004193Y006452D02*
G03*
X004193Y006452I-000180J000000D01*
G01*
X004328Y006352D02*
Y006552D01*
X004113Y006767D02*
X003913D01*
X003698Y006552D02*
Y006352D01*
M02*
