%FSAX42Y42*%
%MOMM*%
G71*
G01*
G75*
G04 Layer_Physical_Order=2*
G04 Layer_Color=16711680*
%ADD10R,0.50X2.10*%
%ADD11P,1.65X8X292.5*%
%ADD12R,1.52X1.52*%
%ADD13P,1.65X8X202.5*%
%ADD14R,1.52X1.52*%
%ADD15R,1.70X1.25*%
%ADD16R,1.05X2.15*%
%ADD17R,1.05X2.15*%
%ADD18R,3.40X2.15*%
%ADD19R,1.00X1.10*%
%ADD20R,1.10X1.00*%
%ADD21R,0.87X0.87*%
%ADD22C,0.25*%
%ADD23C,1.50*%
%ADD24C,1.65*%
%ADD25C,3.00*%
%ADD26P,1.52X8X112.5*%
%ADD27C,1.40*%
%ADD28C,1.52*%
%ADD29R,1.50X1.50*%
%ADD30C,2.50*%
%ADD31C,1.27*%
%ADD32R,0.80X0.35*%
%ADD33O,0.40X2.10*%
%ADD34O,0.28X0.80*%
%ADD35O,0.80X0.28*%
%ADD36R,7.65X7.65*%
G36*
X002700Y004712D02*
X002704Y004709D01*
X002706Y004697D01*
X002694Y004681D01*
X002682Y004653D01*
X002680Y004638D01*
X002794D01*
Y004608D01*
X002680D01*
X002682Y004593D01*
X002694Y004565D01*
X002712Y004541D01*
X002714Y004529D01*
X002714D01*
X002714Y004529D01*
X002697Y004507D01*
X002687Y004482D01*
X002683Y004455D01*
X002687Y004428D01*
X002697Y004403D01*
X002714Y004381D01*
X002735Y004365D01*
X002760Y004354D01*
X002761Y004354D01*
X002768Y004344D01*
X002768Y004342D01*
Y004172D01*
X002772Y004148D01*
X002785Y004128D01*
X002805Y004115D01*
X002829Y004110D01*
X002852Y004115D01*
X002861Y004121D01*
X002870Y004115D01*
X002894Y004110D01*
X002917Y004115D01*
X002926Y004121D01*
X002935Y004115D01*
X002959Y004110D01*
X002960Y004111D01*
X002970Y004103D01*
Y004074D01*
X002950Y004059D01*
X002933Y004037D01*
X002923Y004012D01*
X002919Y003985D01*
X002923Y003958D01*
X002933Y003933D01*
X002950Y003911D01*
X002972Y003895D01*
X002997Y003884D01*
X003024Y003881D01*
X003051Y003884D01*
X003076Y003895D01*
X003098Y003911D01*
X003114Y003933D01*
X003125Y003958D01*
X003128Y003985D01*
X003125Y004012D01*
X003114Y004037D01*
X003098Y004059D01*
X003077Y004074D01*
Y004103D01*
X003087Y004111D01*
X003089Y004110D01*
X003112Y004115D01*
X003121Y004121D01*
X003130Y004115D01*
X003154Y004110D01*
X003177Y004115D01*
X003186Y004121D01*
X003195Y004115D01*
X003204Y004113D01*
Y004138D01*
X003210Y004148D01*
X003215Y004172D01*
Y004257D01*
Y004342D01*
X003210Y004365D01*
X003204Y004375D01*
Y004400D01*
X003219Y004403D01*
X003213Y004413D01*
X003237Y004436D01*
X003490D01*
X003511Y004440D01*
X003528Y004452D01*
X003528Y004452D01*
X003528Y004452D01*
X003620Y004545D01*
X003620Y004545D01*
X003620Y004545D01*
X003632Y004562D01*
X003636Y004583D01*
Y004644D01*
X003648Y004649D01*
X003666Y004630D01*
X003663Y004605D01*
X003667Y004578D01*
X003677Y004553D01*
X003694Y004531D01*
X003714Y004516D01*
Y004485D01*
X003714Y004485D01*
X003714D01*
X003718Y004464D01*
X003730Y004447D01*
X003912Y004265D01*
X003929Y004253D01*
X003950Y004249D01*
X004076D01*
Y004206D01*
Y004146D01*
X004166D01*
Y004131D01*
X004181D01*
Y004036D01*
X004303D01*
Y004131D01*
X004333D01*
Y004036D01*
X004399D01*
Y003213D01*
X004399Y003212D01*
X004399D01*
X004403Y003192D01*
X004415Y003175D01*
X004432Y003163D01*
X004453Y003159D01*
X004509D01*
Y003041D01*
X004497Y003036D01*
X004493Y003040D01*
X004463Y003052D01*
X004431Y003056D01*
X004399Y003052D01*
X004369Y003040D01*
X004343Y003020D01*
X004324Y002994D01*
X004311Y002964D01*
X004307Y002933D01*
X004311Y002901D01*
X004314Y002894D01*
X004311Y002887D01*
X004307Y002855D01*
X004311Y002823D01*
X004315Y002814D01*
X004311Y002804D01*
X004307Y002773D01*
X004311Y002741D01*
X004315Y002733D01*
X004311Y002724D01*
X004307Y002693D01*
X004311Y002661D01*
X004324Y002631D01*
X004343Y002605D01*
X004359Y002593D01*
X004355Y002581D01*
X003367D01*
X003363Y002593D01*
X003378Y002605D01*
X003398Y002631D01*
X003410Y002661D01*
X003414Y002693D01*
X003410Y002724D01*
X003407Y002733D01*
X003410Y002741D01*
X003414Y002773D01*
X003410Y002804D01*
X003406Y002814D01*
X003410Y002823D01*
X003414Y002855D01*
X003410Y002887D01*
X003407Y002894D01*
X003410Y002901D01*
X003414Y002933D01*
X003410Y002964D01*
X003398Y002994D01*
X003378Y003020D01*
X003353Y003040D01*
X003323Y003052D01*
X003291Y003056D01*
X003259Y003052D01*
X003229Y003040D01*
X003203Y003020D01*
X003184Y002994D01*
X003171Y002964D01*
X003167Y002933D01*
X003171Y002901D01*
X003174Y002894D01*
X003171Y002887D01*
X003167Y002855D01*
X003171Y002823D01*
X003175Y002814D01*
X003171Y002804D01*
X003167Y002773D01*
X003171Y002741D01*
X003175Y002733D01*
X003171Y002724D01*
X003167Y002693D01*
X003171Y002661D01*
X003184Y002631D01*
X003203Y002605D01*
X003219Y002593D01*
X003215Y002581D01*
X002691D01*
Y003728D01*
X002687Y003748D01*
X002675Y003765D01*
X002658Y003777D01*
X002638Y003781D01*
X002581D01*
Y004812D01*
X002587Y004816D01*
X002593Y004819D01*
X002700Y004712D01*
D02*
G37*
G36*
X003349Y006893D02*
X003353Y006872D01*
X003365Y006855D01*
X003382Y006843D01*
X003382Y006843D01*
X003382D01*
X003390Y006837D01*
X003379Y006812D01*
X003376Y006785D01*
X003379Y006758D01*
X003390Y006733D01*
X003397Y006724D01*
X003391Y006712D01*
X003240D01*
Y006597D01*
Y006597D01*
X003320D01*
Y006582D01*
X003240D01*
Y006532D01*
Y006467D01*
X003263D01*
Y006289D01*
Y006205D01*
X003254Y006201D01*
X003244Y006208D01*
Y006259D01*
X003240Y006279D01*
X003228Y006297D01*
X002909Y006616D01*
Y006770D01*
X002679D01*
Y006540D01*
X002833D01*
X002867Y006505D01*
X002859Y006496D01*
X002852Y006501D01*
X002824Y006513D01*
X002794Y006517D01*
X002764Y006513D01*
X002736Y006501D01*
X002712Y006483D01*
X002694Y006459D01*
X002682Y006431D01*
X002678Y006401D01*
X002682Y006371D01*
X002694Y006343D01*
X002712Y006319D01*
X002736Y006300D01*
X002764Y006289D01*
X002794Y006285D01*
X002824Y006289D01*
X002852Y006300D01*
X002876Y006319D01*
X002883Y006328D01*
X002896Y006328D01*
X003012Y006212D01*
X003007Y006201D01*
X002896D01*
X002894Y006205D01*
X002876Y006229D01*
X002852Y006247D01*
X002824Y006259D01*
X002794Y006263D01*
X002764Y006259D01*
X002736Y006247D01*
X002712Y006229D01*
X002694Y006205D01*
X002682Y006177D01*
X002678Y006147D01*
X002682Y006117D01*
X002694Y006089D01*
X002712Y006065D01*
X002736Y006046D01*
X002764Y006035D01*
X002794Y006031D01*
X002824Y006035D01*
X002852Y006046D01*
X002876Y006065D01*
X002894Y006089D01*
X002896Y006093D01*
X003058D01*
X003106Y006045D01*
X003101Y006034D01*
X003029D01*
Y005944D01*
X003014D01*
Y005929D01*
X002919D01*
Y005923D01*
X002906Y005922D01*
X002906Y005923D01*
X002894Y005951D01*
X002876Y005975D01*
X002852Y005993D01*
X002824Y006005D01*
X002794Y006009D01*
X002764Y006005D01*
X002736Y005993D01*
X002712Y005975D01*
X002694Y005951D01*
X002682Y005923D01*
X002678Y005893D01*
X002682Y005863D01*
X002694Y005835D01*
X002694Y005835D01*
X002593Y005734D01*
X002587Y005737D01*
X002581Y005740D01*
Y006949D01*
X003349D01*
Y006893D01*
D02*
G37*
G36*
X004399Y006815D02*
X004387Y006811D01*
X004380Y006819D01*
X004355Y006839D01*
X004327Y006855D01*
X004296Y006864D01*
X004278Y006866D01*
Y006702D01*
Y006537D01*
X004296Y006539D01*
X004327Y006548D01*
X004355Y006564D01*
X004380Y006584D01*
X004387Y006592D01*
X004399Y006588D01*
Y006315D01*
X004387Y006311D01*
X004380Y006319D01*
X004355Y006339D01*
X004327Y006355D01*
X004296Y006364D01*
X004278Y006366D01*
Y006202D01*
X004263D01*
Y006187D01*
X004102D01*
X004100Y006190D01*
X004098Y006192D01*
X004097Y006202D01*
X004098Y006212D01*
X004086Y006208D01*
X004084Y006211D01*
X004062Y006228D01*
X004037Y006238D01*
X004010Y006242D01*
X003983Y006238D01*
X003958Y006228D01*
X003939Y006213D01*
X003927Y006219D01*
X003926Y006234D01*
X003916Y006265D01*
X003901Y006294D01*
X003880Y006319D01*
X003855Y006339D01*
X003827Y006355D01*
X003796Y006364D01*
X003778Y006366D01*
Y006202D01*
X003748D01*
Y006366D01*
X003731Y006364D01*
X003700Y006355D01*
X003671Y006339D01*
X003646Y006319D01*
X003625Y006294D01*
X003610Y006265D01*
X003608Y006258D01*
X003595Y006259D01*
Y006289D01*
Y006479D01*
X003560D01*
Y006532D01*
Y006562D01*
X003572Y006567D01*
X003725Y006414D01*
D01*
X003725D01*
X003725Y006414D01*
X003725Y006414D01*
X003725D01*
D01*
X003725D01*
X003725Y006414D01*
Y006414D01*
X003725Y006414D01*
Y006414D01*
X003743Y006402D01*
X003763Y006398D01*
X003857D01*
X003860Y006388D01*
X003875Y006359D01*
X003896Y006334D01*
X003921Y006314D01*
X003950Y006298D01*
X003981Y006289D01*
X004013Y006286D01*
X004046Y006289D01*
X004077Y006298D01*
X004105Y006314D01*
X004130Y006334D01*
X004151Y006359D01*
X004166Y006388D01*
X004176Y006419D01*
X004179Y006452D01*
X004176Y006484D01*
X004166Y006515D01*
X004151Y006544D01*
X004130Y006569D01*
X004105Y006589D01*
X004077Y006605D01*
X004046Y006614D01*
X004013Y006617D01*
X003981Y006614D01*
X003950Y006605D01*
X003921Y006589D01*
X003896Y006569D01*
X003875Y006544D01*
X003860Y006515D01*
X003857Y006505D01*
X003786D01*
X003761Y006530D01*
X003763Y006536D01*
X003754Y006537D01*
X003748Y006543D01*
Y006702D01*
X003763D01*
Y006717D01*
X003928D01*
X003926Y006734D01*
X003916Y006765D01*
X003901Y006794D01*
X003880Y006819D01*
X003855Y006839D01*
X003827Y006855D01*
X003823Y006865D01*
X003827Y006872D01*
X003831Y006892D01*
X003831Y006893D01*
X003831Y006893D01*
Y006893D01*
Y006949D01*
X004399D01*
Y006815D01*
D02*
G37*
%LPC*%
G36*
X002894Y003713D02*
X002870Y003708D01*
X002861Y003702D01*
X002852Y003708D01*
X002829Y003713D01*
X002805Y003708D01*
X002785Y003695D01*
X002772Y003675D01*
X002768Y003652D01*
Y003482D01*
X002772Y003458D01*
X002785Y003438D01*
X002805Y003425D01*
X002829Y003420D01*
X002852Y003425D01*
X002861Y003431D01*
X002870Y003425D01*
X002894Y003420D01*
X002917Y003425D01*
X002926Y003431D01*
X002935Y003425D01*
X002944Y003423D01*
Y003448D01*
X002950Y003458D01*
X002955Y003482D01*
Y003567D01*
Y003652D01*
X002950Y003675D01*
X002944Y003685D01*
Y003710D01*
X002935Y003708D01*
X002926Y003702D01*
X002917Y003708D01*
X002894Y003713D01*
D02*
G37*
G36*
X003219D02*
X003195Y003708D01*
X003186Y003702D01*
X003177Y003708D01*
X003154Y003713D01*
X003130Y003708D01*
X003121Y003702D01*
X003112Y003708D01*
X003089Y003713D01*
X003065Y003708D01*
X003056Y003702D01*
X003047Y003708D01*
X003039Y003710D01*
Y003685D01*
X003032Y003675D01*
X003028Y003652D01*
Y003567D01*
Y003482D01*
X003032Y003458D01*
X003039Y003448D01*
Y003423D01*
X003047Y003425D01*
X003056Y003431D01*
X003065Y003425D01*
X003089Y003420D01*
X003112Y003425D01*
X003121Y003431D01*
X003130Y003425D01*
X003154Y003420D01*
X003177Y003425D01*
X003186Y003431D01*
X003195Y003425D01*
X003219Y003420D01*
X003242Y003425D01*
X003251Y003431D01*
X003260Y003425D01*
X003269Y003423D01*
Y003448D01*
X003275Y003458D01*
X003280Y003482D01*
Y003567D01*
Y003652D01*
X003275Y003675D01*
X003269Y003685D01*
Y003710D01*
X003260Y003708D01*
X003251Y003702D01*
X003242Y003708D01*
X003219Y003713D01*
D02*
G37*
G36*
X003009Y003710D02*
X003000Y003708D01*
X002991Y003702D01*
X002982Y003708D01*
X002974Y003710D01*
Y003567D01*
Y003423D01*
X002982Y003425D01*
X002991Y003431D01*
X003000Y003425D01*
X003009Y003423D01*
Y003567D01*
Y003710D01*
D02*
G37*
G36*
X003636Y002926D02*
X003606Y002922D01*
X003578Y002910D01*
X003554Y002892D01*
X003535Y002868D01*
X003524Y002840D01*
X003520Y002810D01*
X003524Y002780D01*
X003535Y002752D01*
X003554Y002728D01*
X003578Y002710D01*
X003606Y002698D01*
X003636Y002694D01*
X003666Y002698D01*
X003694Y002710D01*
X003718Y002728D01*
X003736Y002752D01*
X003748Y002780D01*
X003752Y002810D01*
X003748Y002840D01*
X003736Y002868D01*
X003718Y002892D01*
X003694Y002910D01*
X003666Y002922D01*
X003636Y002926D01*
D02*
G37*
G36*
X004086D02*
X004056Y002922D01*
X004028Y002910D01*
X004004Y002892D01*
X003985Y002868D01*
X003974Y002840D01*
X003970Y002810D01*
X003974Y002780D01*
X003985Y002752D01*
X004004Y002728D01*
X004028Y002710D01*
X004056Y002698D01*
X004086Y002694D01*
X004116Y002698D01*
X004144Y002710D01*
X004168Y002728D01*
X004186Y002752D01*
X004198Y002780D01*
X004202Y002810D01*
X004198Y002840D01*
X004186Y002868D01*
X004168Y002892D01*
X004144Y002910D01*
X004116Y002922D01*
X004086Y002926D01*
D02*
G37*
G36*
X003740Y003821D02*
X003388D01*
X003367Y003817D01*
X003350Y003805D01*
X003311Y003767D01*
X003299Y003749D01*
X003295Y003729D01*
Y003721D01*
X003285Y003712D01*
X003295Y003711D01*
Y003679D01*
X003292Y003675D01*
X003288Y003652D01*
Y003567D01*
Y003482D01*
X003292Y003458D01*
X003299Y003448D01*
Y003423D01*
X003307Y003425D01*
X003316Y003431D01*
X003325Y003425D01*
X003349Y003420D01*
X003372Y003425D01*
X003381Y003431D01*
X003390Y003425D01*
X003414Y003420D01*
X003437Y003425D01*
X003446Y003431D01*
X003455Y003425D01*
X003464Y003423D01*
Y003448D01*
X003470Y003458D01*
X003475Y003482D01*
Y003567D01*
X003483D01*
Y003482D01*
X003487Y003458D01*
X003494Y003448D01*
Y003423D01*
X003502Y003425D01*
X003511Y003431D01*
X003520Y003425D01*
X003544Y003420D01*
X003545Y003421D01*
X003555Y003413D01*
Y003351D01*
X003555Y003350D01*
X003555Y003349D01*
X003557Y003342D01*
X003552Y003330D01*
X003548Y003303D01*
X003552Y003275D01*
X003562Y003250D01*
X003579Y003229D01*
X003600Y003212D01*
X003625Y003202D01*
X003653Y003198D01*
X003680Y003202D01*
X003705Y003212D01*
X003726Y003229D01*
X003743Y003250D01*
X003748Y003262D01*
X003760D01*
X003767Y003245D01*
X003784Y003224D01*
X003805Y003207D01*
X003830Y003197D01*
X003858Y003193D01*
X003885Y003197D01*
X003910Y003207D01*
X003931Y003224D01*
X003948Y003245D01*
X003958Y003270D01*
X003962Y003297D01*
X003958Y003325D01*
X003948Y003350D01*
X003931Y003371D01*
X003910Y003388D01*
X003885Y003398D01*
X003858Y003402D01*
X003830Y003398D01*
X003805Y003388D01*
X003803Y003386D01*
X003730Y003459D01*
X003735Y003482D01*
Y003652D01*
X003730Y003675D01*
X003717Y003695D01*
X003697Y003708D01*
X003675Y003713D01*
Y003713D01*
X003675Y003713D01*
X003674Y003713D01*
Y003714D01*
X003674Y003714D01*
X003718D01*
X004042Y003390D01*
X004041Y003377D01*
X004035Y003373D01*
X004019Y003351D01*
X004008Y003326D01*
X004005Y003299D01*
X004008Y003272D01*
X004019Y003247D01*
X004035Y003225D01*
X004057Y003209D01*
X004082Y003198D01*
X004109Y003195D01*
X004136Y003198D01*
X004161Y003209D01*
X004183Y003225D01*
X004200Y003247D01*
X004210Y003272D01*
X004214Y003299D01*
X004210Y003326D01*
X004200Y003351D01*
X004183Y003373D01*
X004163Y003388D01*
Y003398D01*
X004159Y003419D01*
X004147Y003436D01*
X003778Y003805D01*
X003761Y003817D01*
X003740Y003821D01*
D02*
G37*
G36*
X003928Y006687D02*
X003778D01*
Y006537D01*
X003796Y006539D01*
X003827Y006548D01*
X003855Y006564D01*
X003880Y006584D01*
X003901Y006609D01*
X003916Y006638D01*
X003926Y006669D01*
X003928Y006687D01*
D02*
G37*
G36*
X004248D02*
X004099D01*
X004101Y006669D01*
X004110Y006638D01*
X004125Y006609D01*
X004146Y006584D01*
X004171Y006564D01*
X004200Y006548D01*
X004231Y006539D01*
X004248Y006537D01*
Y006687D01*
D02*
G37*
G36*
Y006866D02*
X004231Y006864D01*
X004200Y006855D01*
X004171Y006839D01*
X004146Y006819D01*
X004125Y006794D01*
X004110Y006765D01*
X004101Y006734D01*
X004099Y006717D01*
X004248D01*
Y006866D01*
D02*
G37*
G36*
Y006366D02*
X004231Y006364D01*
X004200Y006355D01*
X004171Y006339D01*
X004146Y006319D01*
X004125Y006294D01*
X004110Y006265D01*
X004101Y006234D01*
X004099Y006217D01*
X004248D01*
Y006366D01*
D02*
G37*
G36*
X004151Y004116D02*
X004076D01*
Y004071D01*
X004065Y004063D01*
X004060Y004065D01*
X004022Y004068D01*
X003985Y004065D01*
X003949Y004054D01*
X003916Y004036D01*
X003888Y004012D01*
X003864Y003984D01*
X003846Y003951D01*
X003835Y003915D01*
X003832Y003878D01*
X003835Y003840D01*
X003846Y003804D01*
X003864Y003771D01*
X003888Y003742D01*
X003916Y003719D01*
X003949Y003701D01*
X003985Y003690D01*
X004022Y003687D01*
X004060Y003690D01*
X004096Y003701D01*
X004129Y003719D01*
X004158Y003742D01*
X004181Y003771D01*
X004199Y003804D01*
X004210Y003840D01*
X004213Y003878D01*
X004210Y003915D01*
X004199Y003951D01*
X004181Y003984D01*
X004158Y004012D01*
X004129Y004036D01*
X004129Y004036D01*
X004151D01*
Y004116D01*
D02*
G37*
G36*
X003674Y004403D02*
X003650Y004398D01*
X003641Y004392D01*
X003632Y004398D01*
X003609Y004403D01*
X003585Y004398D01*
X003576Y004392D01*
X003567Y004398D01*
X003544Y004403D01*
X003520Y004398D01*
X003511Y004392D01*
X003502Y004398D01*
X003479Y004403D01*
X003455Y004398D01*
X003446Y004392D01*
X003437Y004398D01*
X003414Y004403D01*
X003390Y004398D01*
X003381Y004392D01*
X003372Y004398D01*
X003349Y004403D01*
X003325Y004398D01*
X003316Y004392D01*
X003307Y004398D01*
X003284Y004403D01*
X003260Y004398D01*
X003251Y004392D01*
X003242Y004398D01*
X003234Y004400D01*
Y004375D01*
X003227Y004365D01*
X003223Y004342D01*
Y004257D01*
Y004172D01*
X003227Y004148D01*
X003234Y004138D01*
Y004113D01*
X003242Y004115D01*
X003251Y004121D01*
X003260Y004115D01*
X003284Y004110D01*
X003307Y004115D01*
X003316Y004121D01*
X003325Y004115D01*
X003349Y004110D01*
X003372Y004115D01*
X003381Y004121D01*
X003390Y004115D01*
X003414Y004110D01*
X003437Y004115D01*
X003446Y004121D01*
X003455Y004115D01*
X003479Y004110D01*
X003502Y004115D01*
X003511Y004121D01*
X003520Y004115D01*
X003544Y004110D01*
X003567Y004115D01*
X003576Y004121D01*
X003585Y004115D01*
X003609Y004110D01*
X003632Y004115D01*
X003641Y004121D01*
X003650Y004115D01*
X003674Y004110D01*
X003697Y004115D01*
X003717Y004128D01*
X003730Y004148D01*
X003735Y004172D01*
Y004342D01*
X003730Y004365D01*
X003717Y004385D01*
X003697Y004398D01*
X003674Y004403D01*
D02*
G37*
G36*
X002999Y006034D02*
X002919D01*
Y005959D01*
X002999D01*
Y006034D01*
D02*
G37*
%LPD*%
D19*
X004166Y004131D02*
D03*
Y004301D02*
D03*
X004318D02*
D03*
Y004131D02*
D03*
X003300Y004639D02*
D03*
X003138Y004640D02*
D03*
Y004810D02*
D03*
X003300Y004809D02*
D03*
X002997Y005046D02*
D03*
X002976Y004810D02*
D03*
Y004640D02*
D03*
X002997Y005216D02*
D03*
Y005401D02*
D03*
Y005571D02*
D03*
X003353Y006214D02*
D03*
X003505D02*
D03*
Y006384D02*
D03*
X003353D02*
D03*
D20*
X003184Y005791D02*
D03*
Y005944D02*
D03*
X003014D02*
D03*
Y005791D02*
D03*
D22*
X003409Y003302D02*
X003479Y003371D01*
Y003567D01*
X003349D02*
Y003729D01*
X003388Y003767D01*
X003740D01*
X004109Y003398D01*
Y003299D01*
X003814D02*
X003674Y003440D01*
Y003567D01*
X003609D02*
Y003351D01*
X003633Y003297D01*
X003409Y003302D02*
X003284Y003427D01*
Y003567D01*
Y003910D01*
X003349Y003975D01*
X003785D01*
X003941Y004131D01*
X003975D02*
X004166D01*
X004318D01*
Y004301D02*
X004166D01*
X004164Y004303D02*
X003950D01*
X003767Y004485D01*
Y004605D01*
X003683Y004690D01*
Y004835D01*
X003633D02*
Y005060D01*
Y004835D02*
Y004553D01*
X003522Y004442D01*
X003260D01*
X003219Y004401D01*
Y004257D01*
Y004105D01*
X003349Y003975D01*
X003219D01*
X003215D02*
X003024Y003784D01*
Y003567D01*
X002959D01*
X003024Y003949D02*
Y003985D01*
Y004257D01*
Y004389D01*
X003170Y004535D01*
X003235D01*
X003295Y004595D01*
Y004639D01*
X003300Y004810D02*
X003181D01*
X003029D01*
X002920D01*
X002860Y004750D01*
X002738D01*
X002630Y004858D01*
Y005695D01*
X002794Y005859D01*
Y005893D01*
X002954Y005944D02*
X003014D01*
Y005791D01*
Y005571D01*
X002976D01*
X002905Y005500D01*
Y005312D01*
X003002Y005216D01*
X002997Y005039D02*
X003094D01*
X003310Y005255D01*
X003315Y005260D02*
X003408D01*
Y005310D02*
X003108D01*
X003004Y005414D01*
X003184Y005594D01*
X003262Y005672D02*
Y005538D01*
X003340Y005460D01*
X003408D01*
Y005510D02*
X003633D01*
X003783Y005360D02*
Y005735D01*
X003733D02*
Y005846D01*
X003590Y005988D01*
X003493D01*
X003357Y006125D01*
X003319D01*
X003317Y006122D01*
X003253D01*
X003190Y006185D01*
Y006259D01*
X002794Y006655D01*
Y006401D02*
X002899D01*
X003223Y006077D01*
X003340D01*
X003475Y005943D01*
X003571D01*
X003683Y005832D01*
Y005735D01*
X003633D02*
Y005817D01*
X003553Y005897D01*
X003455D01*
X003321Y006032D01*
X003196D01*
X003081Y006147D01*
X002794D01*
X002877Y006020D02*
X002954Y005944D01*
X002877Y006020D02*
X002690D01*
X002625Y006085D01*
Y006788D01*
X002715Y006878D01*
X002920D01*
X003208Y006590D01*
X003208Y006590D01*
X003208Y006590D02*
X003555D01*
X003763Y006382D01*
Y006202D01*
X003809Y006247D01*
X004263D01*
Y006702D01*
X003763D01*
X003560Y006655D02*
X003763Y006452D01*
X004013D01*
X004010Y006138D02*
X003888Y006015D01*
Y005940D01*
X004032Y005795D01*
Y005735D01*
X003982D02*
X003932D01*
Y005360D01*
X003982Y005410D02*
Y005735D01*
X003882D02*
Y005824D01*
X003628Y006079D01*
X003536D01*
X003495Y006120D01*
Y006174D01*
X003360Y006186D02*
X003512Y006034D01*
X003609D01*
X003833Y005810D01*
Y005735D01*
X004082Y005510D02*
X004307D01*
Y005460D02*
X004412D01*
X004415Y005357D02*
X004465Y005306D01*
Y004533D01*
X004276Y004343D01*
X004318Y004301D01*
X004322Y004525D02*
Y004578D01*
X004248D01*
X004032Y004793D01*
Y004835D01*
X003982D02*
Y004778D01*
X004155Y004605D01*
Y004460D01*
X004067Y004515D02*
Y004625D01*
X003932Y004760D01*
Y004835D01*
X003882D02*
Y004658D01*
X003938Y004603D01*
X003972Y004455D02*
X004008D01*
X004067Y004515D01*
X004410Y004700D02*
X004465Y004645D01*
X004410Y004700D02*
X004265D01*
X004183Y004783D01*
Y004835D01*
X004132D02*
Y005010D01*
X004307Y005310D02*
X003882D01*
X004287Y005360D02*
X004343D01*
X004346Y005357D01*
X004415D01*
X004373Y005608D02*
X004430Y005665D01*
Y005764D01*
X004360Y005834D01*
Y005893D01*
X004321D01*
X004380Y005747D02*
X004308Y005820D01*
X004240D01*
X004114Y005946D01*
X004046D01*
X004287Y005658D02*
X004348D01*
X004380Y005690D01*
Y005747D01*
X004373Y005608D02*
X004287D01*
X004308Y005460D02*
Y005410D01*
X003783Y005360D02*
X003408D01*
Y005410D02*
X003250D01*
X003353Y005160D02*
X003408D01*
Y005210D02*
X003783D01*
X003583Y004835D02*
Y004583D01*
X003490Y004490D01*
X003215D01*
X003091Y004366D01*
Y004259D01*
X003089Y004257D01*
X002959Y004399D02*
X003136Y004576D01*
Y004594D01*
X003460Y004680D02*
X003532Y004752D01*
Y004835D01*
X003322Y004970D02*
Y005022D01*
Y005130D01*
X003353Y005160D01*
X003322Y005061D02*
Y005022D01*
Y004970D02*
X003270Y004917D01*
X002835D01*
X002794Y004877D01*
X002977Y004588D02*
Y004515D01*
X002894Y004431D01*
Y004257D01*
X002959D02*
Y004399D01*
X002829Y004471D02*
Y004257D01*
X003350Y005560D02*
X003408D01*
X003378D01*
X003350D02*
X003314Y005596D01*
Y005864D01*
X003235Y005944D01*
X003184Y005791D02*
Y005751D01*
X003262Y005672D01*
X003324Y006186D02*
X003360D01*
X003353Y006384D02*
Y006492D01*
X003320Y006525D01*
X003480D02*
Y006409D01*
X003560Y006655D02*
X003505D01*
X003480Y006655D02*
Y006785D01*
D23*
X003636Y002810D02*
D03*
X004086D02*
D03*
X002794Y004623D02*
D03*
Y004877D02*
D03*
Y005131D02*
D03*
Y005385D02*
D03*
Y005639D02*
D03*
Y005893D02*
D03*
Y006147D02*
D03*
Y006401D02*
D03*
D24*
X003291Y002693D02*
D03*
Y002773D02*
D03*
Y002855D02*
D03*
Y002933D02*
D03*
X004431Y002773D02*
D03*
Y002693D02*
D03*
Y002855D02*
D03*
Y002933D02*
D03*
D25*
X004022Y003878D02*
D03*
D26*
X003150Y005090D02*
D03*
D27*
X003150Y005578D02*
D03*
D28*
X004318Y005944D02*
D03*
X004046Y005946D02*
D03*
D29*
X002794Y006655D02*
D03*
D30*
X004263Y006202D02*
D03*
X004013Y006452D02*
D03*
X004263Y006702D02*
D03*
X003763D02*
D03*
Y006202D02*
D03*
D31*
X003409Y003302D02*
D03*
X003653Y003303D02*
D03*
X003858Y003297D02*
D03*
X004109Y003299D02*
D03*
X003975Y004162D02*
D03*
X004155Y004460D02*
D03*
X004322Y004578D02*
D03*
X003938Y004603D02*
D03*
X003972Y004455D02*
D03*
X003767Y004605D02*
D03*
X003460Y004680D02*
D03*
X003024Y003985D02*
D03*
X002788Y004455D02*
D03*
X003240Y005420D02*
D03*
X004010Y006138D02*
D03*
X003480Y006785D02*
D03*
X004453Y005500D02*
D03*
D32*
X003320Y006525D02*
D03*
Y006590D02*
D03*
X003480D02*
D03*
Y006525D02*
D03*
Y006655D02*
D03*
X003320D02*
D03*
D33*
X003609Y003567D02*
D03*
X003674D02*
D03*
X003544D02*
D03*
X003479D02*
D03*
X003414D02*
D03*
X003349D02*
D03*
X003284D02*
D03*
X003219D02*
D03*
X003154D02*
D03*
X003089D02*
D03*
X003024D02*
D03*
X002959D02*
D03*
X002894D02*
D03*
X002829D02*
D03*
X003349Y004257D02*
D03*
X003414D02*
D03*
X003479D02*
D03*
X003544D02*
D03*
X003609D02*
D03*
X003674D02*
D03*
X003284D02*
D03*
X003219D02*
D03*
X003154D02*
D03*
X003089D02*
D03*
X003024D02*
D03*
X002959D02*
D03*
X002894D02*
D03*
X002829D02*
D03*
D34*
X004082Y004835D02*
D03*
X004132D02*
D03*
X004183D02*
D03*
X004232D02*
D03*
X004032D02*
D03*
X003982D02*
D03*
X003932D02*
D03*
X003882D02*
D03*
X003833D02*
D03*
X003783D02*
D03*
X003733D02*
D03*
X003683D02*
D03*
X003633D02*
D03*
X003583D02*
D03*
X003532D02*
D03*
X003483D02*
D03*
X004082Y005735D02*
D03*
X004132D02*
D03*
X004183D02*
D03*
X004232D02*
D03*
X004032D02*
D03*
X003982D02*
D03*
X003932D02*
D03*
X003882D02*
D03*
X003833D02*
D03*
X003783D02*
D03*
X003733D02*
D03*
X003683D02*
D03*
X003633D02*
D03*
X003583D02*
D03*
X003532D02*
D03*
X003483D02*
D03*
D35*
X004307Y004910D02*
D03*
Y004960D02*
D03*
Y005010D02*
D03*
Y005060D02*
D03*
Y005110D02*
D03*
Y005160D02*
D03*
Y005210D02*
D03*
Y005260D02*
D03*
Y005310D02*
D03*
Y005360D02*
D03*
X004308Y005410D02*
D03*
X004307Y005460D02*
D03*
Y005510D02*
D03*
Y005560D02*
D03*
Y005610D02*
D03*
X004308Y005660D02*
D03*
X003408Y005660D02*
D03*
Y005610D02*
D03*
Y005560D02*
D03*
Y005510D02*
D03*
Y005460D02*
D03*
Y005410D02*
D03*
Y005360D02*
D03*
Y005310D02*
D03*
Y005260D02*
D03*
Y005210D02*
D03*
Y005160D02*
D03*
Y005110D02*
D03*
Y005060D02*
D03*
Y005010D02*
D03*
Y004960D02*
D03*
Y004910D02*
D03*
D36*
X003858Y005285D02*
D03*
M02*
