%FSAX42Y42*%
%MOMM*%
G71*
G01*
G75*
G04 Layer_Physical_Order=1*
G04 Layer_Color=255*
%ADD10R,0.50X2.10*%
%ADD11P,1.65X8X292.5*%
%ADD12R,1.52X1.52*%
%ADD13P,1.65X8X202.5*%
%ADD14R,1.52X1.52*%
%ADD15R,1.70X1.25*%
%ADD16R,1.05X2.15*%
%ADD17R,1.05X2.15*%
%ADD18R,3.40X2.15*%
%ADD19R,1.00X1.10*%
%ADD20R,1.10X1.00*%
%ADD21R,0.87X0.87*%
%ADD22C,0.25*%
%ADD23C,1.50*%
%ADD24C,1.65*%
%ADD25C,3.00*%
%ADD26P,1.52X8X112.5*%
%ADD27C,1.40*%
%ADD28C,1.52*%
%ADD29R,1.50X1.50*%
%ADD30C,2.50*%
%ADD31C,1.27*%
G36*
X004399Y006815D02*
X004387Y006811D01*
X004380Y006819D01*
X004355Y006839D01*
X004327Y006855D01*
X004296Y006864D01*
X004278Y006866D01*
Y006702D01*
Y006537D01*
X004296Y006539D01*
X004327Y006548D01*
X004355Y006564D01*
X004380Y006584D01*
X004387Y006592D01*
X004399Y006588D01*
Y006315D01*
X004387Y006311D01*
X004380Y006319D01*
X004355Y006339D01*
X004327Y006355D01*
X004296Y006364D01*
X004278Y006366D01*
Y006202D01*
X004263D01*
Y006187D01*
X004102D01*
X004100Y006190D01*
X004098Y006192D01*
X004097Y006202D01*
X004098Y006212D01*
X004086Y006208D01*
X004084Y006211D01*
X004062Y006228D01*
X004037Y006238D01*
X004010Y006242D01*
X003983Y006238D01*
X003958Y006228D01*
X003939Y006213D01*
X003927Y006219D01*
X003926Y006234D01*
X003916Y006265D01*
X003901Y006294D01*
X003880Y006319D01*
X003855Y006339D01*
X003827Y006355D01*
X003796Y006364D01*
X003778Y006366D01*
Y006202D01*
Y006037D01*
X003796Y006039D01*
X003827Y006048D01*
X003828Y006049D01*
X003835Y006039D01*
X003743Y005947D01*
X002896D01*
X002894Y005951D01*
X002876Y005975D01*
X002852Y005993D01*
X002824Y006005D01*
X002794Y006009D01*
X002764Y006005D01*
X002736Y005993D01*
X002712Y005975D01*
X002694Y005951D01*
X002682Y005923D01*
X002678Y005893D01*
X002682Y005863D01*
X002694Y005835D01*
X002712Y005811D01*
X002736Y005792D01*
X002764Y005781D01*
X002794Y005777D01*
X002824Y005781D01*
X002852Y005792D01*
X002876Y005811D01*
X002894Y005835D01*
X002896Y005839D01*
X003765D01*
X003786Y005843D01*
X003803Y005855D01*
X003919Y005971D01*
X003931Y005965D01*
X003928Y005946D01*
X003932Y005916D01*
X003944Y005887D01*
X003963Y005863D01*
X003987Y005845D01*
X004010Y005835D01*
Y005768D01*
X003974D01*
Y005578D01*
Y005518D01*
X004154D01*
Y005578D01*
Y005768D01*
X004118D01*
Y005855D01*
X004128Y005863D01*
X004147Y005887D01*
X004159Y005916D01*
X004163Y005946D01*
X004159Y005976D01*
X004147Y006005D01*
X004128Y006029D01*
X004104Y006048D01*
X004085Y006056D01*
X004084Y006064D01*
X004100Y006085D01*
X004111Y006110D01*
X004111Y006111D01*
X004123Y006113D01*
X004125Y006109D01*
X004146Y006084D01*
X004171Y006064D01*
X004200Y006048D01*
X004231Y006039D01*
X004232Y006039D01*
X004235Y006027D01*
X004235Y006026D01*
X004217Y006002D01*
X004205Y005974D01*
X004201Y005944D01*
X004205Y005913D01*
X004213Y005892D01*
Y005768D01*
X004177D01*
Y005578D01*
Y005518D01*
X004267D01*
Y005503D01*
X004282D01*
Y005408D01*
X004357D01*
Y005434D01*
X004369Y005439D01*
X004379Y005426D01*
X004394Y005414D01*
X004395Y005402D01*
X004366Y005373D01*
X004197D01*
Y005283D01*
Y005193D01*
X004447D01*
Y005302D01*
X004490Y005346D01*
X004497Y005355D01*
X004509Y005351D01*
Y004441D01*
X004453D01*
X004432Y004437D01*
X004415Y004425D01*
X004403Y004408D01*
X004399Y004388D01*
Y003212D01*
X004403Y003192D01*
X004415Y003175D01*
X004432Y003163D01*
X004453Y003159D01*
X004509D01*
Y003041D01*
X004497Y003036D01*
X004493Y003040D01*
X004463Y003052D01*
X004431Y003056D01*
X004399Y003052D01*
X004369Y003040D01*
X004343Y003020D01*
X004324Y002994D01*
X004311Y002964D01*
X004307Y002933D01*
X004311Y002901D01*
X004314Y002894D01*
X004311Y002887D01*
X004307Y002855D01*
X004311Y002823D01*
X004315Y002814D01*
X004311Y002804D01*
X004307Y002773D01*
X004311Y002741D01*
X004315Y002733D01*
X004311Y002724D01*
X004307Y002693D01*
X004311Y002661D01*
X004324Y002631D01*
X004343Y002605D01*
X004359Y002593D01*
X004355Y002581D01*
X003367D01*
X003363Y002593D01*
X003378Y002605D01*
X003398Y002631D01*
X003410Y002661D01*
X003414Y002693D01*
X003410Y002724D01*
X003407Y002733D01*
X003410Y002741D01*
X003414Y002773D01*
X003410Y002804D01*
X003406Y002814D01*
X003410Y002823D01*
X003414Y002855D01*
X003410Y002887D01*
X003407Y002894D01*
X003410Y002901D01*
X003414Y002933D01*
X003410Y002964D01*
X003398Y002994D01*
X003378Y003020D01*
X003353Y003040D01*
X003323Y003052D01*
X003291Y003056D01*
X003259Y003052D01*
X003229Y003040D01*
X003203Y003020D01*
X003184Y002994D01*
X003171Y002964D01*
X003167Y002933D01*
X003171Y002901D01*
X003174Y002894D01*
X003171Y002887D01*
X003167Y002855D01*
X003171Y002823D01*
X003175Y002814D01*
X003171Y002804D01*
X003167Y002773D01*
X003171Y002741D01*
X003175Y002733D01*
X003171Y002724D01*
X003167Y002693D01*
X003171Y002661D01*
X003184Y002631D01*
X003203Y002605D01*
X003219Y002593D01*
X003215Y002581D01*
X002691D01*
Y003148D01*
X002754D01*
Y003265D01*
Y003381D01*
X002691D01*
Y003728D01*
X002687Y003748D01*
X002675Y003765D01*
X002658Y003777D01*
X002638Y003781D01*
X002581D01*
Y004997D01*
X002593Y005002D01*
X002684Y004911D01*
X002682Y004907D01*
X002678Y004877D01*
X002682Y004847D01*
X002694Y004819D01*
X002712Y004795D01*
X002736Y004776D01*
X002764Y004765D01*
X002794Y004761D01*
X002824Y004765D01*
X002852Y004776D01*
X002876Y004795D01*
X002894Y004819D01*
X002896Y004823D01*
X003628D01*
X003714Y004738D01*
Y004694D01*
X003694Y004679D01*
X003678Y004659D01*
X003571D01*
X003563Y004668D01*
X003564Y004680D01*
X003561Y004707D01*
X003550Y004732D01*
X003534Y004754D01*
X003512Y004770D01*
X003487Y004781D01*
X003460Y004784D01*
X003433Y004781D01*
X003408Y004770D01*
X003386Y004754D01*
X003370Y004732D01*
X003359Y004707D01*
X003356Y004680D01*
X003359Y004655D01*
X003213Y004509D01*
X002877D01*
X002861Y004529D01*
Y004529D01*
X002876Y004541D01*
X002894Y004565D01*
X002906Y004593D01*
X002908Y004608D01*
X002680D01*
X002682Y004593D01*
X002694Y004565D01*
X002712Y004541D01*
X002714Y004529D01*
X002714D01*
X002714Y004529D01*
X002697Y004507D01*
X002687Y004482D01*
X002683Y004455D01*
X002687Y004428D01*
X002697Y004403D01*
X002714Y004381D01*
X002735Y004365D01*
X002760Y004354D01*
X002788Y004351D01*
X002815Y004354D01*
X002827Y004360D01*
X002838Y004352D01*
Y004074D01*
X002950D01*
X002954Y004062D01*
X002950Y004059D01*
X002933Y004037D01*
X002923Y004012D01*
X002919Y003985D01*
X002923Y003958D01*
X002933Y003933D01*
X002950Y003911D01*
X002972Y003895D01*
X002994Y003885D01*
Y003749D01*
X002956D01*
Y003454D01*
X003141D01*
Y003749D01*
X003102D01*
Y003917D01*
X003114Y003933D01*
X003125Y003958D01*
X003128Y003985D01*
X003125Y004012D01*
X003114Y004037D01*
X003102Y004053D01*
Y004074D01*
X003120D01*
X003384Y003810D01*
Y003754D01*
X003418Y003720D01*
X003413Y003709D01*
X003370D01*
Y003749D01*
X003185D01*
Y003454D01*
X003209D01*
X003214Y003442D01*
X003152Y003381D01*
X003054D01*
X002996Y003323D01*
Y003206D01*
X003054Y003148D01*
X003170D01*
X003228Y003206D01*
Y003305D01*
X003316Y003392D01*
X003328Y003410D01*
X003332Y003430D01*
Y003454D01*
X003370D01*
Y003601D01*
X003731D01*
X004008Y003324D01*
X004005Y003299D01*
X004008Y003272D01*
X004019Y003247D01*
X004035Y003225D01*
X004057Y003209D01*
X004082Y003198D01*
X004109Y003195D01*
X004134Y003198D01*
X004146Y003187D01*
Y002925D01*
X004276D01*
Y003215D01*
X004261D01*
X004260Y003218D01*
X004249Y003236D01*
X004210Y003274D01*
X004214Y003299D01*
X004210Y003326D01*
X004200Y003351D01*
X004183Y003373D01*
X004161Y003390D01*
X004136Y003400D01*
X004109Y003404D01*
X004084Y003400D01*
X003791Y003693D01*
X003774Y003705D01*
X003753Y003709D01*
X003587D01*
X003582Y003720D01*
X003616Y003754D01*
Y003871D01*
X003558Y003929D01*
D01*
X003564Y003935D01*
X003681D01*
Y003983D01*
X003737D01*
X003758Y003988D01*
X003775Y003999D01*
X003797Y004021D01*
X003809Y004039D01*
X003813Y004059D01*
Y004087D01*
X003849D01*
Y004257D01*
Y004337D01*
X003759D01*
Y004367D01*
X003849D01*
Y004443D01*
X003860Y004450D01*
X003869Y004446D01*
X003872Y004428D01*
X003882Y004403D01*
X003899Y004381D01*
X003920Y004365D01*
X003945Y004354D01*
X003972Y004351D01*
X004000Y004354D01*
X004025Y004365D01*
X004046Y004381D01*
X004059Y004398D01*
X004072D01*
X004081Y004386D01*
X004103Y004370D01*
X004128Y004359D01*
X004155Y004356D01*
X004182Y004359D01*
X004207Y004370D01*
X004229Y004386D01*
X004245Y004408D01*
X004256Y004433D01*
X004259Y004460D01*
X004256Y004483D01*
X004267Y004489D01*
X004270Y004487D01*
X004295Y004477D01*
X004322Y004473D01*
X004350Y004477D01*
X004375Y004487D01*
X004396Y004504D01*
X004413Y004525D01*
X004423Y004550D01*
X004427Y004578D01*
X004423Y004605D01*
X004413Y004630D01*
X004396Y004651D01*
X004376Y004667D01*
Y004728D01*
X004372Y004748D01*
X004360Y004765D01*
X004360D01*
Y004765D01*
X003395Y005730D01*
X003378Y005742D01*
X003358Y005746D01*
X002848D01*
X002839Y005745D01*
X002824Y005751D01*
X002794Y005755D01*
X002764Y005751D01*
X002736Y005739D01*
X002712Y005721D01*
X002694Y005697D01*
X002682Y005669D01*
X002678Y005639D01*
X002682Y005609D01*
X002694Y005581D01*
X002695Y005579D01*
X002690Y005567D01*
X002677Y005565D01*
X002660Y005553D01*
X002593Y005486D01*
X002581Y005491D01*
Y006949D01*
X003349D01*
Y006893D01*
X003353Y006872D01*
X003365Y006855D01*
X003382Y006843D01*
X003382Y006843D01*
X003382D01*
X003390Y006837D01*
X003379Y006812D01*
X003376Y006785D01*
X003379Y006758D01*
X003390Y006733D01*
X003406Y006711D01*
X003426Y006696D01*
Y006610D01*
X003341Y006525D01*
X003330Y006530D01*
Y006542D01*
X003118D01*
Y006571D01*
X003132D01*
Y006738D01*
X002965D01*
Y006571D01*
X003011D01*
Y006542D01*
X002970D01*
Y006362D01*
X003330D01*
Y006398D01*
X003344D01*
X003365Y006402D01*
X003382Y006414D01*
X003518Y006550D01*
X003530Y006567D01*
X003534Y006588D01*
Y006696D01*
X003554Y006711D01*
X003570Y006733D01*
X003581Y006758D01*
X003584Y006785D01*
X003581Y006812D01*
X003570Y006837D01*
X003571Y006839D01*
X003651D01*
X003656Y006827D01*
X003646Y006819D01*
X003625Y006794D01*
X003610Y006765D01*
X003601Y006734D01*
X003599Y006717D01*
X003928D01*
X003926Y006734D01*
X003916Y006765D01*
X003901Y006794D01*
X003880Y006819D01*
X003855Y006839D01*
X003827Y006855D01*
X003823Y006865D01*
X003827Y006872D01*
X003831Y006892D01*
X003831Y006893D01*
X003831Y006893D01*
Y006893D01*
Y006949D01*
X004399D01*
Y006815D01*
D02*
G37*
%LPC*%
G36*
X003616Y003586D02*
X003515D01*
Y003485D01*
X003616D01*
Y003586D01*
D02*
G37*
G36*
X003485D02*
X003384D01*
Y003485D01*
X003485D01*
Y003586D01*
D02*
G37*
G36*
X002803Y003587D02*
X002725D01*
Y003454D01*
X002803D01*
Y003587D01*
D02*
G37*
G36*
X002910D02*
X002833D01*
Y003454D01*
X002910D01*
Y003587D01*
D02*
G37*
G36*
X002803Y003749D02*
X002725D01*
Y003617D01*
X002803D01*
Y003749D01*
D02*
G37*
G36*
X002779Y004737D02*
X002764Y004735D01*
X002736Y004723D01*
X002712Y004705D01*
X002694Y004681D01*
X002682Y004653D01*
X002680Y004638D01*
X002779D01*
Y004737D01*
D02*
G37*
G36*
X002809D02*
Y004638D01*
X002908D01*
X002906Y004653D01*
X002894Y004681D01*
X002876Y004705D01*
X002852Y004723D01*
X002824Y004735D01*
X002809Y004737D01*
D02*
G37*
G36*
X002910Y003749D02*
X002833D01*
Y003617D01*
X002910D01*
Y003749D01*
D02*
G37*
G36*
X004022Y004068D02*
X003985Y004065D01*
X003949Y004054D01*
X003916Y004036D01*
X003888Y004012D01*
X003864Y003984D01*
X003846Y003951D01*
X003835Y003915D01*
X003832Y003878D01*
X003835Y003840D01*
X003846Y003804D01*
X003864Y003771D01*
X003888Y003742D01*
X003916Y003719D01*
X003949Y003701D01*
X003985Y003690D01*
X004022Y003687D01*
X004060Y003690D01*
X004096Y003701D01*
X004129Y003719D01*
X004158Y003742D01*
X004181Y003771D01*
X004199Y003804D01*
X004210Y003840D01*
X004213Y003878D01*
X004210Y003915D01*
X004199Y003951D01*
X004181Y003984D01*
X004158Y004012D01*
X004129Y004036D01*
X004096Y004054D01*
X004060Y004065D01*
X004022Y004068D01*
D02*
G37*
G36*
X003485Y003455D02*
X003384D01*
Y003353D01*
X003485D01*
Y003455D01*
D02*
G37*
G36*
X003496Y003055D02*
X003446D01*
Y002925D01*
X003496D01*
Y003055D01*
D02*
G37*
G36*
X003576D02*
X003526D01*
Y002925D01*
X003576D01*
Y003055D01*
D02*
G37*
G36*
X003636Y002926D02*
X003606Y002922D01*
X003578Y002910D01*
X003554Y002892D01*
X003535Y002868D01*
X003524Y002840D01*
X003520Y002810D01*
X003524Y002780D01*
X003535Y002752D01*
X003554Y002728D01*
X003578Y002710D01*
X003606Y002698D01*
X003636Y002694D01*
X003666Y002698D01*
X003694Y002710D01*
X003718Y002728D01*
X003736Y002752D01*
X003748Y002780D01*
X003752Y002810D01*
X003748Y002840D01*
X003736Y002868D01*
X003718Y002892D01*
X003694Y002910D01*
X003666Y002922D01*
X003636Y002926D01*
D02*
G37*
G36*
X004086D02*
X004056Y002922D01*
X004028Y002910D01*
X004004Y002892D01*
X003985Y002868D01*
X003974Y002840D01*
X003970Y002810D01*
X003974Y002780D01*
X003985Y002752D01*
X004004Y002728D01*
X004028Y002710D01*
X004056Y002698D01*
X004086Y002694D01*
X004116Y002698D01*
X004144Y002710D01*
X004168Y002728D01*
X004186Y002752D01*
X004198Y002780D01*
X004202Y002810D01*
X004198Y002840D01*
X004186Y002868D01*
X004168Y002892D01*
X004144Y002910D01*
X004116Y002922D01*
X004086Y002926D01*
D02*
G37*
G36*
X003616Y003455D02*
X003515D01*
Y003353D01*
X003550D01*
X003557Y003343D01*
X003552Y003330D01*
X003548Y003303D01*
X003552Y003275D01*
X003562Y003250D01*
X003579Y003229D01*
X003600Y003212D01*
X003625Y003202D01*
X003653Y003198D01*
X003678Y003201D01*
X003696Y003183D01*
Y002925D01*
X003826D01*
Y003188D01*
X003835Y003196D01*
X003858Y003193D01*
X003883Y003196D01*
X003896Y003183D01*
Y002925D01*
X004026D01*
Y003215D01*
X004010D01*
X003999Y003232D01*
X003959Y003272D01*
X003962Y003297D01*
X003958Y003325D01*
X003948Y003350D01*
X003931Y003371D01*
X003910Y003388D01*
X003885Y003398D01*
X003858Y003402D01*
X003830Y003398D01*
X003805Y003388D01*
X003784Y003371D01*
X003767Y003350D01*
X003762Y003338D01*
X003750D01*
X003743Y003355D01*
X003726Y003376D01*
X003705Y003393D01*
X003680Y003403D01*
X003653Y003407D01*
X003626Y003403D01*
X003616Y003412D01*
Y003455D01*
D02*
G37*
G36*
X002885Y003250D02*
X002784D01*
Y003148D01*
X002885D01*
Y003250D01*
D02*
G37*
G36*
Y003381D02*
X002784D01*
Y003280D01*
X002885D01*
Y003381D01*
D02*
G37*
G36*
X003496Y003215D02*
X003446D01*
Y003085D01*
X003496D01*
Y003215D01*
D02*
G37*
G36*
X003576D02*
X003526D01*
Y003085D01*
X003576D01*
Y003215D01*
D02*
G37*
G36*
X003928Y006687D02*
X003778D01*
Y006537D01*
X003796Y006539D01*
X003827Y006548D01*
X003855Y006564D01*
X003880Y006584D01*
X003901Y006609D01*
X003916Y006638D01*
X003926Y006669D01*
X003928Y006687D01*
D02*
G37*
G36*
X004248D02*
X004099D01*
X004101Y006669D01*
X004110Y006638D01*
X004125Y006609D01*
X004146Y006584D01*
X004171Y006564D01*
X004200Y006548D01*
X004231Y006539D01*
X004248Y006537D01*
Y006687D01*
D02*
G37*
G36*
X004013Y006617D02*
X003981Y006614D01*
X003950Y006605D01*
X003921Y006589D01*
X003896Y006569D01*
X003875Y006544D01*
X003860Y006515D01*
X003851Y006484D01*
X003847Y006452D01*
X003851Y006419D01*
X003860Y006388D01*
X003875Y006359D01*
X003896Y006334D01*
X003921Y006314D01*
X003950Y006298D01*
X003981Y006289D01*
X004013Y006286D01*
X004046Y006289D01*
X004077Y006298D01*
X004105Y006314D01*
X004130Y006334D01*
X004151Y006359D01*
X004166Y006388D01*
X004176Y006419D01*
X004179Y006452D01*
X004176Y006484D01*
X004166Y006515D01*
X004151Y006544D01*
X004130Y006569D01*
X004105Y006589D01*
X004077Y006605D01*
X004046Y006614D01*
X004013Y006617D01*
D02*
G37*
G36*
X003748Y006687D02*
X003599D01*
X003601Y006669D01*
X003610Y006638D01*
X003625Y006609D01*
X003646Y006584D01*
X003671Y006564D01*
X003700Y006548D01*
X003731Y006539D01*
X003748Y006537D01*
Y006687D01*
D02*
G37*
G36*
X002909Y006770D02*
X002679D01*
Y006540D01*
X002909D01*
Y006770D01*
D02*
G37*
G36*
X003132Y006932D02*
X002965D01*
Y006765D01*
X003132D01*
Y006932D01*
D02*
G37*
G36*
X003326D02*
X003158D01*
Y006765D01*
X003326D01*
Y006932D01*
D02*
G37*
G36*
Y006738D02*
X003158D01*
Y006571D01*
X003326D01*
Y006738D01*
D02*
G37*
G36*
X004248Y006866D02*
X004231Y006864D01*
X004200Y006855D01*
X004171Y006839D01*
X004146Y006819D01*
X004125Y006794D01*
X004110Y006765D01*
X004101Y006734D01*
X004099Y006717D01*
X004248D01*
Y006866D01*
D02*
G37*
G36*
X002794Y006517D02*
X002764Y006513D01*
X002736Y006501D01*
X002712Y006483D01*
X002694Y006459D01*
X002682Y006431D01*
X002678Y006401D01*
X002682Y006371D01*
X002694Y006343D01*
X002712Y006319D01*
X002736Y006300D01*
X002764Y006289D01*
X002794Y006285D01*
X002824Y006289D01*
X002852Y006300D01*
X002876Y006319D01*
X002894Y006343D01*
X002906Y006371D01*
X002910Y006401D01*
X002906Y006431D01*
X002894Y006459D01*
X002876Y006483D01*
X002852Y006501D01*
X002824Y006513D01*
X002794Y006517D01*
D02*
G37*
G36*
X004049Y005488D02*
X003974D01*
Y005408D01*
X004049D01*
Y005488D01*
D02*
G37*
G36*
X004154D02*
X004079D01*
Y005408D01*
X004154D01*
Y005488D01*
D02*
G37*
G36*
X004167Y005268D02*
X004087D01*
Y005193D01*
X004167D01*
Y005268D01*
D02*
G37*
G36*
Y005373D02*
X004087D01*
Y005298D01*
X004167D01*
Y005373D01*
D02*
G37*
G36*
X004252Y005488D02*
X004177D01*
Y005408D01*
X004252D01*
Y005488D01*
D02*
G37*
G36*
X003748Y006366D02*
X003731Y006364D01*
X003700Y006355D01*
X003671Y006339D01*
X003646Y006319D01*
X003625Y006294D01*
X003610Y006265D01*
X003601Y006234D01*
X003599Y006217D01*
X003748D01*
Y006366D01*
D02*
G37*
G36*
X004248D02*
X004231Y006364D01*
X004200Y006355D01*
X004171Y006339D01*
X004146Y006319D01*
X004125Y006294D01*
X004110Y006265D01*
X004101Y006234D01*
X004099Y006217D01*
X004248D01*
Y006366D01*
D02*
G37*
G36*
X002794Y006263D02*
X002764Y006259D01*
X002736Y006247D01*
X002712Y006229D01*
X002694Y006205D01*
X002682Y006177D01*
X002678Y006147D01*
X002682Y006117D01*
X002694Y006089D01*
X002712Y006065D01*
X002736Y006046D01*
X002764Y006035D01*
X002794Y006031D01*
X002824Y006035D01*
X002852Y006046D01*
X002876Y006065D01*
X002894Y006089D01*
X002906Y006117D01*
X002910Y006147D01*
X002906Y006177D01*
X002894Y006205D01*
X002876Y006229D01*
X002852Y006247D01*
X002824Y006259D01*
X002794Y006263D01*
D02*
G37*
G36*
X003748Y006187D02*
X003599D01*
X003601Y006169D01*
X003610Y006138D01*
X003625Y006109D01*
X003646Y006084D01*
X003671Y006064D01*
X003700Y006048D01*
X003731Y006039D01*
X003748Y006037D01*
Y006187D01*
D02*
G37*
%LPD*%
D10*
X003511Y003070D02*
D03*
X003761D02*
D03*
X003961D02*
D03*
X004211D02*
D03*
D11*
X003500Y003812D02*
D03*
D12*
X003500Y003470D02*
D03*
D13*
X003112Y003265D02*
D03*
D14*
X002769Y003265D02*
D03*
D15*
X003556Y004037D02*
D03*
Y004352D02*
D03*
D16*
X002818Y003602D02*
D03*
D17*
X003048Y003602D02*
D03*
X003278D02*
D03*
D18*
X003048Y004222D02*
D03*
D19*
X003759Y004182D02*
D03*
Y004352D02*
D03*
X004064Y005503D02*
D03*
X004267D02*
D03*
Y005673D02*
D03*
X004064D02*
D03*
D20*
X004352Y005283D02*
D03*
X004182D02*
D03*
X003235Y006452D02*
D03*
X003065D02*
D03*
D21*
X003048Y006655D02*
D03*
X003242D02*
D03*
Y006849D02*
D03*
X003048D02*
D03*
D22*
X003190Y003083D02*
X003409Y003302D01*
X003556Y003449D01*
X003653Y003303D02*
X003761Y003194D01*
Y003070D01*
X003961D02*
Y003194D01*
X003858Y003297D01*
X004109Y003299D02*
X004211Y003198D01*
Y003070D01*
X004109Y003299D02*
X003753Y003655D01*
X003278D01*
Y003430D01*
X003099Y003251D01*
X003190Y003083D02*
X002805D01*
X002784Y003104D01*
Y003251D01*
X002818Y003283D02*
Y003602D01*
Y003755D01*
X002665Y003908D01*
Y004494D01*
X002794Y004623D01*
X003235Y004455D02*
X003460Y004680D01*
X003662Y004499D02*
X003833D01*
X003938Y004603D01*
X004008Y004455D02*
X004070Y004517D01*
Y004655D01*
X003483Y005242D01*
X002909D01*
X002794Y005128D01*
X002869Y005310D02*
X003575D01*
X004155Y004730D01*
Y004510D01*
X004095Y004162D02*
X004490Y004558D01*
Y004762D01*
X004165Y005088D01*
Y005489D01*
Y006040D01*
X004263Y006138D01*
Y006202D01*
X004267Y005893D02*
X004318Y005944D01*
X004398Y005814D02*
X004398Y005814D01*
X004453Y005500D02*
Y005384D01*
X004352Y005283D01*
X004253Y005489D02*
X004165D01*
X004078D01*
X004064Y005673D02*
Y005928D01*
X004046Y005946D01*
X004267Y005673D02*
Y005893D01*
X004010Y006138D02*
X003765Y005893D01*
X002794D01*
Y005639D02*
X002848Y005692D01*
X003358D01*
X004322Y004728D01*
X004322Y004728D02*
Y004578D01*
X004095Y004162D02*
X003975D01*
Y004247D01*
X003870Y004352D01*
X003759D01*
X003556Y004392D02*
X003662Y004499D01*
X003759Y004182D02*
Y004059D01*
X003737Y004037D01*
X003556D01*
Y003810D02*
X003460D01*
X003048Y004222D01*
X003174D01*
X003558Y004605D01*
X003767D01*
Y004760D01*
X003651Y004877D01*
X002794D01*
X002630Y005041D01*
Y005447D01*
X002698Y005515D01*
X003025D01*
X003120Y005420D01*
X003240D01*
X002794Y005385D02*
X002869Y005310D01*
X002788Y004455D02*
X003235D01*
X003066Y004239D02*
X003048Y004222D01*
Y003602D01*
X003409Y003302D02*
X003511Y003200D01*
Y003070D01*
X003409Y003253D02*
Y003302D01*
X003767Y004605D02*
Y004614D01*
X003344Y006452D02*
X003480Y006588D01*
Y006785D01*
X003344Y006452D02*
X003235D01*
X003065D02*
Y006638D01*
X003048Y006655D01*
D23*
X003636Y002810D02*
D03*
X004086D02*
D03*
X002794Y004623D02*
D03*
Y004877D02*
D03*
Y005131D02*
D03*
Y005385D02*
D03*
Y005639D02*
D03*
Y005893D02*
D03*
Y006147D02*
D03*
Y006401D02*
D03*
D24*
X003291Y002693D02*
D03*
Y002773D02*
D03*
Y002855D02*
D03*
Y002933D02*
D03*
X004431Y002773D02*
D03*
Y002693D02*
D03*
Y002855D02*
D03*
Y002933D02*
D03*
D25*
X004022Y003878D02*
D03*
D26*
X003150Y005090D02*
D03*
D27*
X003150Y005578D02*
D03*
D28*
X004318Y005944D02*
D03*
X004046Y005946D02*
D03*
D29*
X002794Y006655D02*
D03*
D30*
X004263Y006202D02*
D03*
X004013Y006452D02*
D03*
X004263Y006702D02*
D03*
X003763D02*
D03*
Y006202D02*
D03*
D31*
X003409Y003302D02*
D03*
X003653Y003303D02*
D03*
X003858Y003297D02*
D03*
X004109Y003299D02*
D03*
X003975Y004162D02*
D03*
X004155Y004460D02*
D03*
X004322Y004578D02*
D03*
X003938Y004603D02*
D03*
X003972Y004455D02*
D03*
X003767Y004605D02*
D03*
X003460Y004680D02*
D03*
X003024Y003985D02*
D03*
X002788Y004455D02*
D03*
X003240Y005420D02*
D03*
X004010Y006138D02*
D03*
X003480Y006785D02*
D03*
X004453Y005500D02*
D03*
M02*
