%FSAX42Y42*%
%MOMM*%
G71*
G01*
G75*
G04 Layer_Color=8388736*
%ADD10R,1.10X1.00*%
%ADD11R,0.87X0.87*%
%ADD12R,1.00X1.10*%
%ADD13R,3.40X2.15*%
%ADD14R,1.05X2.15*%
%ADD15R,1.05X2.15*%
%ADD16R,1.70X1.25*%
%ADD17R,1.52X1.52*%
%ADD18P,1.65X8X202.5*%
%ADD19R,1.52X1.52*%
%ADD20P,1.65X8X292.5*%
%ADD21R,0.50X2.10*%
%ADD22C,0.25*%
%ADD23C,1.50*%
%ADD24R,1.50X1.50*%
%ADD25C,2.50*%
%ADD26C,1.52*%
%ADD27C,1.40*%
%ADD28P,1.52X8X112.5*%
%ADD29C,3.00*%
%ADD30C,1.65*%
%ADD31C,1.27*%
%ADD32O,0.80X0.28*%
%ADD33O,0.28X0.80*%
%ADD34R,7.65X7.65*%
%ADD35O,0.40X2.10*%
%ADD36R,0.80X0.35*%
%ADD37C,0.20*%
%ADD38C,0.25*%
%ADD39C,0.60*%
%ADD40R,1.80X1.80*%
%ADD41R,2.00X1.80*%
%ADD42R,1.80X2.00*%
%ADD43O,0.74X0.22*%
%ADD44O,0.22X0.74*%
%ADD45R,2.05X2.05*%
%ADD46R,1.30X1.20*%
%ADD47R,1.54X1.54*%
%ADD48R,1.20X1.30*%
%ADD49R,3.60X2.35*%
%ADD50R,1.25X2.35*%
%ADD51R,1.25X2.35*%
%ADD52R,1.90X1.45*%
%ADD53R,1.73X1.73*%
%ADD54P,1.87X8X202.5*%
%ADD55R,1.73X1.73*%
%ADD56P,1.87X8X292.5*%
%ADD57R,0.70X2.30*%
%ADD58C,1.70*%
%ADD59R,1.70X1.70*%
%ADD60C,2.70*%
%ADD61C,1.73*%
%ADD62C,1.60*%
%ADD63P,1.74X8X112.5*%
%ADD64C,3.20*%
%ADD65C,1.85*%
%ADD66C,1.47*%
D46*
X004352Y005283D02*
D03*
X004182D02*
D03*
X003235Y006248D02*
D03*
X003065D02*
D03*
D47*
X003048Y006655D02*
D03*
Y006849D02*
D03*
X003242D02*
D03*
Y006655D02*
D03*
D48*
X003759Y004182D02*
D03*
Y004352D02*
D03*
X004064Y005503D02*
D03*
X004267D02*
D03*
Y005673D02*
D03*
X004064D02*
D03*
D49*
X003048Y004069D02*
D03*
D50*
X003048Y003449D02*
D03*
X003278D02*
D03*
D51*
X002818Y003449D02*
D03*
D52*
X003556Y004037D02*
D03*
Y004352D02*
D03*
D53*
X002807Y003200D02*
D03*
D54*
X003150Y003200D02*
D03*
D55*
X003505Y003416D02*
D03*
D56*
X003505Y003759D02*
D03*
D57*
X003511Y003070D02*
D03*
X003761D02*
D03*
X003961D02*
D03*
X004211D02*
D03*
D58*
X003636Y002810D02*
D03*
X004086D02*
D03*
X002794Y004369D02*
D03*
Y004623D02*
D03*
Y004877D02*
D03*
Y005131D02*
D03*
Y005385D02*
D03*
Y005639D02*
D03*
Y005893D02*
D03*
Y006147D02*
D03*
Y006401D02*
D03*
D59*
X002794Y006655D02*
D03*
D60*
X004263Y006202D02*
D03*
X004013Y006452D02*
D03*
X004263Y006702D02*
D03*
X003763D02*
D03*
Y006202D02*
D03*
D61*
X004318Y005944D02*
D03*
X004046Y005946D02*
D03*
D62*
X003150Y005527D02*
D03*
D63*
X003150Y005039D02*
D03*
D64*
X004022Y003878D02*
D03*
D65*
X003291Y002693D02*
D03*
Y002773D02*
D03*
Y002855D02*
D03*
Y002933D02*
D03*
X004431Y002773D02*
D03*
Y002693D02*
D03*
Y002855D02*
D03*
Y002933D02*
D03*
D66*
X002790Y002865D02*
D03*
X003855Y002798D02*
D03*
X003953Y003295D02*
D03*
X004210Y003310D02*
D03*
X004155Y004460D02*
D03*
X004322Y004578D02*
D03*
X003845Y005325D02*
D03*
X003767Y004605D02*
D03*
X003972Y004455D02*
D03*
X003938Y004603D02*
D03*
X003535Y004622D02*
D03*
X003212Y005360D02*
D03*
X002988Y006020D02*
D03*
X003480Y006785D02*
D03*
X004010Y006138D02*
D03*
X004453Y005500D02*
D03*
X002725Y004140D02*
D03*
M02*
