%FSAX42Y42*%
%MOMM*%
G71*
G01*
G75*
G04 Layer_Color=255*
%ADD10R,1.10X1.00*%
%ADD11R,0.87X0.87*%
%ADD12R,1.00X1.10*%
%ADD13R,3.40X2.15*%
%ADD14R,1.05X2.15*%
%ADD15R,1.05X2.15*%
%ADD16R,1.70X1.25*%
%ADD17R,1.52X1.52*%
%ADD18P,1.65X8X202.5*%
%ADD19R,1.52X1.52*%
%ADD20P,1.65X8X292.5*%
%ADD21R,0.50X2.10*%
%ADD22C,0.25*%
%ADD23C,1.50*%
%ADD24R,1.50X1.50*%
%ADD25C,2.50*%
%ADD26C,1.52*%
%ADD27C,1.40*%
%ADD28P,1.52X8X112.5*%
%ADD29C,3.00*%
%ADD30C,1.65*%
%ADD31C,1.27*%
%ADD32O,0.80X0.28*%
%ADD33O,0.28X0.80*%
%ADD34R,7.65X7.65*%
%ADD35O,0.40X2.10*%
%ADD36R,0.80X0.35*%
D10*
X003191Y005690D02*
D03*
Y005843D02*
D03*
X003021D02*
D03*
Y005690D02*
D03*
D12*
X004166Y004131D02*
D03*
Y004301D02*
D03*
X004318D02*
D03*
Y004131D02*
D03*
X003302Y004606D02*
D03*
Y004436D02*
D03*
X003150Y004606D02*
D03*
Y004436D02*
D03*
X002989Y004606D02*
D03*
Y004436D02*
D03*
X002997Y004893D02*
D03*
Y005063D02*
D03*
Y005249D02*
D03*
Y005419D02*
D03*
X003353Y006214D02*
D03*
X003505D02*
D03*
Y006384D02*
D03*
X003353D02*
D03*
D23*
X003636Y002810D02*
D03*
X004086D02*
D03*
X002794Y004369D02*
D03*
Y004623D02*
D03*
Y004877D02*
D03*
Y005131D02*
D03*
Y005385D02*
D03*
Y005639D02*
D03*
Y005893D02*
D03*
Y006147D02*
D03*
Y006401D02*
D03*
D24*
X002794Y006655D02*
D03*
D25*
X004263Y006202D02*
D03*
X004013Y006452D02*
D03*
X004263Y006702D02*
D03*
X003763D02*
D03*
Y006202D02*
D03*
D26*
X004318Y005944D02*
D03*
X004046Y005946D02*
D03*
D27*
X003150Y005527D02*
D03*
D28*
X003150Y005039D02*
D03*
D29*
X004022Y003878D02*
D03*
D30*
X003291Y002693D02*
D03*
Y002773D02*
D03*
Y002855D02*
D03*
Y002933D02*
D03*
X004431Y002773D02*
D03*
Y002693D02*
D03*
Y002855D02*
D03*
Y002933D02*
D03*
D32*
X004307Y004910D02*
D03*
Y004960D02*
D03*
Y005010D02*
D03*
Y005060D02*
D03*
Y005110D02*
D03*
Y005160D02*
D03*
Y005210D02*
D03*
Y005260D02*
D03*
Y005310D02*
D03*
Y005360D02*
D03*
X004307Y005410D02*
D03*
X004307Y005460D02*
D03*
Y005510D02*
D03*
Y005560D02*
D03*
Y005610D02*
D03*
X004307Y005660D02*
D03*
X003407Y005660D02*
D03*
Y005610D02*
D03*
Y005560D02*
D03*
Y005510D02*
D03*
Y005460D02*
D03*
Y005410D02*
D03*
Y005360D02*
D03*
Y005310D02*
D03*
Y005260D02*
D03*
Y005210D02*
D03*
Y005160D02*
D03*
Y005110D02*
D03*
Y005060D02*
D03*
Y005010D02*
D03*
Y004960D02*
D03*
Y004910D02*
D03*
D33*
X004082Y004835D02*
D03*
X004132D02*
D03*
X004182D02*
D03*
X004232D02*
D03*
X004032D02*
D03*
X003982D02*
D03*
X003932D02*
D03*
X003882D02*
D03*
X003833D02*
D03*
X003783D02*
D03*
X003733D02*
D03*
X003683D02*
D03*
X003633D02*
D03*
X003583D02*
D03*
X003532D02*
D03*
X003483D02*
D03*
X004082Y005735D02*
D03*
X004132D02*
D03*
X004182D02*
D03*
X004232D02*
D03*
X004032D02*
D03*
X003982D02*
D03*
X003932D02*
D03*
X003882D02*
D03*
X003833D02*
D03*
X003783D02*
D03*
X003733D02*
D03*
X003683D02*
D03*
X003633D02*
D03*
X003583D02*
D03*
X003532D02*
D03*
X003483D02*
D03*
D34*
X003857Y005285D02*
D03*
D35*
X003349Y003313D02*
D03*
X003414D02*
D03*
X003479D02*
D03*
X003544D02*
D03*
X003609D02*
D03*
X003674D02*
D03*
Y004003D02*
D03*
X003609D02*
D03*
X003544D02*
D03*
X003479D02*
D03*
X003414D02*
D03*
X003349D02*
D03*
X003284D02*
D03*
X003219D02*
D03*
X003154D02*
D03*
X003089D02*
D03*
X003024D02*
D03*
X002959D02*
D03*
X002894D02*
D03*
X002829D02*
D03*
Y003313D02*
D03*
X002894D02*
D03*
X002959D02*
D03*
X003024D02*
D03*
X003089D02*
D03*
X003154D02*
D03*
X003219D02*
D03*
X003284D02*
D03*
D36*
X003320Y006525D02*
D03*
Y006590D02*
D03*
X003480D02*
D03*
Y006525D02*
D03*
Y006655D02*
D03*
X003320D02*
D03*
M02*
