%FSAX42Y42*%
%MOMM*%
G71*
G01*
G75*
%ADD10R,1.10X1.00*%
%ADD11R,0.87X0.87*%
%ADD12R,1.00X1.10*%
%ADD13R,3.40X2.15*%
%ADD14R,1.05X2.15*%
%ADD15R,1.05X2.15*%
%ADD16R,1.70X1.25*%
%ADD17R,1.52X1.52*%
%ADD18P,1.65X8X202.5*%
%ADD19R,1.52X1.52*%
%ADD20P,1.65X8X292.5*%
%ADD21R,0.50X2.10*%
%ADD22C,0.25*%
%ADD23C,1.50*%
%ADD24R,1.50X1.50*%
%ADD25C,2.50*%
%ADD26C,1.52*%
%ADD27C,1.40*%
%ADD28P,1.52X8X112.5*%
%ADD29C,3.00*%
%ADD30C,1.65*%
%ADD31C,1.27*%
%ADD32O,0.80X0.28*%
%ADD33O,0.28X0.80*%
%ADD34R,7.65X7.65*%
%ADD35O,0.40X2.10*%
%ADD36R,0.80X0.35*%
%ADD37C,0.20*%
%ADD38C,0.25*%
D22*
X003276Y002849D02*
X003301Y002824D01*
X003403D01*
X003428Y002849D01*
Y002900D01*
X003403Y002926D01*
X003428Y002976D02*
Y003027D01*
Y003002D01*
X003276D01*
X003301Y002976D01*
Y002926D02*
X003276Y002900D01*
Y002849D01*
X003403Y003103D02*
X003428D01*
X003403D02*
X003301Y003205D01*
X003276D01*
Y003103D01*
X003739Y002747D02*
X003815D01*
X003841Y002722D01*
Y002671D01*
X003815Y002646D01*
X003739D01*
Y002595D02*
Y002747D01*
X003917D02*
X003891Y002722D01*
X003917Y002747D02*
Y002595D01*
X003942D01*
X003891D01*
X003827Y003289D02*
X003853Y003315D01*
Y003365D01*
X003827Y003391D01*
X003853Y003442D02*
Y003492D01*
Y003467D01*
X003700D01*
X003726Y003442D01*
Y003391D02*
X003700Y003365D01*
Y003315D01*
X003726Y003289D01*
X003827D01*
Y003569D02*
X003802D01*
X003776Y003594D01*
X003751Y003569D01*
X003726D01*
X003700Y003594D01*
Y003645D01*
X003726Y003670D01*
X003751D01*
X003776Y003645D01*
X003802Y003670D01*
X003827D01*
X003853Y003645D01*
Y003594D01*
X003827Y003569D01*
X003628Y003992D02*
Y004069D01*
X003602Y004094D01*
X003501D01*
X003475Y004069D01*
Y003992D01*
X003628D01*
X003776Y003645D02*
Y003594D01*
X003875Y004100D02*
Y004176D01*
X003901Y004202D01*
X003951D01*
X003977Y004176D01*
Y004100D01*
X004028D02*
X003875D01*
X003977Y004151D02*
X004028Y004202D01*
X003951Y004252D02*
Y004354D01*
X004028Y004329D02*
X003875D01*
X003951Y004252D01*
X003628Y004196D02*
Y004170D01*
X003475D01*
X003501Y004145D01*
X003628D02*
Y004196D01*
X003178Y003835D02*
X003152Y003810D01*
X003051Y003784D02*
X003101Y003835D01*
Y003683D01*
X003152D02*
X003203D01*
X003178D01*
Y003835D01*
X003051Y003784D02*
X003000Y003835D01*
Y003683D01*
X002949D02*
X002848D01*
Y003835D01*
X004320Y005420D02*
Y005573D01*
X004295Y005547D01*
X004244D02*
X004219Y005573D01*
X004168D01*
X004143Y005547D01*
Y005446D01*
X004168Y005420D01*
X004219D01*
X004244Y005446D01*
X004295Y005420D02*
X004346D01*
X004320D01*
X004353Y005500D02*
X004378Y005475D01*
X004480D01*
X004505Y005500D01*
Y005551D01*
X004480Y005577D01*
X004498Y005573D02*
X004524Y005547D01*
Y005446D01*
X004498Y005420D01*
X004447D01*
X004422Y005446D01*
Y005547D01*
X004447Y005573D01*
X004498D01*
X004378Y005577D02*
X004353Y005551D01*
Y005500D01*
Y005627D02*
Y005729D01*
X004378D01*
X004480Y005627D01*
X004505D01*
X004188Y006109D02*
X004163D01*
Y006261D01*
X004138Y006236D01*
X004087D02*
Y006261D01*
Y006236D02*
X004036Y006185D01*
Y006109D01*
Y006185D02*
X003985Y006236D01*
Y006261D01*
X003942Y006055D02*
X003917Y006029D01*
X003942Y006055D02*
Y005903D01*
X003968D01*
X003917D01*
X003815D02*
Y006055D01*
X003866D01*
X003765D01*
X003714D02*
Y005903D01*
X003612Y006055D01*
Y005903D01*
X003562D02*
Y005979D01*
X003460D01*
Y006004D02*
X003511Y006055D01*
X003562Y006004D01*
Y005903D01*
X003808Y005714D02*
Y005612D01*
X003884D01*
X003858Y005663D01*
Y005689D01*
X003884Y005714D01*
X003935D01*
X003960Y005689D01*
Y005638D01*
X003935Y005612D01*
Y005562D02*
X003960Y005536D01*
Y005485D01*
X003935Y005460D01*
X003833D01*
X003808Y005485D01*
Y005536D01*
X003833Y005562D01*
X003460Y005903D02*
Y006004D01*
X003246Y006106D02*
Y006131D01*
X003221Y006157D01*
X003170D01*
X003145Y006131D01*
X003094D02*
Y006080D01*
X003069Y006055D01*
X002992D01*
X003033Y006065D02*
Y006091D01*
Y006065D02*
X002982Y006015D01*
Y005939D01*
Y006015D02*
X002931Y006065D01*
Y006091D01*
X002992Y006004D02*
Y006157D01*
X003069D01*
X003094Y006131D01*
X003246Y006106D02*
X003145Y006004D01*
X003246D01*
X003185Y006040D02*
Y006065D01*
X003160Y006091D01*
X003109D01*
X003084Y006065D01*
X003094Y006004D02*
X003043Y006055D01*
X003084Y005939D02*
X003185Y006040D01*
Y005939D02*
X003084D01*
X003571Y006512D02*
X003545D01*
Y006665D01*
X003520Y006639D01*
X003469Y006665D02*
X003367D01*
Y006512D01*
X003469D01*
X003520D02*
X003571D01*
X003418Y006589D02*
X003367D01*
X002936Y006868D02*
X002835D01*
X002936Y006970D01*
Y006995D01*
X002911Y007021D01*
X002860D01*
X002835Y006995D01*
X002784D02*
Y006944D01*
X002758Y006919D01*
X002682D01*
Y006868D02*
Y007021D01*
X002758D01*
X002784Y006995D01*
X004138Y006109D02*
X004188D01*
D37*
X003261Y001020D02*
X004461D01*
Y002573D01*
X004308Y002910D02*
X004144D01*
X004029D02*
X003693D01*
X003578D02*
X003413D01*
X003632Y003289D02*
Y003480D01*
Y003289D02*
X003378D01*
Y003480D01*
X003632Y003696D02*
Y003886D01*
X003378D01*
Y003696D01*
X003383Y003597D02*
Y003922D01*
X002713D01*
Y003597D01*
X003383D01*
X003277Y003327D02*
X003086D01*
X003277D02*
Y003073D01*
X003086D01*
X002870Y003327D02*
X002680D01*
Y003073D01*
X002870D01*
X003261Y002573D02*
Y001020D01*
X002921Y004242D02*
Y006591D01*
Y006782D01*
X002667D01*
Y004242D01*
X002921D01*
X003385Y004713D02*
Y005853D01*
X002915D01*
Y004713D01*
Y004713D02*
X003385D01*
X004113Y006137D02*
X003913D01*
X004193Y006452D02*
G03*
X004193Y006452I-000180J000000D01*
G01*
X004328Y006352D02*
Y006552D01*
X004113Y006767D02*
X003913D01*
X003698Y006552D02*
Y006352D01*
D38*
X002831Y003287D02*
G03*
X002831Y003287I-000012J000000D01*
G01*
X004223Y003230D02*
G03*
X004223Y003230I-000012J000000D01*
G01*
M02*
