M48
;Layer_Color=9474304
;FILE_FORMAT=4:2
METRIC
;TYPE=PLATED
T1F00S00C0.71
T2F00S00C0.76
T3F00S00C0.80
T4F00S00C0.90
T6F00S00C1.50
T7F00S00C3.00
%
T01
X003409Y003302
X003653Y003303
X003858Y003297
X004109Y003299
X003975Y004162
X003972Y004455
X004155Y004460
X004322Y004578
X004010Y006138
X003480Y006785
X003240Y005420
X003767Y004605
X003938Y004603
X003024Y003985
T02
X004046Y005946
X004318Y005944
T03
X003200Y005090
Y005578
T04
X002794Y004623
Y004877
Y005131
Y005385
Y005639
Y005893
Y006147
Y006401
Y006655
T06
X004013Y006452
X004263Y006202
Y006702
X003763
Y006202
T07
X004022Y003878
M30
