M48
;Layer_Color=9474304
;FILE_FORMAT=4:2
METRIC
;TYPE=PLATED
T1F00S00C0.71
T2F00S00C0.76
T3F00S00C0.80
T4F00S00C0.90
T5F00S00C1.00
T6F00S00C1.50
T7F00S00C3.00
%
T01
X002790Y002865
X003855Y002798
X003953Y003295
X004210Y003310
X004155Y004460
X003972Y004455
X004322Y004578
X004453Y005500
X004010Y006138
X003845Y005325
X003212Y005360
X002988Y006020
X003480Y006785
X003535Y004622
X003767Y004605
X003938Y004603
X002725Y004140
T02
X004046Y005946
X004318Y005944
T03
X003150Y005039
Y005527
T04
X002794Y004369
Y004623
Y004877
Y005131
Y005385
Y005639
Y005893
Y006147
Y006401
Y006655
T05
X003291Y002693
Y002773
Y002855
Y002933
X004431
Y002855
Y002773
Y002693
T06
X003636Y002810
X004086
X004263Y006202
X004013Y006452
X004263Y006702
X003763
Y006202
T07
X004022Y003878
M30
