%FSAX42Y42*%
%MOMM*%
G71*
G01*
G75*
G04 Layer_Physical_Order=1*
G04 Layer_Color=255*
%ADD10R,1.10X1.00*%
%ADD11R,0.87X0.87*%
%ADD12R,1.00X1.10*%
%ADD13R,3.40X2.15*%
%ADD14R,1.05X2.15*%
%ADD15R,1.05X2.15*%
%ADD16R,1.70X1.25*%
%ADD17R,1.52X1.52*%
%ADD18P,1.65X8X202.5*%
%ADD19R,1.52X1.52*%
%ADD20P,1.65X8X292.5*%
%ADD21R,0.50X2.10*%
%ADD22C,0.25*%
%ADD23C,1.50*%
%ADD24R,1.50X1.50*%
%ADD25C,2.50*%
%ADD26C,1.52*%
%ADD27C,1.40*%
%ADD28P,1.52X8X112.5*%
%ADD29C,3.00*%
%ADD30C,1.65*%
%ADD31C,1.27*%
G36*
X004399Y006815D02*
X004387Y006811D01*
X004380Y006819D01*
X004355Y006839D01*
X004327Y006855D01*
X004296Y006864D01*
X004278Y006866D01*
Y006702D01*
Y006537D01*
X004296Y006539D01*
X004327Y006548D01*
X004355Y006564D01*
X004380Y006584D01*
X004387Y006592D01*
X004399Y006588D01*
Y006315D01*
X004387Y006311D01*
X004380Y006319D01*
X004355Y006339D01*
X004327Y006355D01*
X004296Y006364D01*
X004278Y006366D01*
Y006202D01*
X004263D01*
Y006187D01*
X004102D01*
X004100Y006190D01*
X004098Y006192D01*
X004097Y006202D01*
X004098Y006212D01*
X004086Y006208D01*
X004084Y006211D01*
X004062Y006228D01*
X004037Y006238D01*
X004010Y006242D01*
X003983Y006238D01*
X003958Y006228D01*
X003939Y006213D01*
X003927Y006219D01*
X003926Y006234D01*
X003916Y006265D01*
X003901Y006294D01*
X003880Y006319D01*
X003855Y006339D01*
X003827Y006355D01*
X003796Y006364D01*
X003778Y006366D01*
Y006202D01*
Y006037D01*
X003796Y006039D01*
X003827Y006048D01*
X003828Y006049D01*
X003835Y006039D01*
X003663Y005866D01*
X002988D01*
X002967Y005862D01*
X002950Y005850D01*
X002842Y005743D01*
X002824Y005751D01*
X002794Y005755D01*
X002764Y005751D01*
X002736Y005739D01*
X002712Y005721D01*
X002694Y005697D01*
X002682Y005669D01*
X002678Y005639D01*
X002682Y005609D01*
X002694Y005581D01*
X002712Y005557D01*
X002736Y005538D01*
X002764Y005527D01*
X002794Y005523D01*
X002824Y005527D01*
X002852Y005538D01*
X002876Y005557D01*
X002894Y005581D01*
X002906Y005609D01*
X002910Y005639D01*
X002908Y005657D01*
X003010Y005759D01*
X003056D01*
X003057Y005746D01*
X003037Y005742D01*
X003020Y005730D01*
X002957Y005668D01*
X002945Y005651D01*
X002941Y005630D01*
Y005582D01*
X002847Y005488D01*
X002824Y005497D01*
X002794Y005501D01*
X002764Y005497D01*
X002736Y005485D01*
X002712Y005467D01*
X002694Y005443D01*
X002682Y005415D01*
X002678Y005385D01*
X002682Y005355D01*
X002694Y005327D01*
X002694Y005326D01*
X002690Y005314D01*
X002679Y005312D01*
X002662Y005300D01*
X002593Y005231D01*
X002581Y005236D01*
Y006949D01*
X003349D01*
Y006893D01*
X003353Y006872D01*
X003365Y006855D01*
X003382Y006843D01*
X003382Y006843D01*
X003382D01*
X003390Y006837D01*
X003379Y006812D01*
X003376Y006785D01*
X003379Y006758D01*
X003390Y006733D01*
X003406Y006711D01*
X003426Y006696D01*
Y006410D01*
X003341Y006325D01*
X003330Y006330D01*
Y006338D01*
X003118D01*
Y006571D01*
X003132D01*
Y006738D01*
X002965D01*
Y006577D01*
X002953Y006572D01*
X002909Y006616D01*
Y006770D01*
X002679D01*
Y006540D01*
X002833D01*
X002867Y006505D01*
X002859Y006496D01*
X002852Y006501D01*
X002824Y006513D01*
X002794Y006517D01*
X002764Y006513D01*
X002736Y006501D01*
X002712Y006483D01*
X002694Y006459D01*
X002682Y006431D01*
X002678Y006401D01*
X002682Y006371D01*
X002694Y006343D01*
X002712Y006319D01*
X002736Y006300D01*
X002764Y006289D01*
X002794Y006285D01*
X002824Y006289D01*
X002852Y006300D01*
X002867Y006312D01*
X002879Y006307D01*
Y006241D01*
X002867Y006235D01*
X002852Y006247D01*
X002824Y006259D01*
X002794Y006263D01*
X002764Y006259D01*
X002736Y006247D01*
X002712Y006229D01*
X002694Y006205D01*
X002682Y006177D01*
X002678Y006147D01*
X002682Y006117D01*
X002694Y006089D01*
X002712Y006065D01*
X002736Y006046D01*
X002764Y006035D01*
X002794Y006031D01*
X002824Y006035D01*
X002852Y006046D01*
X002871Y006061D01*
X002883Y006056D01*
X002883Y006054D01*
X002887Y006048D01*
X002887Y006047D01*
X002883Y006020D01*
X002887Y005993D01*
X002897Y005968D01*
X002886Y005962D01*
X002876Y005975D01*
X002852Y005993D01*
X002824Y006005D01*
X002794Y006009D01*
X002764Y006005D01*
X002736Y005993D01*
X002712Y005975D01*
X002694Y005951D01*
X002682Y005923D01*
X002678Y005893D01*
X002682Y005863D01*
X002694Y005835D01*
X002712Y005811D01*
X002736Y005792D01*
X002764Y005781D01*
X002794Y005777D01*
X002824Y005781D01*
X002852Y005792D01*
X002876Y005811D01*
X002894Y005835D01*
X002906Y005863D01*
X002910Y005893D01*
X002906Y005923D01*
X002895Y005950D01*
X002906Y005957D01*
X002914Y005946D01*
X002935Y005930D01*
X002960Y005919D01*
X002988Y005916D01*
X003015Y005919D01*
X003040Y005930D01*
X003061Y005946D01*
X003078Y005968D01*
X003088Y005993D01*
X003092Y006020D01*
X003088Y006047D01*
X003078Y006072D01*
X003061Y006094D01*
X003040Y006110D01*
X003015Y006121D01*
X002988Y006124D01*
X002986Y006126D01*
Y006158D01*
X003330D01*
Y006195D01*
X003341D01*
X003361Y006199D01*
X003379Y006210D01*
X003518Y006350D01*
X003530Y006367D01*
X003534Y006388D01*
X003534Y006388D01*
X003534Y006388D01*
Y006388D01*
Y006696D01*
X003554Y006711D01*
X003570Y006733D01*
X003581Y006758D01*
X003584Y006785D01*
X003581Y006812D01*
X003570Y006837D01*
X003571Y006839D01*
X003651D01*
X003656Y006827D01*
X003646Y006819D01*
X003625Y006794D01*
X003610Y006765D01*
X003601Y006734D01*
X003599Y006717D01*
X003928D01*
X003926Y006734D01*
X003916Y006765D01*
X003901Y006794D01*
X003880Y006819D01*
X003855Y006839D01*
X003827Y006855D01*
X003823Y006865D01*
X003827Y006872D01*
X003831Y006892D01*
X003831Y006893D01*
X003831Y006893D01*
Y006893D01*
Y006949D01*
X004399D01*
Y006815D01*
D02*
G37*
G36*
X004125Y006109D02*
X004146Y006084D01*
X004171Y006064D01*
X004200Y006048D01*
X004231Y006039D01*
X004232Y006039D01*
X004235Y006027D01*
X004235Y006026D01*
X004217Y006002D01*
X004205Y005974D01*
X004201Y005944D01*
X004205Y005913D01*
X004213Y005892D01*
Y005768D01*
X004177D01*
Y005578D01*
Y005518D01*
X004267D01*
Y005503D01*
X004282D01*
Y005408D01*
X004357D01*
Y005434D01*
X004369Y005439D01*
X004379Y005426D01*
X004394Y005414D01*
X004395Y005402D01*
X004366Y005373D01*
X004197D01*
Y005283D01*
Y005193D01*
X004447D01*
Y005302D01*
X004490Y005346D01*
X004497Y005355D01*
X004509Y005351D01*
Y004441D01*
X004453D01*
X004432Y004437D01*
X004415Y004425D01*
X004403Y004408D01*
X004399Y004388D01*
Y003213D01*
X004399Y003212D01*
X004399D01*
X004403Y003192D01*
X004415Y003175D01*
X004432Y003163D01*
X004453Y003159D01*
X004509D01*
Y003041D01*
X004497Y003036D01*
X004493Y003040D01*
X004463Y003052D01*
X004431Y003056D01*
X004399Y003052D01*
X004369Y003040D01*
X004343Y003020D01*
X004324Y002994D01*
X004311Y002964D01*
X004307Y002933D01*
X004311Y002901D01*
X004314Y002894D01*
X004311Y002887D01*
X004307Y002855D01*
X004311Y002823D01*
X004315Y002814D01*
X004311Y002804D01*
X004307Y002773D01*
X004311Y002741D01*
X004315Y002733D01*
X004311Y002724D01*
X004307Y002693D01*
X004311Y002661D01*
X004324Y002631D01*
X004343Y002605D01*
X004359Y002593D01*
X004355Y002581D01*
X003367D01*
X003363Y002593D01*
X003378Y002605D01*
X003398Y002631D01*
X003410Y002661D01*
X003414Y002693D01*
X003410Y002724D01*
X003407Y002733D01*
X003410Y002741D01*
X003414Y002773D01*
X003410Y002804D01*
X003406Y002814D01*
X003410Y002823D01*
X003414Y002855D01*
X003410Y002887D01*
X003407Y002894D01*
X003410Y002901D01*
X003414Y002933D01*
X003410Y002964D01*
X003398Y002994D01*
X003378Y003020D01*
X003353Y003040D01*
X003323Y003052D01*
X003291Y003056D01*
X003259Y003052D01*
X003229Y003040D01*
X003203Y003020D01*
X003184Y002994D01*
X003171Y002964D01*
X003167Y002933D01*
X003171Y002901D01*
X003174Y002894D01*
X003171Y002887D01*
X003167Y002855D01*
X003171Y002823D01*
X003175Y002814D01*
X003171Y002804D01*
X003167Y002773D01*
X003171Y002741D01*
X003175Y002733D01*
X003171Y002724D01*
X003167Y002693D01*
X003171Y002661D01*
X003184Y002631D01*
X003203Y002605D01*
X003219Y002593D01*
X003215Y002581D01*
X002691D01*
Y003084D01*
X002792D01*
Y003200D01*
X002807D01*
Y003215D01*
X002923D01*
Y003317D01*
X002910D01*
Y003434D01*
X002725D01*
Y003317D01*
X002691D01*
Y003728D01*
X002687Y003748D01*
X002675Y003765D01*
X002658Y003777D01*
X002638Y003781D01*
X002581D01*
Y004676D01*
X002593Y004681D01*
X002682Y004592D01*
X002694Y004565D01*
X002712Y004541D01*
X002736Y004522D01*
X002764Y004511D01*
X002794Y004507D01*
X002824Y004511D01*
X002852Y004522D01*
X002876Y004541D01*
X002894Y004565D01*
X002906Y004593D01*
X002910Y004623D01*
X002906Y004653D01*
X002894Y004681D01*
X002899Y004689D01*
X003441D01*
X003442Y004687D01*
X003436Y004676D01*
X003312D01*
X003292Y004672D01*
X003275Y004660D01*
X002903Y004289D01*
X002891Y004291D01*
X002886Y004300D01*
X002894Y004311D01*
X002906Y004339D01*
X002908Y004354D01*
X002680D01*
X002682Y004339D01*
X002694Y004311D01*
X002712Y004287D01*
X002736Y004268D01*
X002755Y004261D01*
X002757Y004251D01*
X002748Y004241D01*
X002725Y004244D01*
X002698Y004241D01*
X002673Y004230D01*
X002651Y004214D01*
X002635Y004192D01*
X002624Y004167D01*
X002621Y004140D01*
X002624Y004113D01*
X002635Y004088D01*
X002651Y004066D01*
X002673Y004050D01*
X002698Y004039D01*
X002725Y004036D01*
X002752Y004039D01*
X002777Y004050D01*
X002799Y004066D01*
X002815Y004088D01*
X002826Y004112D01*
X002838Y004110D01*
Y003922D01*
X002994D01*
Y003597D01*
X002956D01*
Y003302D01*
X003060D01*
X003065Y003290D01*
X003033Y003258D01*
Y003142D01*
X003092Y003084D01*
X003208D01*
X003266Y003142D01*
Y003187D01*
X003316Y003238D01*
X003316Y003238D01*
X003324Y003249D01*
X003328Y003255D01*
X003331Y003271D01*
X003332Y003275D01*
Y003302D01*
X003370D01*
Y003529D01*
X003382Y003534D01*
X003389Y003527D01*
Y003431D01*
X003621D01*
Y003527D01*
X003621Y003527D01*
D01*
D01*
X003621Y003533D01*
D01*
X003625Y003536D01*
X003895D01*
X004107Y003324D01*
X004106Y003310D01*
X004109Y003283D01*
X004120Y003258D01*
X004136Y003236D01*
X004146Y003229D01*
X004146Y003215D01*
X004146D01*
Y002925D01*
X004276D01*
Y003215D01*
X004276D01*
X004276Y003230D01*
X004284Y003236D01*
X004300Y003258D01*
X004311Y003283D01*
X004314Y003310D01*
X004311Y003337D01*
X004300Y003362D01*
X004284Y003384D01*
X004262Y003400D01*
X004237Y003411D01*
X004210Y003414D01*
X004183Y003411D01*
X004176Y003408D01*
X003955Y003628D01*
X003938Y003640D01*
X003917Y003644D01*
X003581D01*
X003576Y003655D01*
X003621Y003701D01*
Y003817D01*
X003601Y003838D01*
X003594Y003848D01*
X003584Y003855D01*
X003563Y003875D01*
X003470D01*
X003258Y004088D01*
Y004182D01*
X003419Y004343D01*
X003431Y004338D01*
Y004250D01*
X003669D01*
Y004140D01*
X003431D01*
Y003935D01*
X003681D01*
Y003983D01*
X003737D01*
X003758Y003988D01*
X003775Y003999D01*
X003797Y004021D01*
X003809Y004039D01*
X003813Y004059D01*
Y004087D01*
X003849D01*
Y004257D01*
Y004337D01*
X003759D01*
Y004367D01*
X003849D01*
Y004439D01*
X003852Y004445D01*
X003860Y004450D01*
X003869Y004446D01*
X003872Y004428D01*
X003882Y004403D01*
X003899Y004381D01*
X003920Y004365D01*
X003945Y004354D01*
X003972Y004351D01*
X004000Y004354D01*
X004025Y004365D01*
X004046Y004381D01*
X004059Y004398D01*
X004072D01*
X004081Y004386D01*
X004103Y004370D01*
X004128Y004359D01*
X004155Y004356D01*
X004182Y004359D01*
X004207Y004370D01*
X004229Y004386D01*
X004245Y004408D01*
X004256Y004433D01*
X004259Y004460D01*
X004256Y004483D01*
X004267Y004489D01*
X004270Y004487D01*
X004295Y004477D01*
X004322Y004473D01*
X004350Y004477D01*
X004375Y004487D01*
X004396Y004504D01*
X004413Y004525D01*
X004423Y004550D01*
X004427Y004578D01*
X004423Y004605D01*
X004413Y004630D01*
X004396Y004651D01*
X004375Y004668D01*
X004350Y004678D01*
X004322Y004682D01*
X004297Y004679D01*
X003982Y004994D01*
X003964Y005006D01*
X003944Y005010D01*
X003501D01*
X003439Y005072D01*
Y005515D01*
X003435Y005536D01*
X003423Y005553D01*
X003245Y005730D01*
X003228Y005742D01*
X003208Y005746D01*
X003209Y005759D01*
X003685D01*
X003706Y005763D01*
X003723Y005775D01*
X003919Y005971D01*
X003931Y005965D01*
X003928Y005946D01*
X003932Y005916D01*
X003944Y005887D01*
X003963Y005863D01*
X003987Y005845D01*
X004010Y005835D01*
Y005768D01*
X003974D01*
Y005578D01*
Y005518D01*
X004154D01*
Y005578D01*
Y005768D01*
X004118D01*
Y005855D01*
X004128Y005863D01*
X004147Y005887D01*
X004159Y005916D01*
X004163Y005946D01*
X004159Y005976D01*
X004147Y006005D01*
X004128Y006029D01*
X004104Y006048D01*
X004085Y006056D01*
X004084Y006064D01*
X004100Y006085D01*
X004111Y006110D01*
X004111Y006111D01*
X004123Y006113D01*
X004125Y006109D01*
D02*
G37*
%LPC*%
G36*
X004022Y004068D02*
X003985Y004065D01*
X003949Y004054D01*
X003916Y004036D01*
X003888Y004012D01*
X003864Y003984D01*
X003846Y003951D01*
X003835Y003915D01*
X003832Y003878D01*
X003835Y003840D01*
X003846Y003804D01*
X003864Y003771D01*
X003888Y003742D01*
X003916Y003719D01*
X003949Y003701D01*
X003985Y003690D01*
X004022Y003687D01*
X004060Y003690D01*
X004096Y003701D01*
X004129Y003719D01*
X004158Y003742D01*
X004181Y003771D01*
X004199Y003804D01*
X004210Y003840D01*
X004213Y003878D01*
X004210Y003915D01*
X004199Y003951D01*
X004181Y003984D01*
X004158Y004012D01*
X004129Y004036D01*
X004096Y004054D01*
X004060Y004065D01*
X004022Y004068D01*
D02*
G37*
G36*
X002910Y003597D02*
X002833D01*
Y003464D01*
X002910D01*
Y003597D01*
D02*
G37*
G36*
X002803D02*
X002725D01*
Y003464D01*
X002803D01*
Y003597D01*
D02*
G37*
G36*
X002779Y004483D02*
X002764Y004481D01*
X002736Y004469D01*
X002712Y004451D01*
X002694Y004427D01*
X002682Y004399D01*
X002680Y004384D01*
X002779D01*
Y004483D01*
D02*
G37*
G36*
X002809D02*
Y004384D01*
X002908D01*
X002906Y004399D01*
X002894Y004427D01*
X002876Y004451D01*
X002852Y004469D01*
X002824Y004481D01*
X002809Y004483D01*
D02*
G37*
G36*
X004167Y005268D02*
X004087D01*
Y005193D01*
X004167D01*
Y005268D01*
D02*
G37*
G36*
X003621Y003401D02*
X003520D01*
Y003300D01*
X003621D01*
Y003401D01*
D02*
G37*
G36*
X003953Y003399D02*
X003925Y003396D01*
X003900Y003385D01*
X003879Y003369D01*
X003862Y003347D01*
X003852Y003322D01*
X003848Y003295D01*
X003852Y003268D01*
X003862Y003243D01*
X003879Y003221D01*
X003896Y003208D01*
Y003028D01*
X003884Y003023D01*
X003826Y003081D01*
Y003215D01*
X003696D01*
Y002925D01*
X003809D01*
Y002890D01*
X003803Y002888D01*
X003781Y002871D01*
X003765Y002850D01*
X003761Y002842D01*
X003748Y002840D01*
X003736Y002868D01*
X003718Y002892D01*
X003694Y002910D01*
X003666Y002922D01*
X003636Y002926D01*
X003606Y002922D01*
X003578Y002910D01*
X003554Y002892D01*
X003535Y002868D01*
X003524Y002840D01*
X003520Y002810D01*
X003524Y002780D01*
X003535Y002752D01*
X003554Y002728D01*
X003578Y002710D01*
X003606Y002698D01*
X003636Y002694D01*
X003666Y002698D01*
X003694Y002710D01*
X003718Y002728D01*
X003736Y002752D01*
X003743Y002768D01*
X003755D01*
X003765Y002745D01*
X003781Y002724D01*
X003803Y002707D01*
X003828Y002697D01*
X003855Y002693D01*
X003882Y002697D01*
X003907Y002707D01*
X003929Y002724D01*
X003945Y002745D01*
X003956Y002770D01*
X003959Y002795D01*
X003972D01*
X003974Y002780D01*
X003985Y002752D01*
X004004Y002728D01*
X004028Y002710D01*
X004056Y002698D01*
X004086Y002694D01*
X004116Y002698D01*
X004144Y002710D01*
X004168Y002728D01*
X004186Y002752D01*
X004198Y002780D01*
X004202Y002810D01*
X004198Y002840D01*
X004186Y002868D01*
X004168Y002892D01*
X004144Y002910D01*
X004116Y002922D01*
X004086Y002926D01*
X004056Y002922D01*
X004028Y002910D01*
X004004Y002892D01*
X003985Y002868D01*
X003974Y002840D01*
X003970Y002812D01*
X003957D01*
X003956Y002825D01*
X003945Y002850D01*
X003929Y002871D01*
X003916Y002881D01*
Y002925D01*
X004026D01*
Y003215D01*
X004026Y003215D01*
X004026D01*
X004024Y003220D01*
X004026Y003221D01*
X004043Y003243D01*
X004053Y003268D01*
X004057Y003295D01*
X004053Y003322D01*
X004043Y003347D01*
X004026Y003369D01*
X004005Y003385D01*
X003980Y003396D01*
X003953Y003399D01*
D02*
G37*
G36*
X003576Y003055D02*
X003526D01*
Y002925D01*
X003576D01*
Y003055D01*
D02*
G37*
G36*
X003496D02*
X003446D01*
Y002925D01*
X003496D01*
Y003055D01*
D02*
G37*
G36*
X002923Y003185D02*
X002822D01*
Y003084D01*
X002923D01*
Y003185D01*
D02*
G37*
G36*
X003490Y003401D02*
X003389D01*
Y003300D01*
X003490D01*
Y003401D01*
D02*
G37*
G36*
X003576Y003215D02*
X003526D01*
Y003085D01*
X003576D01*
Y003215D01*
D02*
G37*
G36*
X003496D02*
X003446D01*
Y003085D01*
X003496D01*
Y003215D01*
D02*
G37*
G36*
X004167Y005373D02*
X004087D01*
Y005298D01*
X004167D01*
Y005373D01*
D02*
G37*
G36*
X004248Y006687D02*
X004099D01*
X004101Y006669D01*
X004110Y006638D01*
X004125Y006609D01*
X004146Y006584D01*
X004171Y006564D01*
X004200Y006548D01*
X004231Y006539D01*
X004248Y006537D01*
Y006687D01*
D02*
G37*
G36*
X003928D02*
X003778D01*
Y006537D01*
X003796Y006539D01*
X003827Y006548D01*
X003855Y006564D01*
X003880Y006584D01*
X003901Y006609D01*
X003916Y006638D01*
X003926Y006669D01*
X003928Y006687D01*
D02*
G37*
G36*
X003748D02*
X003599D01*
X003601Y006669D01*
X003610Y006638D01*
X003625Y006609D01*
X003646Y006584D01*
X003671Y006564D01*
X003700Y006548D01*
X003731Y006539D01*
X003748Y006537D01*
Y006687D01*
D02*
G37*
G36*
X003326Y006738D02*
X003158D01*
Y006571D01*
X003326D01*
Y006738D01*
D02*
G37*
G36*
Y006932D02*
X003158D01*
Y006765D01*
X003326D01*
Y006932D01*
D02*
G37*
G36*
X003132D02*
X002965D01*
Y006765D01*
X003132D01*
Y006932D01*
D02*
G37*
G36*
X004248Y006866D02*
X004231Y006864D01*
X004200Y006855D01*
X004171Y006839D01*
X004146Y006819D01*
X004125Y006794D01*
X004110Y006765D01*
X004101Y006734D01*
X004099Y006717D01*
X004248D01*
Y006866D01*
D02*
G37*
G36*
X004252Y005488D02*
X004177D01*
Y005408D01*
X004252D01*
Y005488D01*
D02*
G37*
G36*
X004154D02*
X004079D01*
Y005408D01*
X004154D01*
Y005488D01*
D02*
G37*
G36*
X004049D02*
X003974D01*
Y005408D01*
X004049D01*
Y005488D01*
D02*
G37*
G36*
X003748Y006187D02*
X003599D01*
X003601Y006169D01*
X003610Y006138D01*
X003625Y006109D01*
X003646Y006084D01*
X003671Y006064D01*
X003700Y006048D01*
X003731Y006039D01*
X003748Y006037D01*
Y006187D01*
D02*
G37*
G36*
X004013Y006617D02*
X003981Y006614D01*
X003950Y006605D01*
X003921Y006589D01*
X003896Y006569D01*
X003875Y006544D01*
X003860Y006515D01*
X003851Y006484D01*
X003847Y006452D01*
X003851Y006419D01*
X003860Y006388D01*
X003875Y006359D01*
X003896Y006334D01*
X003921Y006314D01*
X003950Y006298D01*
X003981Y006289D01*
X004013Y006286D01*
X004046Y006289D01*
X004077Y006298D01*
X004105Y006314D01*
X004130Y006334D01*
X004151Y006359D01*
X004166Y006388D01*
X004176Y006419D01*
X004179Y006452D01*
X004176Y006484D01*
X004166Y006515D01*
X004151Y006544D01*
X004130Y006569D01*
X004105Y006589D01*
X004077Y006605D01*
X004046Y006614D01*
X004013Y006617D01*
D02*
G37*
G36*
X004248Y006366D02*
X004231Y006364D01*
X004200Y006355D01*
X004171Y006339D01*
X004146Y006319D01*
X004125Y006294D01*
X004110Y006265D01*
X004101Y006234D01*
X004099Y006217D01*
X004248D01*
Y006366D01*
D02*
G37*
G36*
X003748D02*
X003731Y006364D01*
X003700Y006355D01*
X003671Y006339D01*
X003646Y006319D01*
X003625Y006294D01*
X003610Y006265D01*
X003601Y006234D01*
X003599Y006217D01*
X003748D01*
Y006366D01*
D02*
G37*
%LPD*%
D10*
X004352Y005283D02*
D03*
X004182D02*
D03*
X003235Y006248D02*
D03*
X003065D02*
D03*
D11*
X003048Y006655D02*
D03*
Y006849D02*
D03*
X003242D02*
D03*
Y006655D02*
D03*
D12*
X003759Y004182D02*
D03*
Y004352D02*
D03*
X004064Y005503D02*
D03*
X004267D02*
D03*
Y005673D02*
D03*
X004064D02*
D03*
D13*
X003048Y004069D02*
D03*
D14*
X003048Y003449D02*
D03*
X003278D02*
D03*
D15*
X002818Y003449D02*
D03*
D16*
X003556Y004037D02*
D03*
Y004352D02*
D03*
D17*
X002807Y003200D02*
D03*
D18*
X003150Y003200D02*
D03*
D19*
X003505Y003416D02*
D03*
D20*
X003505Y003759D02*
D03*
D21*
X003511Y003070D02*
D03*
X003761D02*
D03*
X003961D02*
D03*
X004211D02*
D03*
D22*
X002790Y002865D02*
X002995Y003070D01*
X003511D01*
X003500Y003081D02*
Y003470D01*
X003761Y003070D02*
X003862Y002968D01*
Y002805D01*
X003855Y002798D01*
X004211Y003070D02*
Y003310D01*
X004204Y003304D02*
X003917Y003590D01*
X003345D01*
X003278Y003523D01*
Y003449D01*
Y003275D01*
X003176Y003174D01*
X003048Y003447D02*
Y004072D01*
X003197D01*
X003460Y003810D01*
X003556D01*
Y004037D02*
X003737D01*
X003759Y004059D01*
Y004182D01*
X003975Y004162D02*
X004095D01*
X004490Y004558D01*
Y004762D01*
X004165Y005088D01*
Y005489D01*
X004253D01*
X004165D02*
Y006040D01*
X004263Y006138D01*
Y006202D01*
X004267Y005893D02*
X004318Y005944D01*
X004398Y005814D02*
X004398Y005814D01*
X004453Y005500D02*
Y005384D01*
X004352Y005283D01*
X004165Y005489D02*
X004078D01*
X004064Y005673D02*
Y005928D01*
X004046Y005946D01*
X004267Y005673D02*
Y005893D01*
X004010Y006138D02*
X003685Y005812D01*
X002988D01*
X002814Y005639D01*
X002794D01*
X002995Y005630D02*
X003058Y005692D01*
X003208D01*
X003385Y005515D01*
Y005050D01*
X003479Y004956D01*
X003944D01*
X004322Y004578D01*
X004155Y004655D02*
X003907Y004903D01*
X003442D01*
X003310Y005035D01*
Y005150D01*
X003255Y005205D01*
X003042D01*
X002968Y005131D01*
X002794D01*
X002912Y005262D02*
X003005Y005355D01*
X003212D01*
X002995Y005630D02*
Y005560D01*
X002820Y005385D01*
X002794D01*
X002912Y005262D02*
X002700D01*
X002630Y005192D01*
Y004720D01*
X002727Y004623D01*
X002745Y004652D01*
X002799Y004743D01*
X003630D01*
X003767Y004605D01*
Y004614D01*
Y004605D02*
X003654D01*
X003575Y004526D01*
X003526D01*
X003084Y004084D01*
X003036D01*
X002925Y004235D02*
X003312Y004622D01*
X003535D01*
X003556Y004392D02*
X003662Y004499D01*
X003833D01*
X003938Y004603D01*
X004008Y004455D02*
X004070Y004517D01*
Y004655D01*
X003875Y004850D01*
X002821D01*
X002794Y004877D01*
X002786Y004369D02*
X002794D01*
X002820Y004235D02*
X002925D01*
X002820D02*
X002725Y004140D01*
X002627Y004210D02*
X002786Y004369D01*
X002627Y004210D02*
Y003945D01*
X002818Y003755D01*
Y003449D01*
Y003150D01*
X002790Y003135D02*
Y002865D01*
X003953Y003078D02*
Y003295D01*
X003975Y004162D02*
Y004247D01*
X003870Y004352D01*
X003759D01*
X004155Y004510D02*
Y004655D01*
X002988Y006020D02*
X002933Y006075D01*
Y006516D01*
X002794Y006655D01*
X003048D02*
X003065Y006638D01*
Y006248D01*
X003235D02*
X003341D01*
X003480Y006388D01*
Y006785D01*
D23*
X003636Y002810D02*
D03*
X004086D02*
D03*
X002794Y004369D02*
D03*
Y004623D02*
D03*
Y004877D02*
D03*
Y005131D02*
D03*
Y005385D02*
D03*
Y005639D02*
D03*
Y005893D02*
D03*
Y006147D02*
D03*
Y006401D02*
D03*
D24*
X002794Y006655D02*
D03*
D25*
X004263Y006202D02*
D03*
X004013Y006452D02*
D03*
X004263Y006702D02*
D03*
X003763D02*
D03*
Y006202D02*
D03*
D26*
X004318Y005944D02*
D03*
X004046Y005946D02*
D03*
D27*
X003150Y005527D02*
D03*
D28*
X003150Y005039D02*
D03*
D29*
X004022Y003878D02*
D03*
D30*
X003291Y002693D02*
D03*
Y002773D02*
D03*
Y002855D02*
D03*
Y002933D02*
D03*
X004431Y002773D02*
D03*
Y002693D02*
D03*
Y002855D02*
D03*
Y002933D02*
D03*
D31*
X002790Y002865D02*
D03*
X003855Y002798D02*
D03*
X003953Y003295D02*
D03*
X004210Y003310D02*
D03*
X004155Y004460D02*
D03*
X004322Y004578D02*
D03*
X003845Y005325D02*
D03*
X003767Y004605D02*
D03*
X003972Y004455D02*
D03*
X003938Y004603D02*
D03*
X003535Y004622D02*
D03*
X003212Y005360D02*
D03*
X002988Y006020D02*
D03*
X003480Y006785D02*
D03*
X004010Y006138D02*
D03*
X004453Y005500D02*
D03*
X002725Y004140D02*
D03*
M02*
