%FSAX42Y42*%
%MOMM*%
G71*
G01*
G75*
G04 Layer_Color=32896*
%ADD10R,1.10X1.00*%
%ADD11R,0.87X0.87*%
%ADD12R,1.00X1.10*%
%ADD13R,3.40X2.15*%
%ADD14R,1.05X2.15*%
%ADD15R,1.05X2.15*%
%ADD16R,0.50X2.10*%
%ADD17R,1.70X1.25*%
%ADD18R,1.25X1.70*%
%ADD19C,0.25*%
%ADD20C,2.50*%
%ADD21R,1.50X1.50*%
%ADD22C,1.50*%
%ADD23C,1.52*%
%ADD24C,1.20*%
%ADD25O,1.65X4.00*%
%ADD26C,1.40*%
%ADD27P,1.52X8X112.5*%
%ADD28C,3.00*%
%ADD29C,1.27*%
%ADD30O,0.80X0.28*%
%ADD31O,0.28X0.80*%
%ADD32R,7.65X7.65*%
%ADD33O,0.40X2.10*%
%ADD34R,0.80X0.35*%
%ADD35C,0.20*%
%ADD36C,0.25*%
%ADD37C,0.60*%
D19*
X002843Y003740D02*
X002741Y003842D01*
Y003867D01*
X002766Y003892D01*
X002817D01*
X002843Y003867D01*
X002893Y003892D02*
Y003765D01*
X002919Y003740D01*
X002970D01*
X002995Y003765D01*
Y003892D01*
X002843Y003740D02*
X002741D01*
X003133Y004359D02*
X003158Y004334D01*
X003183D01*
X003209Y004359D01*
Y004384D01*
Y004359D01*
X003234Y004334D01*
X003260D01*
X003285Y004359D01*
Y004410D01*
X003260Y004435D01*
X003285Y004486D02*
X003234Y004537D01*
Y004511D02*
Y004588D01*
X003285D02*
X003133D01*
Y004511D01*
X003158Y004486D01*
X003209D01*
X003234Y004511D01*
X003158Y004435D02*
X003133Y004410D01*
Y004359D01*
X002958Y004649D02*
X002932Y004623D01*
X002958Y004649D02*
Y004700D01*
X002932Y004725D01*
X002831D01*
X002805Y004700D01*
Y004649D01*
X002831Y004623D01*
X002881Y004573D02*
Y004471D01*
X002958Y004496D02*
X002805D01*
X002881Y004573D01*
X003065Y004917D02*
Y005070D01*
X003090Y005044D01*
X003141D02*
Y004994D01*
X003166Y004968D01*
X003242D01*
Y004917D02*
Y005070D01*
X003166D01*
X003141Y005044D01*
Y004917D02*
X003192Y004968D01*
X003090Y004917D02*
X003039D01*
X003065D01*
X003033Y005382D02*
X003007Y005357D01*
X002957D01*
X002931Y005382D01*
X002880Y005357D02*
X002830D01*
X002855D01*
Y005509D01*
X002880Y005484D01*
X002931D02*
X002957Y005509D01*
X003007D01*
X003033Y005484D01*
Y005382D01*
Y005738D02*
X003007Y005712D01*
X002957D01*
X002931Y005738D01*
X002880Y005712D02*
X002830D01*
X002855D01*
Y005865D01*
X002880Y005839D01*
X002931D02*
X002957Y005865D01*
X003007D01*
X003033Y005839D01*
Y005738D01*
X003071Y005954D02*
Y005979D01*
X003046Y006005D01*
X003071Y006030D01*
Y006055D01*
X003046Y006081D01*
X002995D01*
X002969Y006055D01*
Y006030D01*
X002995Y006005D01*
X002969Y005979D01*
Y005954D01*
X002995Y005928D01*
X003046D01*
X003071Y005954D01*
X003122D02*
X003147Y005928D01*
X003198D01*
X003223Y005954D01*
Y006055D01*
X003198Y006081D01*
X003147D01*
X003122Y006055D01*
X003116Y006081D02*
X003217D01*
X003242Y006107D01*
Y006157D01*
X003217Y006183D01*
X003116D01*
X003090Y006157D01*
Y006107D01*
X003116Y006081D01*
X003147Y006081D02*
X003122Y006106D01*
X003071D02*
X003046Y006081D01*
X002995D01*
X002969Y006106D01*
Y006132D01*
X002995Y006157D01*
X003071D01*
Y006106D01*
Y006157D02*
X003020Y006208D01*
X002969Y006233D01*
X002995Y006005D02*
X003046D01*
X003147Y006081D02*
X003198D01*
X003223Y006106D01*
Y006208D01*
X003198Y006233D01*
X003147D01*
X003122Y006208D01*
X003116Y006234D02*
X003090Y006259D01*
Y006310D01*
X003116Y006335D01*
Y006234D02*
X003141D01*
X003242Y006335D01*
Y006234D01*
X003400Y006083D02*
X003375Y006108D01*
Y006210D01*
X003400Y006235D01*
X003451D01*
X003477Y006210D01*
X003527Y006235D02*
X003578D01*
X003553D01*
Y006083D01*
X003527Y006108D01*
X003477D02*
X003451Y006083D01*
X003400D01*
X003680D02*
X003654Y006108D01*
Y006133D01*
X003680Y006159D01*
X003756D01*
Y006210D02*
Y006108D01*
X003730Y006083D01*
X003680D01*
X003654Y006210D02*
X003680Y006235D01*
X003730D01*
X003756Y006210D01*
X004173Y006022D02*
X004199Y005996D01*
X004173Y006022D02*
Y005869D01*
X004148D01*
X004199D01*
X004275D02*
X004249Y005895D01*
Y006022D01*
X004275Y005869D02*
X004326D01*
X004351Y005895D01*
Y006022D01*
X003450Y006702D02*
X003450D01*
X003425Y006700D02*
X003349D01*
X003323Y006725D01*
Y006751D01*
X003349Y006776D01*
X003425D01*
X003349D01*
X003323Y006802D01*
Y006827D01*
X003349Y006852D01*
X003425D01*
Y006700D01*
X003273D02*
Y006802D01*
X003222Y006852D01*
X003171Y006802D01*
Y006700D01*
Y006776D01*
X003273D01*
X003120Y006852D02*
Y006700D01*
X003019D01*
X002968D02*
X002917D01*
X002943D01*
Y006852D01*
X002968Y006827D01*
X003090Y006462D02*
X003116Y006488D01*
X003217D01*
X003242Y006462D01*
Y006411D01*
X003217Y006386D01*
X003116D02*
X003090Y006411D01*
Y006462D01*
X002728Y005865D02*
X002753Y005839D01*
Y005712D02*
X002703D01*
X002728D01*
Y005865D01*
Y005509D02*
X002753Y005484D01*
X002728Y005509D02*
X002677D01*
X002652Y005484D01*
Y005458D01*
X002753Y005357D01*
X002652D01*
X004045Y004000D02*
X004071Y004025D01*
X004172D01*
X004197Y004000D01*
Y003949D01*
X004172Y003923D01*
X004197Y003873D02*
Y003822D01*
Y003847D01*
X004045D01*
X004071Y003873D01*
Y003923D02*
X004045Y003949D01*
Y004000D01*
Y003720D02*
Y003670D01*
X004071Y003644D01*
X004096D01*
X004121Y003670D01*
Y003695D01*
Y003670D01*
X004147Y003644D01*
X004172D01*
X004197Y003670D01*
Y003720D01*
X004172Y003746D01*
X004071D02*
X004045Y003720D01*
X004265Y003772D02*
X004240Y003798D01*
Y003849D01*
X004265Y003874D01*
Y003925D02*
X004240Y003950D01*
Y004001D01*
X004265Y004026D01*
X004367D01*
X004392Y004001D01*
Y003950D01*
X004367Y003925D01*
X004342D01*
X004316Y003950D01*
Y004026D01*
X004265Y003772D02*
X004367D01*
X004392Y003798D01*
Y003849D01*
X004367Y003874D01*
D35*
X003781Y003712D02*
Y004112D01*
X002721D01*
Y003712D01*
X003781D01*
X004337Y004805D02*
Y004884D01*
Y004805D02*
X004258D01*
X003378Y004884D02*
Y004805D01*
X003456D01*
X004337Y005686D02*
Y005765D01*
X004258D01*
X003456D02*
X003408D01*
X003378Y005735D01*
Y005686D01*
D36*
X002764Y004257D02*
G03*
X002764Y004257I-000012J000000D01*
G01*
D37*
X002851Y004012D02*
G03*
X002851Y004012I-000030J000000D01*
G01*
M02*
