%FSAX42Y42*%
%MOMM*%
G71*
G01*
G75*
%ADD10R,0.50X2.10*%
%ADD11P,1.65X8X292.5*%
%ADD12R,1.52X1.52*%
%ADD13P,1.65X8X202.5*%
%ADD14R,1.52X1.52*%
%ADD15R,1.70X1.25*%
%ADD16R,1.05X2.15*%
%ADD17R,1.05X2.15*%
%ADD18R,3.40X2.15*%
%ADD19R,1.00X1.10*%
%ADD20R,1.10X1.00*%
%ADD21R,0.87X0.87*%
%ADD22C,0.25*%
%ADD23C,1.50*%
%ADD24C,1.65*%
%ADD25C,3.00*%
%ADD26P,1.52X8X112.5*%
%ADD27C,1.40*%
%ADD28C,1.52*%
%ADD29R,1.50X1.50*%
%ADD30C,2.50*%
%ADD31C,1.27*%
%ADD32R,0.80X0.35*%
%ADD33O,0.40X2.10*%
%ADD34O,0.28X0.80*%
%ADD35O,0.80X0.28*%
%ADD36R,7.65X7.65*%
D10*
X003511Y003070D02*
D03*
X003761D02*
D03*
X003961D02*
D03*
X004211D02*
D03*
D11*
X003500Y003812D02*
D03*
D12*
X003500Y003470D02*
D03*
D13*
X003112Y003265D02*
D03*
D14*
X002769Y003265D02*
D03*
D15*
X003556Y004037D02*
D03*
Y004352D02*
D03*
D16*
X002818Y003602D02*
D03*
D17*
X003048Y003602D02*
D03*
X003278D02*
D03*
D18*
X003048Y004222D02*
D03*
D19*
X003759Y004182D02*
D03*
Y004352D02*
D03*
X004064Y005503D02*
D03*
X004267D02*
D03*
Y005673D02*
D03*
X004064D02*
D03*
D20*
X004352Y005283D02*
D03*
X004182D02*
D03*
X003235Y006452D02*
D03*
X003065D02*
D03*
D21*
X003048Y006655D02*
D03*
X003242D02*
D03*
Y006849D02*
D03*
X003048D02*
D03*
D23*
X003636Y002810D02*
D03*
X004086D02*
D03*
X002794Y004623D02*
D03*
Y004877D02*
D03*
Y005131D02*
D03*
Y005385D02*
D03*
Y005639D02*
D03*
Y005893D02*
D03*
Y006147D02*
D03*
Y006401D02*
D03*
D24*
X003291Y002693D02*
D03*
Y002773D02*
D03*
Y002855D02*
D03*
Y002933D02*
D03*
X004431Y002773D02*
D03*
Y002693D02*
D03*
Y002855D02*
D03*
Y002933D02*
D03*
D25*
X004022Y003878D02*
D03*
D26*
X003150Y005090D02*
D03*
D27*
X003150Y005578D02*
D03*
D28*
X004318Y005944D02*
D03*
X004046Y005946D02*
D03*
D29*
X002794Y006655D02*
D03*
D30*
X004263Y006202D02*
D03*
X004013Y006452D02*
D03*
X004263Y006702D02*
D03*
X003763D02*
D03*
Y006202D02*
D03*
M02*
