%FSAX42Y42*%
%MOMM*%
G71*
G01*
G75*
%ADD10R,0.87X0.87*%
%ADD11R,1.10X1.00*%
%ADD12R,1.00X1.10*%
%ADD13R,3.40X2.15*%
%ADD14R,1.05X2.15*%
%ADD15R,1.05X2.15*%
%ADD16R,0.50X2.10*%
%ADD17R,1.70X1.25*%
%ADD18R,1.25X1.70*%
%ADD19C,0.25*%
%ADD20C,2.50*%
%ADD21R,1.50X1.50*%
%ADD22C,1.50*%
%ADD23C,1.52*%
%ADD24C,1.20*%
%ADD25O,1.65X4.00*%
%ADD26C,1.40*%
%ADD27P,1.52X8X112.5*%
%ADD28C,3.00*%
%ADD29C,1.27*%
%ADD30O,0.40X2.10*%
%ADD31R,0.80X0.35*%
%ADD32O,0.80X0.28*%
%ADD33O,0.28X0.80*%
%ADD34R,7.65X7.65*%
%ADD35C,0.20*%
%ADD36C,0.25*%
D19*
X002799Y002973D02*
X002824Y002998D01*
X002799Y002973D02*
X002748D01*
X002723Y002998D01*
Y003099D01*
X002748Y003125D01*
X002799D01*
X002824Y003099D01*
X002875D02*
X002900Y003125D01*
Y002973D01*
X002926D01*
X002875D01*
X003002D02*
Y002998D01*
X003103Y003099D01*
Y003125D01*
X003002D01*
X003739Y002747D02*
X003815D01*
X003841Y002722D01*
Y002671D01*
X003815Y002646D01*
X003739D01*
Y002595D02*
Y002747D01*
X003917D02*
X003891Y002722D01*
X003917Y002747D02*
Y002595D01*
X003942D01*
X003891D01*
X003825Y003433D02*
Y003484D01*
X003800Y003509D01*
X003698D02*
X003673Y003484D01*
Y003433D01*
X003698Y003408D01*
X003800D01*
X003825Y003433D01*
Y003560D02*
Y003611D01*
Y003585D01*
X003673D01*
X003698Y003560D01*
Y003687D02*
X003673Y003712D01*
Y003763D01*
X003698Y003788D01*
X003723D01*
X003749Y003763D01*
X003774Y003788D01*
X003800D01*
X003825Y003763D01*
Y003712D01*
X003800Y003687D01*
X003774D01*
X003749Y003712D01*
X003723Y003687D01*
X003698D01*
X003749Y003712D02*
Y003763D01*
X003828Y003842D02*
X003675D01*
Y003919D01*
X003701Y003944D01*
X003751D01*
X003777Y003919D01*
Y003842D01*
Y003893D02*
X003828Y003944D01*
Y004071D02*
X003675D01*
X003751Y003995D01*
Y004096D01*
X003628Y004085D02*
X003475D01*
X003501Y004060D01*
Y004009D02*
X003475Y003984D01*
Y003908D01*
X003628D01*
Y003984D01*
X003602Y004009D01*
X003501D01*
X003628Y004060D02*
Y004111D01*
Y004085D01*
X003178Y003987D02*
X003152Y003962D01*
X003178Y003987D02*
Y003835D01*
X003203D01*
X003152D01*
X003101D02*
Y003987D01*
X003051Y003937D01*
X003000Y003987D01*
Y003835D01*
X002949D02*
X002848D01*
Y003987D01*
X004353Y005500D02*
X004378Y005475D01*
X004480D01*
X004505Y005500D01*
Y005551D01*
X004480Y005577D01*
X004378D02*
X004353Y005551D01*
Y005500D01*
Y005627D02*
Y005729D01*
X004378D01*
X004480Y005627D01*
X004505D01*
X004188Y006109D02*
X004163D01*
Y006261D01*
X004138Y006236D01*
X004087D02*
Y006261D01*
Y006236D02*
X004036Y006185D01*
Y006109D01*
Y006185D02*
X003985Y006236D01*
Y006261D01*
X003942Y006055D02*
X003917Y006029D01*
X003942Y006055D02*
Y005903D01*
X003968D01*
X003917D01*
X003815D02*
Y006055D01*
X003866D01*
X003765D01*
X003714D02*
Y005903D01*
X003612Y006055D01*
Y005903D01*
X003562D02*
Y005979D01*
X003460D01*
Y006004D02*
X003511Y006055D01*
X003562Y006004D01*
Y005903D01*
X003808Y005714D02*
Y005612D01*
X003884D01*
X003858Y005663D01*
Y005689D01*
X003884Y005714D01*
X003935D01*
X003960Y005689D01*
Y005638D01*
X003935Y005612D01*
Y005562D02*
X003960Y005536D01*
Y005485D01*
X003935Y005460D01*
X003833D01*
X003808Y005485D01*
Y005536D01*
X003833Y005562D01*
X003460Y005903D02*
Y006004D01*
X003236Y006116D02*
X003210Y006142D01*
X003160D01*
X003134Y006116D01*
X003084D02*
Y006142D01*
Y006116D02*
X003033Y006065D01*
Y005989D01*
Y006065D02*
X002982Y006116D01*
Y006142D01*
X002992Y006208D02*
Y006360D01*
X003069D01*
X003094Y006334D01*
Y006284D01*
X003069Y006258D01*
X002992D01*
X003043D02*
X003094Y006208D01*
X003145D02*
X003246Y006309D01*
Y006334D01*
X003221Y006360D01*
X003170D01*
X003145Y006334D01*
Y006208D02*
X003246D01*
X003236Y006116D02*
Y006091D01*
X003134Y005989D01*
X003236D01*
X003571Y006512D02*
X003545D01*
Y006665D01*
X003520Y006639D01*
X003469Y006665D02*
X003367D01*
Y006512D01*
X003469D01*
X003520D02*
X003571D01*
X003418Y006589D02*
X003367D01*
X002924Y006917D02*
Y006942D01*
X002899Y006967D01*
X002848D01*
X002822Y006942D01*
X002924Y006917D02*
X002822Y006815D01*
X002924D01*
X002772Y006891D02*
X002746Y006866D01*
X002670D01*
Y006967D02*
X002746D01*
X002772Y006942D01*
Y006891D01*
X002670Y006967D02*
Y006815D01*
X004138Y006109D02*
X004188D01*
D35*
X003261Y001020D02*
Y002573D01*
X003413Y002910D02*
X003578D01*
X003693D02*
X004029D01*
X004144D02*
X004308D01*
X004461Y002573D02*
Y001020D01*
X003261D01*
X003383Y003749D02*
Y004074D01*
X002713D01*
Y003749D01*
X003383D01*
X002921Y004496D02*
Y006782D01*
X002667D01*
Y004496D01*
X002921D01*
X002965Y004764D02*
X003435D01*
Y005904D01*
X002965D01*
Y004764D01*
X004113Y006137D02*
X003913D01*
X004193Y006452D02*
G03*
X004193Y006452I-000180J000000D01*
G01*
X004328Y006352D02*
Y006552D01*
X004113Y006767D02*
X003913D01*
X003698Y006552D02*
Y006352D01*
D36*
X002831Y003439D02*
G03*
X002831Y003439I-000012J000000D01*
G01*
X004223Y003230D02*
G03*
X004223Y003230I-000012J000000D01*
G01*
M02*
