%FSAX42Y42*%
%MOMM*%
G71*
G01*
G75*
%ADD10R,1.10X1.00*%
%ADD11R,0.87X0.87*%
%ADD12R,1.00X1.10*%
%ADD13R,3.40X2.15*%
%ADD14R,1.05X2.15*%
%ADD15R,1.05X2.15*%
%ADD16R,0.50X2.10*%
%ADD17R,1.70X1.25*%
%ADD18R,1.25X1.70*%
%ADD19C,0.25*%
%ADD20C,2.50*%
%ADD21R,1.50X1.50*%
%ADD22C,1.50*%
%ADD23C,1.52*%
%ADD24C,1.20*%
%ADD25O,1.65X4.00*%
%ADD26C,1.40*%
%ADD27P,1.52X8X112.5*%
%ADD28C,3.00*%
%ADD29C,1.27*%
%ADD30O,0.80X0.28*%
%ADD31O,0.28X0.80*%
%ADD32R,7.65X7.65*%
%ADD33O,0.40X2.10*%
%ADD34R,0.80X0.35*%
D10*
X004352Y005283D02*
D03*
X004182D02*
D03*
X003235Y006452D02*
D03*
X003065D02*
D03*
D11*
X003048Y006655D02*
D03*
Y006849D02*
D03*
X003242D02*
D03*
Y006655D02*
D03*
D12*
X003556Y004182D02*
D03*
X003759D02*
D03*
Y004352D02*
D03*
X003556D02*
D03*
X004064Y005503D02*
D03*
X004267D02*
D03*
Y005673D02*
D03*
X004064D02*
D03*
D13*
X003048Y004222D02*
D03*
D14*
X003048Y003602D02*
D03*
X003278D02*
D03*
D15*
X002818Y003602D02*
D03*
D16*
X003511Y003070D02*
D03*
X003761D02*
D03*
X003961D02*
D03*
X004211D02*
D03*
D17*
X003556Y003495D02*
D03*
Y003810D02*
D03*
D18*
X003099Y003251D02*
D03*
X002784D02*
D03*
D20*
X004263Y006202D02*
D03*
X004013Y006452D02*
D03*
X004263Y006702D02*
D03*
X003763D02*
D03*
Y006202D02*
D03*
D21*
X002794Y006655D02*
D03*
D22*
X002794Y004623D02*
D03*
Y004877D02*
D03*
Y005131D02*
D03*
Y005385D02*
D03*
Y005639D02*
D03*
Y005893D02*
D03*
Y006147D02*
D03*
Y006401D02*
D03*
D23*
X004318Y005944D02*
D03*
X004046Y005946D02*
D03*
D24*
X003636Y002810D02*
D03*
X004086D02*
D03*
D25*
X003291Y002810D02*
D03*
X004431D02*
D03*
D26*
X003150Y005578D02*
D03*
D27*
X003150Y005090D02*
D03*
D28*
X004022Y003878D02*
D03*
M02*
