%FSAX42Y42*%
%MOMM*%
G71*
G01*
G75*
G04 Layer_Physical_Order=2*
G04 Layer_Color=16711680*
%ADD10R,1.10X1.00*%
%ADD11R,0.87X0.87*%
%ADD12R,1.00X1.10*%
%ADD13R,3.40X2.15*%
%ADD14R,1.05X2.15*%
%ADD15R,1.05X2.15*%
%ADD16R,1.70X1.25*%
%ADD17R,1.52X1.52*%
%ADD18P,1.65X8X202.5*%
%ADD19R,1.52X1.52*%
%ADD20P,1.65X8X292.5*%
%ADD21R,0.50X2.10*%
%ADD22C,0.25*%
%ADD23C,1.50*%
%ADD24R,1.50X1.50*%
%ADD25C,2.50*%
%ADD26C,1.52*%
%ADD27C,1.40*%
%ADD28P,1.52X8X112.5*%
%ADD29C,3.00*%
%ADD30C,1.65*%
%ADD31C,1.27*%
%ADD32O,0.80X0.28*%
%ADD33O,0.28X0.80*%
%ADD34R,7.65X7.65*%
%ADD35O,0.40X2.10*%
%ADD36R,0.80X0.35*%
G36*
X003349Y006893D02*
X003353Y006872D01*
X003365Y006855D01*
X003382Y006843D01*
X003382Y006843D01*
X003382D01*
X003390Y006837D01*
X003379Y006812D01*
X003376Y006785D01*
X003379Y006758D01*
X003390Y006733D01*
X003397Y006724D01*
X003391Y006712D01*
X003240D01*
Y006597D01*
Y006597D01*
X003320D01*
Y006582D01*
X003240D01*
Y006532D01*
Y006467D01*
X003263D01*
Y006289D01*
Y006205D01*
X003254Y006201D01*
X003244Y006208D01*
Y006338D01*
X003240Y006358D01*
X003228Y006375D01*
X003038Y006565D01*
X003021Y006577D01*
X003000Y006581D01*
X002909D01*
Y006770D01*
X002679D01*
Y006550D01*
X002617Y006488D01*
X002605Y006471D01*
X002601Y006450D01*
Y006032D01*
X002601Y006032D01*
X002601D01*
X002605Y006011D01*
X002617Y005994D01*
X002684Y005927D01*
X002682Y005923D01*
X002678Y005893D01*
X002682Y005863D01*
X002694Y005835D01*
X002712Y005811D01*
X002736Y005792D01*
X002764Y005781D01*
X002794Y005777D01*
X002824Y005781D01*
X002852Y005792D01*
X002876Y005811D01*
X002894Y005835D01*
X002906Y005863D01*
X002910Y005893D01*
X002906Y005923D01*
X002895Y005950D01*
X002906Y005957D01*
X002914Y005946D01*
X002927Y005936D01*
X002926Y005933D01*
X002926D01*
X002926Y005933D01*
Y005858D01*
X003021D01*
Y005828D01*
X002926D01*
Y005753D01*
Y005705D01*
X003021D01*
Y005690D01*
X003036D01*
Y005600D01*
X003053D01*
X003058Y005589D01*
X003054Y005583D01*
X003042Y005556D01*
X003039Y005527D01*
X003039Y005524D01*
X003031Y005514D01*
X002907D01*
Y005445D01*
X002895Y005442D01*
X002894Y005443D01*
X002876Y005467D01*
X002852Y005485D01*
X002824Y005497D01*
X002794Y005501D01*
X002764Y005497D01*
X002736Y005485D01*
X002728Y005479D01*
X002720Y005489D01*
X002760Y005529D01*
X002764Y005527D01*
X002794Y005523D01*
X002824Y005527D01*
X002852Y005538D01*
X002876Y005557D01*
X002894Y005581D01*
X002906Y005609D01*
X002910Y005639D01*
X002906Y005669D01*
X002894Y005697D01*
X002876Y005721D01*
X002852Y005739D01*
X002824Y005751D01*
X002794Y005755D01*
X002764Y005751D01*
X002736Y005739D01*
X002712Y005721D01*
X002694Y005697D01*
X002682Y005669D01*
X002678Y005639D01*
X002682Y005609D01*
X002684Y005605D01*
X002593Y005514D01*
X002581Y005519D01*
Y006949D01*
X003349D01*
Y006893D01*
D02*
G37*
G36*
X003666Y004630D02*
X003663Y004605D01*
X003667Y004578D01*
X003677Y004553D01*
X003694Y004531D01*
X003714Y004516D01*
Y004485D01*
X003714Y004485D01*
X003714D01*
X003718Y004464D01*
X003730Y004447D01*
X003912Y004265D01*
D01*
X003912D01*
X003912Y004265D01*
X003912Y004265D01*
X003912D01*
D01*
X003912D01*
X003912Y004265D01*
Y004265D01*
X003912Y004265D01*
Y004265D01*
X003929Y004253D01*
X003950Y004249D01*
X004076D01*
Y004206D01*
Y004146D01*
X004166D01*
Y004131D01*
X004181D01*
Y004036D01*
X004303D01*
Y004131D01*
X004333D01*
Y004036D01*
X004399D01*
Y003212D01*
X004403Y003192D01*
X004415Y003175D01*
X004432Y003163D01*
X004453Y003159D01*
X004509D01*
Y003041D01*
X004497Y003036D01*
X004493Y003040D01*
X004463Y003052D01*
X004431Y003056D01*
X004399Y003052D01*
X004369Y003040D01*
X004343Y003020D01*
X004324Y002994D01*
X004311Y002964D01*
X004307Y002933D01*
X004311Y002901D01*
X004314Y002894D01*
X004311Y002887D01*
X004307Y002855D01*
X004311Y002823D01*
X004315Y002814D01*
X004311Y002804D01*
X004307Y002773D01*
X004311Y002741D01*
X004315Y002733D01*
X004311Y002724D01*
X004307Y002693D01*
X004311Y002661D01*
X004324Y002631D01*
X004343Y002605D01*
X004359Y002593D01*
X004355Y002581D01*
X003367D01*
X003363Y002593D01*
X003378Y002605D01*
X003398Y002631D01*
X003410Y002661D01*
X003414Y002693D01*
X003410Y002724D01*
X003407Y002733D01*
X003410Y002741D01*
X003414Y002773D01*
X003410Y002804D01*
X003406Y002814D01*
X003410Y002823D01*
X003414Y002855D01*
X003410Y002887D01*
X003407Y002894D01*
X003410Y002901D01*
X003414Y002933D01*
X003410Y002964D01*
X003398Y002994D01*
X003378Y003020D01*
X003353Y003040D01*
X003323Y003052D01*
X003291Y003056D01*
X003259Y003052D01*
X003229Y003040D01*
X003203Y003020D01*
X003184Y002994D01*
X003171Y002964D01*
X003167Y002933D01*
X003171Y002901D01*
X003174Y002894D01*
X003171Y002887D01*
X003167Y002855D01*
X003171Y002823D01*
X003175Y002814D01*
X003171Y002804D01*
X003167Y002773D01*
X003171Y002741D01*
X003175Y002733D01*
X003171Y002724D01*
X003167Y002693D01*
X003171Y002661D01*
X003184Y002631D01*
X003203Y002605D01*
X003219Y002593D01*
X003215Y002581D01*
X002691D01*
Y003728D01*
X002687Y003748D01*
X002675Y003765D01*
X002658Y003777D01*
X002638Y003781D01*
X002581D01*
Y004544D01*
X002593Y004549D01*
X002687Y004455D01*
D01*
X002687D01*
X002687Y004455D01*
X002687Y004455D01*
X002687D01*
D01*
X002687D01*
X002687Y004455D01*
Y004455D01*
X002687Y004455D01*
Y004455D01*
X002698Y004447D01*
X002700Y004435D01*
X002694Y004427D01*
X002682Y004399D01*
X002680Y004384D01*
X002794D01*
Y004369D01*
X002809D01*
Y004255D01*
X002824Y004257D01*
X002852Y004268D01*
X002876Y004287D01*
X002894Y004311D01*
X002906Y004339D01*
X002906Y004341D01*
X002935D01*
Y004296D01*
X002856Y004217D01*
X002844Y004199D01*
X002840Y004179D01*
Y004157D01*
X002827Y004156D01*
X002826Y004167D01*
X002815Y004192D01*
X002799Y004214D01*
X002777Y004230D01*
X002752Y004241D01*
X002725Y004244D01*
X002698Y004241D01*
X002673Y004230D01*
X002651Y004214D01*
X002635Y004192D01*
X002624Y004167D01*
X002621Y004140D01*
X002624Y004113D01*
X002635Y004088D01*
X002651Y004066D01*
X002673Y004050D01*
X002698Y004039D01*
X002725Y004036D01*
X002750Y004039D01*
X002768Y004021D01*
Y003918D01*
X002772Y003894D01*
X002785Y003874D01*
X002805Y003861D01*
X002829Y003856D01*
X002852Y003861D01*
X002861Y003867D01*
X002870Y003861D01*
X002894Y003856D01*
X002917Y003861D01*
X002926Y003867D01*
X002935Y003861D01*
X002959Y003856D01*
X002982Y003861D01*
X002991Y003867D01*
X003000Y003861D01*
X003024Y003856D01*
X003047Y003861D01*
X003056Y003867D01*
X003065Y003861D01*
X003089Y003856D01*
X003112Y003861D01*
X003121Y003867D01*
X003130Y003861D01*
X003154Y003856D01*
X003177Y003861D01*
X003186Y003867D01*
X003195Y003861D01*
X003204Y003859D01*
Y003884D01*
X003210Y003894D01*
X003215Y003918D01*
Y004003D01*
Y004088D01*
X003210Y004111D01*
X003204Y004121D01*
Y004136D01*
X003216Y004148D01*
X003219Y004149D01*
X003218Y004150D01*
X003331Y004264D01*
X003362D01*
X003383Y004268D01*
X003400Y004280D01*
X003478Y004357D01*
X003490Y004374D01*
X003494Y004395D01*
Y004516D01*
X003504Y004523D01*
X003508Y004522D01*
X003535Y004518D01*
X003562Y004522D01*
X003587Y004532D01*
X003609Y004549D01*
X003625Y004570D01*
X003636Y004595D01*
X003639Y004622D01*
X003637Y004643D01*
X003648Y004648D01*
X003666Y004630D01*
D02*
G37*
G36*
X004399Y006815D02*
X004387Y006811D01*
X004380Y006819D01*
X004355Y006839D01*
X004327Y006855D01*
X004296Y006864D01*
X004278Y006866D01*
Y006702D01*
Y006537D01*
X004296Y006539D01*
X004327Y006548D01*
X004355Y006564D01*
X004380Y006584D01*
X004387Y006592D01*
X004399Y006588D01*
Y006315D01*
X004387Y006311D01*
X004380Y006319D01*
X004355Y006339D01*
X004327Y006355D01*
X004296Y006364D01*
X004278Y006366D01*
Y006202D01*
X004263D01*
Y006187D01*
X004102D01*
X004100Y006190D01*
X004098Y006192D01*
X004097Y006202D01*
X004098Y006212D01*
X004086Y006208D01*
X004084Y006211D01*
X004062Y006228D01*
X004037Y006238D01*
X004010Y006242D01*
X003983Y006238D01*
X003958Y006228D01*
X003939Y006213D01*
X003927Y006219D01*
X003926Y006234D01*
X003916Y006265D01*
X003901Y006294D01*
X003880Y006319D01*
X003855Y006339D01*
X003827Y006355D01*
X003796Y006364D01*
X003778Y006366D01*
Y006202D01*
X003748D01*
Y006366D01*
X003731Y006364D01*
X003700Y006355D01*
X003671Y006339D01*
X003646Y006319D01*
X003625Y006294D01*
X003610Y006265D01*
X003608Y006258D01*
X003595Y006259D01*
Y006289D01*
Y006479D01*
X003560D01*
Y006532D01*
Y006562D01*
X003572Y006567D01*
X003725Y006414D01*
D01*
X003725D01*
X003725Y006414D01*
X003725Y006414D01*
X003725D01*
D01*
X003725D01*
X003725Y006414D01*
Y006414D01*
X003725Y006414D01*
Y006414D01*
X003743Y006402D01*
X003763Y006398D01*
X003857D01*
X003860Y006388D01*
X003875Y006359D01*
X003896Y006334D01*
X003921Y006314D01*
X003950Y006298D01*
X003981Y006289D01*
X004013Y006286D01*
X004046Y006289D01*
X004077Y006298D01*
X004105Y006314D01*
X004130Y006334D01*
X004151Y006359D01*
X004166Y006388D01*
X004176Y006419D01*
X004179Y006452D01*
X004176Y006484D01*
X004166Y006515D01*
X004151Y006544D01*
X004130Y006569D01*
X004105Y006589D01*
X004077Y006605D01*
X004046Y006614D01*
X004013Y006617D01*
X003981Y006614D01*
X003950Y006605D01*
X003921Y006589D01*
X003896Y006569D01*
X003875Y006544D01*
X003860Y006515D01*
X003857Y006505D01*
X003786D01*
X003761Y006530D01*
X003763Y006536D01*
X003754Y006537D01*
X003748Y006543D01*
Y006702D01*
X003763D01*
Y006717D01*
X003928D01*
X003926Y006734D01*
X003916Y006765D01*
X003901Y006794D01*
X003880Y006819D01*
X003855Y006839D01*
X003827Y006855D01*
X003823Y006865D01*
X003827Y006872D01*
X003831Y006892D01*
X003831Y006893D01*
X003831Y006893D01*
Y006893D01*
Y006949D01*
X004399D01*
Y006815D01*
D02*
G37*
%LPC*%
G36*
X004151Y004116D02*
X004076D01*
Y004071D01*
X004065Y004063D01*
X004060Y004065D01*
X004022Y004068D01*
X003985Y004065D01*
X003949Y004054D01*
X003916Y004036D01*
X003888Y004012D01*
X003864Y003984D01*
X003846Y003951D01*
X003835Y003915D01*
X003832Y003878D01*
X003835Y003840D01*
X003846Y003804D01*
X003864Y003771D01*
X003888Y003742D01*
X003916Y003719D01*
X003949Y003701D01*
X003985Y003690D01*
X004022Y003687D01*
X004060Y003690D01*
X004096Y003701D01*
X004129Y003719D01*
X004158Y003742D01*
X004181Y003771D01*
X004199Y003804D01*
X004210Y003840D01*
X004213Y003878D01*
X004210Y003915D01*
X004199Y003951D01*
X004181Y003984D01*
X004158Y004012D01*
X004129Y004036D01*
X004129Y004036D01*
X004151D01*
Y004116D01*
D02*
G37*
G36*
X003674Y004149D02*
X003650Y004144D01*
X003641Y004138D01*
X003632Y004144D01*
X003609Y004149D01*
X003585Y004144D01*
X003576Y004138D01*
X003567Y004144D01*
X003544Y004149D01*
X003520Y004144D01*
X003511Y004138D01*
X003502Y004144D01*
X003479Y004149D01*
X003455Y004144D01*
X003446Y004138D01*
X003437Y004144D01*
X003414Y004149D01*
X003390Y004144D01*
X003381Y004138D01*
X003372Y004144D01*
X003349Y004149D01*
X003325Y004144D01*
X003316Y004138D01*
X003307Y004144D01*
X003284Y004149D01*
X003260Y004144D01*
X003251Y004138D01*
X003242Y004144D01*
X003234Y004146D01*
Y004121D01*
X003227Y004111D01*
X003223Y004088D01*
Y004003D01*
Y003918D01*
X003227Y003894D01*
X003234Y003884D01*
Y003859D01*
X003242Y003861D01*
X003251Y003867D01*
X003260Y003861D01*
X003284Y003856D01*
X003307Y003861D01*
X003316Y003867D01*
X003325Y003861D01*
X003349Y003856D01*
X003372Y003861D01*
X003381Y003867D01*
X003390Y003861D01*
X003414Y003856D01*
X003437Y003861D01*
X003446Y003867D01*
X003455Y003861D01*
X003479Y003856D01*
X003502Y003861D01*
X003511Y003867D01*
X003520Y003861D01*
X003544Y003856D01*
X003567Y003861D01*
X003576Y003867D01*
X003585Y003861D01*
X003609Y003856D01*
X003632Y003861D01*
X003641Y003867D01*
X003650Y003861D01*
X003674Y003856D01*
X003697Y003861D01*
X003717Y003874D01*
X003730Y003894D01*
X003735Y003918D01*
Y004088D01*
X003730Y004111D01*
X003717Y004131D01*
X003697Y004144D01*
X003674Y004149D01*
D02*
G37*
G36*
X003219Y003459D02*
X003195Y003454D01*
X003186Y003448D01*
X003177Y003454D01*
X003154Y003459D01*
X003130Y003454D01*
X003121Y003448D01*
X003112Y003454D01*
X003089Y003459D01*
X003065Y003454D01*
X003056Y003448D01*
X003047Y003454D01*
X003039Y003456D01*
Y003431D01*
X003032Y003421D01*
X003028Y003398D01*
Y003313D01*
Y003228D01*
X003032Y003204D01*
X003039Y003194D01*
Y003169D01*
X003047Y003171D01*
X003056Y003177D01*
X003065Y003171D01*
X003089Y003166D01*
X003112Y003171D01*
X003121Y003177D01*
X003130Y003171D01*
X003154Y003166D01*
X003177Y003171D01*
X003186Y003177D01*
X003195Y003171D01*
X003219Y003166D01*
X003242Y003171D01*
X003251Y003177D01*
X003260Y003171D01*
X003269Y003169D01*
Y003194D01*
X003275Y003204D01*
X003280Y003228D01*
Y003313D01*
Y003398D01*
X003275Y003421D01*
X003269Y003431D01*
Y003456D01*
X003260Y003454D01*
X003251Y003448D01*
X003242Y003454D01*
X003219Y003459D01*
D02*
G37*
G36*
X003910Y003651D02*
X003490D01*
X003469Y003647D01*
X003452Y003635D01*
X003311Y003494D01*
X003299Y003477D01*
X003295Y003457D01*
X003295Y003457D01*
X003295Y003456D01*
Y003425D01*
X003292Y003421D01*
X003288Y003398D01*
Y003313D01*
Y003228D01*
X003292Y003204D01*
X003299Y003194D01*
Y003169D01*
X003307Y003171D01*
X003316Y003177D01*
X003325Y003171D01*
X003349Y003166D01*
X003372Y003171D01*
X003381Y003177D01*
X003390Y003171D01*
X003414Y003166D01*
X003437Y003171D01*
X003446Y003177D01*
X003455Y003171D01*
X003464Y003169D01*
Y003194D01*
X003470Y003204D01*
X003475Y003228D01*
Y003313D01*
X003483D01*
Y003228D01*
X003487Y003204D01*
X003494Y003194D01*
Y003169D01*
X003502Y003171D01*
X003511Y003177D01*
X003520Y003171D01*
X003544Y003166D01*
X003567Y003171D01*
X003576Y003177D01*
X003585Y003171D01*
X003609Y003166D01*
X003610Y003167D01*
X003620Y003159D01*
Y003156D01*
X003624Y003136D01*
X003636Y003118D01*
X003801Y002953D01*
Y002887D01*
X003781Y002871D01*
X003765Y002850D01*
X003761Y002842D01*
X003748Y002840D01*
X003736Y002868D01*
X003718Y002892D01*
X003694Y002910D01*
X003666Y002922D01*
X003636Y002926D01*
X003606Y002922D01*
X003578Y002910D01*
X003554Y002892D01*
X003535Y002868D01*
X003524Y002840D01*
X003520Y002810D01*
X003524Y002780D01*
X003535Y002752D01*
X003554Y002728D01*
X003578Y002710D01*
X003606Y002698D01*
X003636Y002694D01*
X003666Y002698D01*
X003694Y002710D01*
X003718Y002728D01*
X003736Y002752D01*
X003743Y002768D01*
X003755D01*
X003765Y002745D01*
X003781Y002724D01*
X003803Y002707D01*
X003828Y002697D01*
X003855Y002693D01*
X003882Y002697D01*
X003907Y002707D01*
X003929Y002724D01*
X003945Y002745D01*
X003956Y002770D01*
X003959Y002795D01*
X003972D01*
X003974Y002780D01*
X003985Y002752D01*
X004004Y002728D01*
X004028Y002710D01*
X004056Y002698D01*
X004086Y002694D01*
X004116Y002698D01*
X004144Y002710D01*
X004168Y002728D01*
X004186Y002752D01*
X004198Y002780D01*
X004202Y002810D01*
X004198Y002840D01*
X004186Y002868D01*
X004168Y002892D01*
X004144Y002910D01*
X004116Y002922D01*
X004086Y002926D01*
X004056Y002922D01*
X004028Y002910D01*
X004004Y002892D01*
X003985Y002868D01*
X003974Y002840D01*
X003970Y002812D01*
X003957D01*
X003956Y002825D01*
X003945Y002850D01*
X003929Y002871D01*
X003909Y002887D01*
Y002975D01*
X003905Y002996D01*
X003893Y003013D01*
X003727Y003179D01*
Y003200D01*
X003730Y003204D01*
X003735Y003228D01*
Y003398D01*
X003730Y003421D01*
X003717Y003441D01*
X003697Y003454D01*
X003674Y003459D01*
X003671Y003465D01*
X003675Y003469D01*
X003878D01*
X003899Y003448D01*
Y003384D01*
X003879Y003369D01*
X003862Y003347D01*
X003852Y003322D01*
X003848Y003295D01*
X003852Y003268D01*
X003862Y003243D01*
X003879Y003221D01*
X003900Y003205D01*
X003925Y003194D01*
X003953Y003191D01*
X003980Y003194D01*
X004005Y003205D01*
X004026Y003221D01*
X004043Y003243D01*
X004053Y003268D01*
X004057Y003295D01*
X004053Y003322D01*
X004043Y003347D01*
X004026Y003369D01*
X004006Y003384D01*
Y003409D01*
X004018Y003414D01*
X004107Y003324D01*
X004106Y003310D01*
X004109Y003283D01*
X004120Y003258D01*
X004136Y003236D01*
X004158Y003220D01*
X004183Y003209D01*
X004210Y003206D01*
X004237Y003209D01*
X004262Y003220D01*
X004284Y003236D01*
X004300Y003258D01*
X004311Y003283D01*
X004314Y003310D01*
X004311Y003337D01*
X004300Y003362D01*
X004284Y003384D01*
X004262Y003400D01*
X004237Y003411D01*
X004210Y003414D01*
X004183Y003411D01*
X004176Y003408D01*
X003948Y003635D01*
X003931Y003647D01*
X003910Y003651D01*
D02*
G37*
G36*
X002894Y003459D02*
X002870Y003454D01*
X002861Y003448D01*
X002852Y003454D01*
X002829Y003459D01*
X002805Y003454D01*
X002785Y003441D01*
X002772Y003421D01*
X002768Y003398D01*
Y003228D01*
X002772Y003204D01*
X002785Y003184D01*
X002805Y003171D01*
X002829Y003166D01*
X002852Y003171D01*
X002861Y003177D01*
X002870Y003171D01*
X002894Y003166D01*
X002917Y003171D01*
X002926Y003177D01*
X002935Y003171D01*
X002944Y003169D01*
Y003194D01*
X002950Y003204D01*
X002955Y003228D01*
Y003313D01*
Y003398D01*
X002950Y003421D01*
X002944Y003431D01*
Y003456D01*
X002935Y003454D01*
X002926Y003448D01*
X002917Y003454D01*
X002894Y003459D01*
D02*
G37*
G36*
X003009Y003456D02*
X003000Y003454D01*
X002991Y003448D01*
X002982Y003454D01*
X002974Y003456D01*
Y003313D01*
Y003169D01*
X002982Y003171D01*
X002991Y003177D01*
X003000Y003171D01*
X003009Y003169D01*
Y003313D01*
Y003456D01*
D02*
G37*
G36*
X004248Y006366D02*
X004231Y006364D01*
X004200Y006355D01*
X004171Y006339D01*
X004146Y006319D01*
X004125Y006294D01*
X004110Y006265D01*
X004101Y006234D01*
X004099Y006217D01*
X004248D01*
Y006366D01*
D02*
G37*
G36*
X003928Y006687D02*
X003778D01*
Y006537D01*
X003796Y006539D01*
X003827Y006548D01*
X003855Y006564D01*
X003880Y006584D01*
X003901Y006609D01*
X003916Y006638D01*
X003926Y006669D01*
X003928Y006687D01*
D02*
G37*
G36*
X004248D02*
X004099D01*
X004101Y006669D01*
X004110Y006638D01*
X004125Y006609D01*
X004146Y006584D01*
X004171Y006564D01*
X004200Y006548D01*
X004231Y006539D01*
X004248Y006537D01*
Y006687D01*
D02*
G37*
G36*
X002779Y004354D02*
X002680D01*
X002682Y004339D01*
X002694Y004311D01*
X002712Y004287D01*
X002736Y004268D01*
X002764Y004257D01*
X002779Y004255D01*
Y004354D01*
D02*
G37*
G36*
X003006Y005675D02*
X002926D01*
Y005600D01*
X003006D01*
Y005675D01*
D02*
G37*
G36*
X004248Y006866D02*
X004231Y006864D01*
X004200Y006855D01*
X004171Y006839D01*
X004146Y006819D01*
X004125Y006794D01*
X004110Y006765D01*
X004101Y006734D01*
X004099Y006717D01*
X004248D01*
Y006866D01*
D02*
G37*
%LPD*%
D10*
X003191Y005690D02*
D03*
Y005843D02*
D03*
X003021D02*
D03*
Y005690D02*
D03*
D12*
X004166Y004131D02*
D03*
Y004301D02*
D03*
X004318D02*
D03*
Y004131D02*
D03*
X003302Y004606D02*
D03*
Y004436D02*
D03*
X003150Y004606D02*
D03*
Y004436D02*
D03*
X002989Y004606D02*
D03*
Y004436D02*
D03*
X002997Y004893D02*
D03*
Y005063D02*
D03*
Y005249D02*
D03*
Y005419D02*
D03*
X003353Y006214D02*
D03*
X003505D02*
D03*
Y006384D02*
D03*
X003353D02*
D03*
D22*
X002790Y002865D02*
X003024Y003099D01*
X003409D01*
X003479Y003169D01*
Y003313D01*
X003349D02*
Y003456D01*
X003490Y003597D01*
X003910D01*
X004204Y003304D01*
X003953Y003470D02*
X003900Y003522D01*
X003653D01*
X003609Y003479D01*
Y003313D01*
X003674D02*
Y003156D01*
X003855Y002975D01*
Y002798D01*
X003953Y003295D02*
Y003470D01*
X003442Y003675D02*
X003421D01*
X003195D01*
X003024Y003504D01*
Y003313D01*
Y003099D01*
X003284Y003313D02*
Y003516D01*
X003442Y003675D01*
X003421D02*
X003219Y003878D01*
Y004003D01*
X003089D02*
Y004097D01*
X003309Y004317D01*
X003362D01*
X003440Y004395D01*
Y004581D01*
X003439Y004583D01*
Y004699D01*
X003529Y004790D01*
Y004832D01*
X003532Y004835D01*
X003535Y004622D02*
X003583Y004670D01*
Y004835D01*
X003633D02*
Y005060D01*
X003633Y004835D02*
Y004505D01*
X003390Y004262D01*
X003340D01*
X003219Y004141D01*
Y004105D01*
X003302Y004405D02*
Y004436D01*
X003390Y004492D02*
Y004690D01*
X003300Y004780D01*
Y005108D01*
X003353Y005160D01*
X003408D01*
X003407Y005210D02*
X003783D01*
X003683Y004835D02*
Y004690D01*
X003767Y004605D01*
Y004485D01*
X003950Y004303D01*
X004164D01*
X004166Y004301D02*
X004318D01*
Y004385D01*
X004465Y004533D01*
Y005306D01*
X004415Y005357D01*
X004346D01*
X004343Y005360D01*
X004287D01*
X004307Y005410D02*
Y005460D01*
X004307Y005460D02*
X004412D01*
X004373Y005608D02*
X004430Y005665D01*
Y005764D01*
X004360Y005834D01*
Y005893D01*
X004321D01*
X004380Y005747D02*
Y005690D01*
X004348Y005658D01*
X004287D01*
X004287Y005608D02*
X004373D01*
X004380Y005747D02*
X004308Y005820D01*
X004240D01*
X004114Y005946D01*
X004046D01*
X003888Y005940D02*
Y006015D01*
X004010Y006138D01*
X003888Y005940D02*
X004032Y005795D01*
Y005735D01*
X003982Y005735D02*
Y005410D01*
X003932Y005360D02*
Y005735D01*
X003982D01*
X003882Y005735D02*
Y005836D01*
X003639Y006079D01*
X003536D01*
X003495Y006120D01*
Y006174D01*
X003360Y006186D02*
X003512Y006034D01*
X003621D01*
X003833Y005822D01*
Y005735D01*
X004082Y005510D02*
X004307D01*
X004307Y005310D02*
X003882D01*
X003882Y004835D02*
Y004658D01*
X003938Y004603D01*
X003932Y004760D02*
X004067Y004625D01*
Y004515D01*
X004008Y004455D01*
X003972D01*
X003975Y004131D02*
X004166D01*
X004318D01*
X004322Y004525D02*
Y004578D01*
X004248D01*
X004032Y004793D01*
Y004835D01*
X003982D02*
Y004778D01*
X004155Y004605D01*
Y004460D01*
X004410Y004700D02*
X004465Y004645D01*
X004410Y004700D02*
X004265D01*
X004183Y004783D01*
Y004835D01*
X004132Y004835D02*
Y005010D01*
X003932Y004835D02*
Y004760D01*
X003408Y005260D02*
X003350D01*
X003129Y005039D01*
X003150D02*
Y004897D01*
X003146Y004893D01*
X002997D01*
Y005063D02*
Y005245D01*
X002940D01*
X002905Y005280D01*
Y005500D01*
X002976Y005571D01*
X003014D01*
Y005698D01*
X003021Y005690D01*
X003014Y005698D02*
X002945Y005766D01*
X002946Y005767D01*
X003021Y005843D01*
X003033Y005975D02*
X003313D01*
X003436Y005852D01*
X003545D01*
X003583Y005815D01*
Y005735D01*
X003633Y005735D02*
Y005829D01*
X003564Y005897D01*
X003455D01*
X003321Y006032D01*
X003196D01*
X003081Y006147D01*
X002794D01*
Y005893D02*
X002655Y006032D01*
Y006450D01*
X002733Y006528D01*
X003000D01*
X003190Y006338D01*
Y006185D01*
X003253Y006122D01*
X003317D01*
X003319Y006125D01*
X003357D01*
X003493Y005988D01*
X003602D01*
X003733Y005858D01*
Y005735D01*
X003783Y005735D02*
Y005360D01*
X003407D01*
X003408Y005410D02*
X003277D01*
X003212Y005345D01*
Y005360D01*
X003278Y005522D02*
Y005586D01*
X003191Y005672D01*
Y005690D01*
X003150Y005527D02*
X003041Y005419D01*
X002997D01*
X003014Y005403D01*
X003030D01*
X003100Y005333D01*
Y005242D01*
X003125Y005217D01*
X003243D01*
X003332Y005307D01*
X003404D01*
X003408Y005310D01*
X003633Y005510D02*
X003407D01*
X003408Y005460D02*
X003340D01*
X003278Y005522D01*
X003323Y005587D02*
Y005778D01*
X003258Y005843D01*
X003191D01*
X003223Y006077D02*
X003340D01*
X003475Y005943D01*
X003583D01*
X003683Y005843D01*
Y005735D01*
X003408Y005560D02*
X003350D01*
X003323Y005587D01*
X003223Y006077D02*
X002899Y006401D01*
X002794D01*
X003208Y006590D02*
X003555D01*
X003763Y006382D01*
Y006202D01*
X003809Y006247D01*
X004263D01*
Y006702D01*
X003763D01*
X003560Y006655D02*
X003763Y006452D01*
X004013D01*
X003560Y006655D02*
X003505D01*
X003480Y006655D02*
Y006785D01*
Y006525D02*
Y006409D01*
X003353Y006384D02*
Y006492D01*
X003320Y006525D01*
X003324Y006186D02*
X003360D01*
X003208Y006590D02*
X002920Y006878D01*
X002715D01*
X002590Y006753D01*
Y005865D01*
X002688Y005767D01*
X002946D01*
X002794Y005639D02*
X002794D01*
X002630Y005475D01*
Y004588D01*
X002725Y004492D01*
X002855D01*
X002968Y004606D01*
X002989D01*
X003150D01*
X003302D01*
X003302Y004606D01*
X003390Y004492D02*
X003024Y004126D01*
Y004003D01*
Y003949D01*
X002959Y004058D02*
Y004179D01*
X003150Y004371D01*
Y004436D01*
X003300Y004780D02*
X002951D01*
X002794Y004623D01*
X002989Y004436D02*
Y004274D01*
X002894Y004179D01*
Y004003D01*
X002829D02*
Y004036D01*
X002725Y004140D01*
X002959Y003313D02*
X003024D01*
X003349Y003262D02*
Y003313D01*
D23*
X003636Y002810D02*
D03*
X004086D02*
D03*
X002794Y004369D02*
D03*
Y004623D02*
D03*
Y004877D02*
D03*
Y005131D02*
D03*
Y005385D02*
D03*
Y005639D02*
D03*
Y005893D02*
D03*
Y006147D02*
D03*
Y006401D02*
D03*
D24*
X002794Y006655D02*
D03*
D25*
X004263Y006202D02*
D03*
X004013Y006452D02*
D03*
X004263Y006702D02*
D03*
X003763D02*
D03*
Y006202D02*
D03*
D26*
X004318Y005944D02*
D03*
X004046Y005946D02*
D03*
D27*
X003150Y005527D02*
D03*
D28*
X003150Y005039D02*
D03*
D29*
X004022Y003878D02*
D03*
D30*
X003291Y002693D02*
D03*
Y002773D02*
D03*
Y002855D02*
D03*
Y002933D02*
D03*
X004431Y002773D02*
D03*
Y002693D02*
D03*
Y002855D02*
D03*
Y002933D02*
D03*
D31*
X002790Y002865D02*
D03*
X003855Y002798D02*
D03*
X003953Y003295D02*
D03*
X004210Y003310D02*
D03*
X004155Y004460D02*
D03*
X004322Y004578D02*
D03*
X003845Y005325D02*
D03*
X003767Y004605D02*
D03*
X003972Y004455D02*
D03*
X003938Y004603D02*
D03*
X003535Y004622D02*
D03*
X003212Y005360D02*
D03*
X002988Y006020D02*
D03*
X003480Y006785D02*
D03*
X004010Y006138D02*
D03*
X004453Y005500D02*
D03*
X002725Y004140D02*
D03*
D32*
X004307Y004910D02*
D03*
Y004960D02*
D03*
Y005010D02*
D03*
Y005060D02*
D03*
Y005110D02*
D03*
Y005160D02*
D03*
Y005210D02*
D03*
Y005260D02*
D03*
Y005310D02*
D03*
Y005360D02*
D03*
X004307Y005410D02*
D03*
X004307Y005460D02*
D03*
Y005510D02*
D03*
Y005560D02*
D03*
Y005610D02*
D03*
X004307Y005660D02*
D03*
X003407Y005660D02*
D03*
Y005610D02*
D03*
Y005560D02*
D03*
Y005510D02*
D03*
Y005460D02*
D03*
Y005410D02*
D03*
Y005360D02*
D03*
Y005310D02*
D03*
Y005260D02*
D03*
Y005210D02*
D03*
Y005160D02*
D03*
Y005110D02*
D03*
Y005060D02*
D03*
Y005010D02*
D03*
Y004960D02*
D03*
Y004910D02*
D03*
D33*
X004082Y004835D02*
D03*
X004132D02*
D03*
X004182D02*
D03*
X004232D02*
D03*
X004032D02*
D03*
X003982D02*
D03*
X003932D02*
D03*
X003882D02*
D03*
X003833D02*
D03*
X003783D02*
D03*
X003733D02*
D03*
X003683D02*
D03*
X003633D02*
D03*
X003583D02*
D03*
X003532D02*
D03*
X003483D02*
D03*
X004082Y005735D02*
D03*
X004132D02*
D03*
X004182D02*
D03*
X004232D02*
D03*
X004032D02*
D03*
X003982D02*
D03*
X003932D02*
D03*
X003882D02*
D03*
X003833D02*
D03*
X003783D02*
D03*
X003733D02*
D03*
X003683D02*
D03*
X003633D02*
D03*
X003583D02*
D03*
X003532D02*
D03*
X003483D02*
D03*
D34*
X003857Y005285D02*
D03*
D35*
X003349Y003313D02*
D03*
X003414D02*
D03*
X003479D02*
D03*
X003544D02*
D03*
X003609D02*
D03*
X003674D02*
D03*
Y004003D02*
D03*
X003609D02*
D03*
X003544D02*
D03*
X003479D02*
D03*
X003414D02*
D03*
X003349D02*
D03*
X003284D02*
D03*
X003219D02*
D03*
X003154D02*
D03*
X003089D02*
D03*
X003024D02*
D03*
X002959D02*
D03*
X002894D02*
D03*
X002829D02*
D03*
Y003313D02*
D03*
X002894D02*
D03*
X002959D02*
D03*
X003024D02*
D03*
X003089D02*
D03*
X003154D02*
D03*
X003219D02*
D03*
X003284D02*
D03*
D36*
X003320Y006525D02*
D03*
Y006590D02*
D03*
X003480D02*
D03*
Y006525D02*
D03*
Y006655D02*
D03*
X003320D02*
D03*
M02*
